<?xml version="1.0" standalone="no"?>
<!DOCTYPE svg PUBLIC "-//W3C//DTD SVG 1.1//EN" "http://www.w3.org/Graphics/SVG/1.1/DTD/svg11.dtd" >
<svg xmlns="http://www.w3.org/2000/svg">
<metadata>
This is a custom SVG webfont generated by Font Squirrel.
Copyright   : Copyright  2000 Adobe Systems Incorporated All Rights Reserved Patent Des pending
Designer    : Robert Slimbach
Foundry URL : httpwwwadobecomtype
</metadata>
<defs>
<font id="WarnockProItalicCaption" horiz-adv-x="1062" >
<font-face units-per-em="2048" ascent="1505" descent="-543" />
<missing-glyph horiz-adv-x="520" />
<glyph unicode=" "  horiz-adv-x="520" />
<glyph unicode="&#x09;" horiz-adv-x="520" />
<glyph unicode="&#xa0;" horiz-adv-x="520" />
<glyph unicode="!" horiz-adv-x="493" d="M25 117l2 6q78 104 161 135h15q20 -14 49 -65.5t35 -79.5l-2 -13q-14 -29 -67.5 -76t-84.5 -59h-14q-25 18 -53.5 64.5t-40.5 87.5zM205 428q115 645 123 719l-11 108q27 23 103 47.5t162 28.5l16 -20q-6 -18 -47 -132t-113.5 -315.5t-146.5 -406.5z" />
<glyph unicode="&#x22;" horiz-adv-x="741" d="M254 889q70 326 78 411l-21 64q94 59 207 70h33q-18 -59 -89 -238.5t-114 -269.5zM588 899q70 369 76 414l-19 63q84 49 211 68l29 -2q-127 -348 -203 -508z" />
<glyph unicode="#" d="M61 403l78 140h191l106 284h-211l76 144h188l125 332l101 10l-127 -342h223l125 332l100 10l-131 -342h195l-80 -144h-168l-109 -284h191l-78 -140h-164l-133 -366l-100 -10l139 376h-225l-137 -366l-101 -10l141 376h-215zM426 543h225l105 284h-221z" />
<glyph unicode="$" d="M14 176q4 25 51.5 108t75.5 119l43 11q2 -29 4 -118t7 -138q61 -51 184 -70l143 500q-143 84 -211.5 160.5t-68.5 195.5q0 176 141 277.5t344 81.5l51 186l72 10l-55 -207q80 -23 139 -75q51 35 145 59l21 -14q-88 -248 -129 -310l-43 -16q-18 86 -27 205q-53 47 -129 67 l-135 -475q72 -41 110.5 -68.5t88 -72.5t72 -99.5t22.5 -119.5q0 -174 -140.5 -275.5t-357.5 -97.5l-55 -199l-80 -18l61 221q-113 18 -207 68.5t-137 103.5zM401 987q2 -70 43 -121t129 -102l127 457q-133 8 -217 -55.5t-82 -178.5zM455 86q150 4 225.5 65.5t75.5 163.5 q0 80 -42 133.5t-126 106.5z" />
<glyph unicode="%" horiz-adv-x="1683" d="M211 860q0 170 123 324.5t301 154.5h2q113 0 175 -76.5t62 -205.5q0 -178 -121.5 -323.5t-299.5 -145.5q-102 0 -172 70.5t-70 201.5zM254 -14q821 958 1169 1374l58 -68q-502 -584 -1172 -1376zM358 819q0 -70 29 -112.5t82 -42.5q100 0 179 149.5t79 292.5 q0 156 -96 156h-2q-82 0 -146.5 -83t-94.5 -181.5t-30 -178.5zM897 248q0 172 122 325.5t302 153.5h2q113 0 175.5 -77t62.5 -206q0 -178 -122 -322.5t-300 -144.5q-102 0 -172 71t-70 200zM1044 209q0 -70 30 -113t81 -43q102 0 180 149.5t78 291.5q0 156 -96 155h-2 q-80 0 -145.5 -83t-95.5 -181t-30 -176z" />
<glyph unicode="&#x26;" horiz-adv-x="1486" d="M94 381q0 283 377 401v4q-113 70 -113 207q0 150 127 246t314 96q80 0 161.5 -27.5t122.5 -70.5q-6 -31 -39.5 -96.5t-58.5 -93.5l-53 -19q-23 92 -31 209q-39 16 -98 16q-119 0 -193.5 -66.5t-74.5 -178.5q0 -74 60 -132.5t173 -78.5l-49 -72q-25 6 -70 6 q-133 -2 -245.5 -82t-110.5 -231q2 -133 96 -222.5t254 -89.5q166 0 295 109t162 293q-43 2 -101 2q-156 0 -286 -104l-4 71q53 63 153.5 112.5t231.5 49.5q90 0 225 -12q66 66 147 133l47 -43q-96 -123 -170 -248q-39 10 -153 29q-27 -180 -128 -303t-224 -172.5 t-258 -49.5q-217 0 -351.5 115t-134.5 293z" />
<glyph unicode="'" horiz-adv-x="409" d="M252 889q72 334 78 411l-23 64q98 61 209 70l33 -2q-16 -53 -88 -233.5t-117 -272.5z" />
<glyph unicode="(" horiz-adv-x="645" d="M113 319q2 360 185 678t501 482l47 -54q-264 -178 -420 -494.5t-158 -676.5q-2 -346 140 -576l-68 -45q-227 274 -227 686z" />
<glyph unicode=")" horiz-adv-x="673" d="M-117 -307q260 174 414 492.5t156 666.5q2 197 -40 350.5t-102 235.5l70 43q227 -268 227 -703q-2 -352 -182 -667.5t-496 -475.5z" />
<glyph unicode="*" horiz-adv-x="796" d="M215 989l43 -10l246 18l-6 -24l-189 -133l-35 -37q-27 16 -50 85.5t-9 100.5zM242 1122q4 41 44 93.5t81 64.5l18 -45l135 -203l-24 -10l-201 90zM381 702l35 48l102 198l21 13l26 -238l17 -61q-35 -6 -105.5 7t-95.5 33zM506 1327q20 14 97 3t93 -36l-28 -37l-105 -215 l-22 -4l-23 244zM559 963l12 10l207 -94l47 -13q-8 -45 -48 -91t-77 -56l-16 45zM569 997l6 27l183 137l37 39q31 -29 54 -97.5t15 -96.5l-51 10z" />
<glyph unicode="+" horiz-adv-x="1331" d="M168 426l25 123h415v424l140 22v-446h436l-23 -123h-413v-471l-140 -23v494h-440z" />
<glyph unicode="," horiz-adv-x="477" d="M-88 -188q90 49 149.5 123.5t59.5 144.5q0 23 -8 47l-95 68l2 32l148 107h29q29 -12 59.5 -63.5t30.5 -131.5q0 -123 -89 -229.5t-245 -165.5z" />
<glyph unicode="-" horiz-adv-x="745" d="M68 383l73 164l111 -6l428 26v-12l-92 -111z" />
<glyph unicode="." horiz-adv-x="477" d="M16 123l2 6q41 53 89.5 91t76.5 48h15q18 -18 47.5 -69.5t36.5 -79.5l-2 -15q-14 -29 -68.5 -76.5t-85.5 -62.5h-14q-25 20 -55 68.5t-42 89.5z" />
<glyph unicode="/" horiz-adv-x="802" d="M-55 -80l905 1464h139l-905 -1464h-139z" />
<glyph unicode="0" d="M94 438q0 141 45 296t124 291t202 225t262 89h2q150 0 240 -115.5t90 -346.5q0 -106 -23.5 -226.5t-75 -241t-122 -218t-173 -158t-221.5 -60.5q-154 0 -252 116t-98 349zM276 356q0 -162 50.5 -230.5t126.5 -68.5q92 0 175 92.5t137 230.5t86 293.5t32 287.5 q0 158 -47.5 226t-120.5 68h-2q-117 0 -220.5 -148.5t-160 -355.5t-56.5 -395z" />
<glyph unicode="1" d="M90 0l29 63l256 56q106 354 284 1042l-258 -6l31 53q408 127 418 131h27q-301 -1217 -302 -1220l240 -56l-31 -63q-55 0 -162.5 1t-160.5 1q-61 0 -185.5 -1t-185.5 -1z" />
<glyph unicode="2" d="M16 0l7 31l81 100q29 6 52 25q246 176 446 387q221 227 221 438q0 117 -62.5 183.5t-176.5 66.5q-90 0 -164 -45q-25 -154 -76 -268l-39 -23q-27 45 -53.5 124t-28.5 111q84 84 203 146.5t246 62.5q156 0 254 -95t98 -255q0 -145 -95 -272t-313 -307q-160 -133 -329 -258 v-5q51 -2 240.5 4.5t234.5 6.5q59 57 168 174l51 -45q-49 -133 -152 -297q-25 0 -206 5t-287 5h-320z" />
<glyph unicode="3" d="M4 111q76 162 129 233l41 8q16 -76 31 -258q53 -27 149 -26q164 0 270.5 88t106.5 237q0 117 -68.5 182.5t-175.5 71.5q-154 -27 -182 -26l-12 20q33 76 86 113q23 0 70 -3t63 -3q283 92 283 301q0 96 -57.5 145t-160 49t-147.5 -37q-51 -184 -74 -227l-41 -23 q-39 90 -67 224q215 160 420 159q145 0 233 -76.5t90 -201.5q0 -229 -366 -348l-2 -6q319 -59 319 -318q0 -180 -168 -298t-389 -118q-229 1 -381 138z" />
<glyph unicode="4" d="M23 469q115 150 411.5 467t353.5 360q78 35 201 43l-209 -852h107q84 88 131 115l37 4q-8 -35 -52.5 -157.5t-58.5 -149.5l-33 -12q-27 53 -43 114l-112 -2l-68 -282l180 -54l-24 -63q-45 0 -134 1t-137 1q-51 0 -152.5 -1t-152.5 -1l23 63l207 54q76 250 84 282l-527 -4 zM186 500q213 -8 418 -11l199 697l-17 -2q-211 -215 -322.5 -345t-277.5 -339z" />
<glyph unicode="5" d="M37 111q14 39 57 114.5t68 104.5l41 16q23 -133 28 -252q53 -29 148 -28q158 0 254 85t96 209q0 98 -68.5 164t-211.5 125q-55 23 -131 51.5t-97 36.5l-14 35q92 260 207 539h446q70 0 170 43l29 -60q-61 -57 -146 -104q-45 -27 -102 -29q-92 -8 -344 -8 q-18 -49 -71.5 -170t-63.5 -145q135 -45 237 -82q195 -68 273 -147t80 -210q0 -182 -150.5 -304t-374.5 -122q-111 0 -215 46.5t-145 91.5z" />
<glyph unicode="6" d="M88 438q0 180 84 357.5t270 320.5q139 111 314.5 173.5t296.5 66.5l28 -72q-258 -45 -450 -186q-246 -178 -316 -426h4q170 133 334 133q129 0 226.5 -91t99.5 -276q0 -188 -136 -326.5t-354 -138.5q-178 0 -289.5 122t-111.5 343zM276 403q-2 -164 61.5 -256t164.5 -92 h2q123 0 206 112t81 255q0 137 -63.5 201.5t-154.5 64.5q-76 0 -151.5 -37t-124.5 -88q-21 -66 -21 -160z" />
<glyph unicode="7" d="M180 2q51 113 367 512q287 358 477 645l2 4q-92 2 -311 2q-66 0 -160 -1t-129 -1q-98 -162 -119 -182l-63 -14q23 133 61 356q86 -10 150 -10h739l-18 -64q-25 -82 -375 -574.5t-375 -557.5l-29 -117l-200 -27z" />
<glyph unicode="8" d="M51 299q0 113 80 189.5t289 191.5v4q-176 127 -176 289q0 160 120.5 263t294.5 103q158 0 255.5 -91t97.5 -218q0 -29 -4 -55.5t-18.5 -51t-23 -41t-35 -40t-35.5 -33.5t-45 -32.5t-43 -28t-50 -30t-47 -26.5v-4q72 -55 111.5 -93t77.5 -105.5t38 -139.5 q0 -152 -131 -264.5t-336 -112.5q-193 0 -306.5 95.5t-113.5 230.5zM229 307q0 -111 75 -180.5t177 -69.5h2q119 0 196 69t77 185q0 23 -5.5 45.5t-13.5 41t-22.5 39t-25.5 34.5t-32.5 34.5t-33 31t-36 29t-32.5 23.5t-33.5 22.5t-27.5 19.5q-265 -158 -265 -324zM406 1018 q2 -86 65.5 -150.5t169.5 -128.5q211 127 211 295q0 100 -58.5 161.5t-152.5 61.5h-2q-102 0 -168.5 -70.5t-64.5 -168.5z" />
<glyph unicode="9" d="M119 29q215 57 401 192q236 174 316 408l-2 2q-143 -121 -310 -121q-129 0 -232.5 89t-103.5 269q0 182 142.5 326.5t341.5 144.5h2q174 0 278.5 -122.5t104.5 -342.5q0 -414 -367 -692q-139 -106 -293.5 -161.5t-249.5 -61.5zM379 889q0 -129 70.5 -193.5t150.5 -64.5 q66 0 137.5 29.5t108.5 82.5q31 88 31 181q-2 334 -215 333h-3q-127 0 -203.5 -111.5t-76.5 -256.5z" />
<glyph unicode=":" horiz-adv-x="477" d="M18 123l2 6q80 106 166 141h15q20 -20 49 -71.5t35 -79.5l-2 -15q-14 -29 -68.5 -75.5t-85.5 -63.5h-16q-60 54 -95 158zM154 754l2 6q74 98 163 139h15q20 -16 49 -68.5t35 -80.5l-2 -15q-14 -29 -68.5 -77t-83.5 -64h-16q-25 25 -54.5 72t-39.5 88z" />
<glyph unicode=";" horiz-adv-x="477" d="M-88 -186q90 49 149.5 123.5t59.5 144.5q0 31 -8 47l-95 66l2 34l148 107h29q29 -12 59.5 -62.5t30.5 -130.5q0 -123 -89 -230.5t-245 -166.5zM150 752l2 6q68 96 163 141h15q20 -18 49 -69.5t35 -81.5l-2 -13q-12 -29 -67.5 -77t-86.5 -62h-12q-27 20 -56.5 68.5 t-39.5 87.5z" />
<glyph unicode="&#x3c;" horiz-adv-x="1284" d="M141 403l29 150l864 448l-20 -141l-746 -383v-6l766 -391l-20 -131z" />
<glyph unicode="=" horiz-adv-x="1331" d="M174 229l25 123h977l-25 -123h-977zM174 627l25 123h977l-25 -123h-977z" />
<glyph unicode="&#x3e;" horiz-adv-x="1284" d="M248 -49l20 141l742 387v6l-762 385l20 131l873 -448l-29 -150z" />
<glyph unicode="?" horiz-adv-x="843" d="M199 117l2 6q78 104 161 135h13q20 -14 49 -64.5t35 -78.5l-2 -15q-14 -29 -67.5 -74.5t-82.5 -60.5h-12q-25 18 -54.5 64.5t-41.5 87.5zM276 1212q66 47 165.5 83t176.5 36q119 0 204 -70.5t85 -191.5q0 -88 -57 -153.5t-162 -133.5q-88 -57 -130 -85.5t-86 -71.5 t-50 -76q-10 -47 12 -105l-61 -30q-31 16 -66 84.5t-24 136.5q49 100 249 233q119 78 163 120t44 104q0 63 -50 105t-128 42q-35 0 -94 -18q-59 -152 -90 -201l-43 -21q-33 80 -58 213z" />
<glyph unicode="@" horiz-adv-x="1736" d="M111 328q0 377 259 622.5t648 245.5q274 0 458.5 -156.5t184.5 -427.5q0 -256 -186.5 -415.5t-444.5 -153.5q-49 0 -80 12q23 82 103 314h-6q-106 -143 -231.5 -234.5t-217.5 -91.5q-61 0 -93 48t-32 126q0 127 85 279.5t220 244.5q139 96 258 97q88 0 142 -54l14 39 l147 27l17 -10l-66 -109q-94 -264 -164 -557q-4 -25 13 -24q164 0 277.5 117.5t113.5 336.5q0 225 -143.5 360.5t-385.5 135.5q-332 0 -533.5 -212t-201.5 -534q0 -289 172 -451.5t432 -162.5q344 0 617 258l49 -68q-293 -313 -717 -313q-328 0 -518 197t-190 514zM637 236 q0 -74 43 -74q55 0 161.5 89t202.5 236q57 78 107 215q-31 43 -100 43h-2q-98 0 -201 -90q-90 -78 -150.5 -196.5t-60.5 -222.5z" />
<glyph unicode="A" horiz-adv-x="1409" d="M-98 0l22 66l148 61q25 31 77 108.5t134 201.5t154.5 234.5t181 277.5t169.5 261q20 31 19 56l-2 24l170 99l12 -11q-12 -33 -12 -94q0 -23 2 -51q8 -117 135 -1024q14 -72 43 -92.5t135 -44.5l-24 -72q-35 0 -110 1t-114 1q-37 0 -111.5 -1t-113.5 -1l14 57l99 54 q-4 43 -18.5 163.5t-22.5 192.5q-183 -9 -351 -9q-56 0 -110 1q-178 -279 -207 -332l166 -61l-22 -66q-39 0 -123 1t-125 1q-35 0 -106.5 -1t-108.5 -1zM496 575q43 0 205.5 -5t179.5 -5q-14 121 -36 311.5t-24 208.5h-8q-157 -256 -317 -510z" />
<glyph unicode="B" horiz-adv-x="1282" d="M-35 2l23 66l174 51q16 35 131 467l166 649l-178 35l32 61q246 29 439 29q465 0 465 -301q0 -141 -115 -226t-287 -110l-2 -6q170 -27 262 -107t92 -209q0 -195 -185 -301q-182 -104 -509 -104h-12q-277 4 -496 6zM354 90q28 -1 55 -1q300 0 420 85q131 88 132 227 q0 266 -441 267h-20q-115 -435 -146 -578zM518 756q229 2 365.5 79.5t136.5 221.5q0 117 -86 166t-266 49h-21z" />
<glyph unicode="C" horiz-adv-x="1394" d="M156 565q0 342 250.5 579.5t613.5 237.5q176 0 274 -67q39 18 164 41l19 -19q-18 -61 -71.5 -183t-74.5 -153l-47 -14q-20 154 -22 240q-78 53 -230 53q-287 0 -477 -205t-190 -508q0 -221 123.5 -357t345.5 -136q57 0 135 14q20 18 73.5 65.5t82 73t72.5 61.5t81 60 l35 -65q-96 -160 -187 -250q-197 -68 -354 -68q-279 0 -447.5 162t-168.5 438z" />
<glyph unicode="D" horiz-adv-x="1509" d="M-37 0l29 66l170 47q14 29 160 589l141 543l-180 27l32 61q279 27 437 27q344 0 529 -151.5t185 -440.5q0 -272 -171 -465.5t-447 -265.5q-158 -41 -572 -41q-63 0 -169.5 2t-143.5 2zM362 88q201 0 340.5 22.5t251.5 96.5q307 197 308 592q0 184 -95 299 q-144 168 -507 168h-9l-141 -564q-142 -565 -148 -614z" />
<glyph unicode="E" horiz-adv-x="1200" d="M-39 0l25 66l182 55q18 41 160 584l135 530l-180 51l28 62h236h514q102 20 172 20l8 -10q-68 -254 -94 -316l-43 -16q-12 39 -30.5 118t-29.5 113l-399 -16l-121 -487q313 0 527 22l8 -28q-16 -18 -75.5 -67.5t-68.5 -49.5q-6 0 -195.5 10t-223.5 10 q-12 -53 -62.5 -251.5t-68.5 -286.5l475 -21q35 35 118.5 122t126.5 128l39 -25q-14 -49 -59 -159.5t-76 -161.5q-199 6 -436 6h-317q-47 0 -137.5 -1t-137.5 -1z" />
<glyph unicode="F" horiz-adv-x="1128" d="M-8 0l20 63l152 64q14 27 155 571l140 537l-172 49l30 64h240h508q14 4 88 12t98 8l15 -14q-53 -199 -107 -336l-41 -17q-12 49 -33.5 141.5t-27.5 117.5l-414 -19l-131 -526q346 0 526 26l13 -30q-10 -16 -69.5 -67.5t-70.5 -51.5q-6 0 -198.5 10t-227.5 10 q-102 -403 -114 -485l239 -61l-32 -66q-55 0 -167 1t-169 1q-41 0 -125 -1t-125 -1z" />
<glyph unicode="G" horiz-adv-x="1536" d="M150 557q0 348 248.5 586.5t637.5 238.5q98 0 181 -24.5t120 -57.5q33 14 179 48l10 -17q-12 -49 -66.5 -180t-75.5 -162l-43 -12q-20 88 -32 233q-100 72 -269 72q-303 0 -493.5 -207t-190.5 -497q0 -236 132.5 -370t359.5 -134q123 0 213 35q27 76 79 218t74 210 l-462 8l-7 28l101 70q233 16 610 16q-35 -119 -153.5 -392t-145.5 -306h-8q-80 20 -96 62q-133 -57 -293 -58q-279 0 -444.5 167t-165.5 425z" />
<glyph unicode="H" horiz-adv-x="1562" d="M-33 0l29 68l164 57q10 27 66.5 221.5t97.5 364.5l129 518l-170 53l41 66q37 0 112.5 -1t114.5 -1q37 0 108.5 1t106.5 1l-21 -66l-112 -59l-111 -447h676l115 451l-99 63l25 58q31 0 87 -1t85 -1q47 0 141.5 1t139.5 1l-31 -68l-166 -55q-18 -63 -133 -527 q-131 -530 -127 -567l170 -59l-35 -72q-41 0 -130 1t-136 1q-35 0 -104.5 -1t-104.5 -1l29 68l106 59q10 39 144 557q-139 -18 -336 -18h-344q-88 -350 -129 -545l96 -58l-21 -63q-33 0 -99.5 1t-100.5 1q-41 0 -132.5 -1t-140.5 -1z" />
<glyph unicode="I" horiz-adv-x="706" d="M-33 0l29 66l162 53q25 51 166 583l137 527l-156 53l27 66q37 0 112.5 -1t114.5 -1q41 0 126 1t128 1l-25 -66l-147 -55l-135 -525q-127 -489 -139 -581l176 -55l-35 -66q-43 0 -133 1t-135 1t-135.5 -1t-137.5 -1z" />
<glyph unicode="J" horiz-adv-x="671" d="M-131 -250l6 27q109 53 176 125q90 98 152 323q14 53 135 555q96 401 104 449l-170 55l35 64q41 0 122 -1t122 -1q43 0 131 1t133 1l-31 -68l-151 -57q-150 -618 -238 -951q-39 -162 -106 -268q-70 -115 -175.5 -190.5t-191.5 -108.5z" />
<glyph unicode="K" horiz-adv-x="1380" d="M-29 0l29 66l162 53q31 63 162 583l133 527l-152 53l27 66h231h252l-24 -64l-148 -55l-135 -527q-135 -522 -139 -581l174 -55l-33 -66q-43 0 -131 1t-131 1q-47 0 -139.5 -1t-137.5 -1zM561 672l2 16q461 436 578 561q0 2 -17 105q78 4 157 4t127 -2t101.5 -5t63.5 -3 l-35 -64q-84 -27 -231 -57q-31 -8 -78 -49q-143 -117 -477 -443v-4q104 -176 319 -491q57 -82 115.5 -161t64.5 -89l-22 -21q-115 6 -186.5 49t-137.5 134q-178 235 -344 520z" />
<glyph unicode="L" horiz-adv-x="1161" d="M-23 0l23 59l166 58q4 10 22.5 80.5t58.5 226.5t72 278l138 525l-160 57l27 64q39 0 115.5 -1t113.5 -1q45 0 137 1t139 1l-34 -70l-154 -51l-133 -520q-133 -522 -143 -598l403 -17q238 238 276 270l46 -16q-66 -162 -156 -354q-16 0 -87 2t-227.5 4t-377.5 2h-265z" />
<glyph unicode="M" horiz-adv-x="1916" d="M-53 0l20 63l148 66q236 532 444 1071q-4 29 -41 44.5t-158 37.5l31 64q117 2 359 2q-11 -49 -12 -87q0 -11 1 -20q0 -6 181 -909h6q63 106 608 938q20 33 25 78h389l-25 -70l-182 -53q-43 -211 -152 -1102l185 -57l-29 -66q-43 0 -129 1t-127 1q-47 0 -140.5 -1 t-140.5 -1l27 66l156 55q8 51 180 1042h-4q-23 -37 -270.5 -428t-454.5 -729l-58 -16q-55 367 -176 1091h-4q-25 -68 -102.5 -270.5t-141 -375.5t-110.5 -310l194 -62l-26 -63q-45 0 -139.5 1t-141.5 1q-31 0 -94 -1t-96 -1z" />
<glyph unicode="N" horiz-adv-x="1527" d="M-49 0l20 63l172 66q57 141 301 1030q-35 72 -68.5 88.5t-154.5 36.5l35 66q125 2 313 10q4 -49 47 -129q94 -186 269.5 -526t240.5 -467h4q125 483 238 985l-170 61l31 64q43 0 124 -1t115 -1q41 0 119 1t111 1l-37 -70l-164 -59q-78 -209 -297 -1098l125 -88l-10 -33 l-258 -23q-98 180 -545 1070h-4q-199 -758 -225 -920l178 -64l-29 -63q-39 0 -125 1t-127 1q-37 0 -113.5 -1t-115.5 -1z" />
<glyph unicode="O" horiz-adv-x="1546" d="M150 561q0 205 96 391.5t283.5 308t420.5 121.5h2q92 0 183.5 -31.5t176.5 -98t138 -189.5t53 -285q0 -115 -31.5 -229.5t-97 -220t-157 -186.5t-221.5 -129t-281 -48q-236 0 -400.5 150.5t-164.5 445.5zM356 541q0 -244 101.5 -365t267.5 -121q129 0 239.5 69 t181.5 179.5t110.5 241.5t39.5 262q0 246 -103 364.5t-253 118.5h-4q-176 0 -312.5 -117.5t-202 -285.5t-65.5 -346z" />
<glyph unicode="P" horiz-adv-x="1193" d="M-23 0l19 63l168 64q18 45 162 594l135 518l-182 29l30 61q219 31 404 31q106 0 193 -18.5t162 -61.5t117 -122t42 -187q0 -205 -159 -327t-384 -122q-59 0 -104 13l-13 69q203 6 332 98.5t129 278.5q0 84 -33.5 144.5t-92 89t-122.5 39.5q-54 10 -113 10h-22l-131 -537 q-137 -567 -141 -598l221 -63l-31 -66q-49 0 -152.5 1t-156.5 1q-45 0 -137.5 -1t-139.5 -1z" />
<glyph unicode="Q" horiz-adv-x="1544" d="M145 539q0 154 58.5 304t161 271t257 194.5t332.5 73.5q94 0 185.5 -31.5t174.5 -96t134 -181.5t51 -268q0 -313 -180 -533.5t-457 -285.5v-4q102 -63 289.5 -173t267.5 -159l-30 -33q-15 -2 -32 -2q-62 0 -150 25q-112 31 -208 77q-63 31 -378 222q-53 35 -91 47 q-170 59 -277.5 194.5t-107.5 358.5zM352 518q0 -205 92.5 -326.5t257.5 -154.5q145 16 263 97t187 195.5t104.5 239.5t35.5 244q0 248 -99 362.5t-261 114.5h-2q-133 0 -246 -75.5t-183.5 -192.5t-109.5 -250t-39 -254z" />
<glyph unicode="R" horiz-adv-x="1271" d="M-20 0l30 68l156 59q14 41 145 524l160 586l-178 10l33 72q205 41 417 41q238 0 353.5 -86t115.5 -244q0 -160 -112.5 -255t-304.5 -154l-2 -7q70 -145 243 -442q96 -160 111 -182l-25 -21q-166 10 -268 155.5t-279 491.5l13 23q428 111 428 375q0 249 -317 249 q-24 0 -50 -1l-151 -609q-96 -377 -129 -524l196 -61l-28 -68q-45 0 -139.5 1t-143.5 1q-45 0 -136 -1t-138 -1z" />
<glyph unicode="S" horiz-adv-x="1052" d="M29 135q8 33 57 141.5t78 141.5l35 6q10 -47 32 -315q68 -45 205 -46q152 0 235 75t83 179q0 115 -117 207q-37 31 -112.5 92.5t-110.5 90.5q-156 127 -156 288q0 180 125 283.5t299 103.5h2q141 0 221 -73q94 39 144 53l26 -10q-4 -37 -49 -168t-68 -168l-40 -10 q-16 63 -39 213q-51 66 -183 65q-127 0 -196.5 -67.5t-69.5 -167.5q0 -106 90 -187q35 -29 121 -95.5t139 -109.5q164 -129 164 -290q0 -174 -136 -288t-347 -114q-137 0 -250.5 51t-181.5 119z" />
<glyph unicode="T" horiz-adv-x="1335" d="M201 991q70 270 104 377l4 6q68 0 162 -26h827q90 16 191 26l14 -4q-53 -158 -151 -369l-45 -14q-12 102 -25 275l-317 -17l-129 -508q-102 -395 -144 -614l242 -60l-35 -63q-55 0 -168 1t-168 1t-165.5 -1t-164.5 -1l31 63l217 60q25 53 154 557l145 565l-321 17 q-14 -18 -54 -71.5t-80 -104t-73 -87.5z" />
<glyph unicode="U" horiz-adv-x="1552" d="M201 393q47 184 243 832l-165 61l34 62q35 0 109 -1t108.5 -1t100 1t96.5 1l-25 -62l-86 -74q-197 -688 -227 -852q-10 -54 -10 -95q0 -73 32 -107q50 -55 150 -56q270 0 529 267l233 860l-98 57l26 62q31 0 95.5 -1t99.5 -1q41 0 120 1t117 1l-32 -66l-156 -57 q-27 -90 -149.5 -580.5t-124.5 -521.5l184 -37l-29 -66q-352 -49 -377 -55l-12 6l74 258h-4q-287 -264 -574 -264q-139 0 -219 62q-86 68 -86 205q0 71 23 161z" />
<glyph unicode="V" horiz-adv-x="1392" d="M215 1284l23 64q37 0 110.5 -1t110.5 -1t107.5 1t105.5 1l-25 -70l-86 -51q0 -14 139 -981h2q428 672 615 983l-94 53l32 66q29 0 88.5 -1t88.5 -1q33 0 103.5 1t106.5 1l-26 -66q-113 -41 -170 -72q-184 -254 -754 -1144q-55 -68 -110 -105h-29q-16 131 -180 1251 q-52 37 -158 72z" />
<glyph unicode="W" horiz-adv-x="1974" d="M217 1284l27 64q31 0 98.5 -1t100 -1t97 1t95.5 1l-29 -66l-65 -39q2 -18 155 -1001h4q100 150 334 508q-59 348 -88 475q-61 29 -162 57l27 66q29 0 102.5 -1t106.5 -1q23 0 63.5 1t61.5 1l-6 -23l-11 -86q6 -82 52 -332l6 2q170 258 213 332l24 98l7 9q14 0 51 -1 t53 -1q31 0 97.5 1t99.5 1l-27 -66q-125 -39 -195 -72q-84 -104 -307 -426q29 -147 90 -532h4q479 784 598 985l-55 45l29 66q25 0 78 -1t75 -1q31 0 94.5 1t94.5 1l-25 -66q-113 -39 -170 -72q-111 -150 -727 -1132q-35 -53 -102 -117h-21q-6 35 -22.5 129t-41 244.5 t-44.5 271.5h-6q-250 -369 -369 -534q-47 -63 -100 -111h-21q-10 59 -95 589.5t-110 670.5q-59 34 -139 63z" />
<glyph unicode="X" horiz-adv-x="1357" d="M-74 0l27 63l192 68q121 119 500 565q-14 37 -207 529l-196 59l32 64q43 0 127 -1t123 -1q35 0 100.5 1t98.5 1l-25 -68l-67 -47q4 -14 151 -393h4q225 262 322 393l-72 51l29 64q23 0 72 -1t71 -1q45 0 131 1t131 1l-30 -68l-195 -61q-156 -158 -424 -469 q61 -176 238 -625l201 -64l-31 -61q-43 0 -130 1t-132 1q-29 0 -91.5 -1t-93.5 -1l74 115q-33 125 -170 473h-8q-41 -49 -109.5 -131t-126 -153t-141.5 -183l94 -58l-28 -63q-31 0 -95.5 1t-95.5 1q-43 0 -126 -1t-124 -1z" />
<glyph unicode="Y" horiz-adv-x="1218" d="M195 0l28 61l207 60q35 82 135 452q4 19 5 38q0 26 -9 51q-57 178 -203 565q-45 27 -151 59l26 62q29 0 104 -1t112 -1q35 0 103.5 1t100.5 1l-26 -66l-76 -39q10 -39 174 -526h8q287 350 402 518l-82 51l26 62q37 0 89.5 -1t72.5 -1q39 0 114 1t120 1l-33 -66l-158 -51 q-205 -219 -502 -596q-27 -41 -37 -78q-104 -397 -104 -434l227 -60l-30 -63q-55 0 -165 1t-163 1q-51 0 -156.5 -1t-158.5 -1z" />
<glyph unicode="Z" horiz-adv-x="1329" d="M-8 27q72 80 265.5 292.5t452.5 498.5t382 421v4q-59 0 -273.5 6t-318.5 6q-119 -190 -168 -258l-51 -14q47 383 47 385l12 8q162 -29 168 -28h870v-35q-395 -424 -1077 -1204v-9q51 0 343 -4t308 -4q23 23 71 78t105.5 121.5t77.5 89.5l45 -4q-57 -231 -123 -385 q-4 0 -407.5 4t-714.5 4z" />
<glyph unicode="[" horiz-adv-x="673" d="M27 -342l450 1796h369l-25 -76l-233 -47l-389 -1550l219 -47l-31 -76h-360z" />
<glyph unicode="\" horiz-adv-x="954" d="M336 1384h129l301 -1464h-129z" />
<glyph unicode="]" horiz-adv-x="673" d="M-113 -342l31 63l227 50l394 1570l-222 48l27 65h367l-451 -1796h-373z" />
<glyph unicode="^" horiz-adv-x="1099" d="M141 532l355 781l147 2l358 -762l-133 -18l-303 667l-282 -649z" />
<glyph unicode="_" horiz-adv-x="989" d="M-115 -207h989v-98h-989v98z" />
<glyph unicode="`" horiz-adv-x="790" d="M362 1380l7 25q94 51 186 37l98 -404l-73 -30z" />
<glyph unicode="a" horiz-adv-x="1132" d="M43 176q0 133 84 307t254 305q158 121 311 121q72 0 137 -49l17 51l190 23l13 -21l-82 -108q-102 -324 -183 -686l7 -2q123 35 243 188l17 -29q-10 -106 -124 -204.5t-263 -98.5q-37 0 -68 11q12 51 54 201.5t55 193.5h-7q-123 -178 -259 -292t-249 -114 q-74 0 -110.5 54.5t-36.5 148.5zM223 184q0 -80 45 -80h2q63 0 168 90.5t224 266.5q88 133 137 319q-39 33 -97 33q-129 0 -245 -125q-113 -117 -173.5 -257.5t-60.5 -246.5z" />
<glyph unicode="b" horiz-adv-x="1089" d="M76 61q43 162 119.5 455t129 491.5t74.5 290.5l-145 25l25 55q63 23 169.5 43.5t157.5 22.5l6 -4q-8 -35 -37.5 -133.5t-89 -301t-120.5 -419.5h8q127 186 249.5 266t215.5 80q86 0 137 -72t51 -186q0 -279 -209 -490t-459 -211q-84 0 -162.5 29.5t-119.5 58.5zM266 125 q6 -27 35 -45.5t61 -18.5h3q143 0 257.5 107.5t169 245t52.5 258.5q0 139 -86 139q-92 0 -246 -172q-96 -104 -162 -242.5t-84 -271.5z" />
<glyph unicode="c" horiz-adv-x="866" d="M74 291q0 113 51 242t160 231q180 168 385 168q117 0 168 -45q-6 -35 -36 -120t-54 -118l-48 -24q-4 10 -45 219q-6 2 -24 2q-109 0 -215 -121q-158 -176 -158 -418q0 -96 41 -152.5t125 -56.5q92 0 186.5 66.5t155.5 140.5h4l16 -86q-186 -246 -438 -246 q-137 0 -205.5 90.5t-68.5 227.5z" />
<glyph unicode="d" horiz-adv-x="1150" d="M55 209q0 170 95.5 340t243 276.5t290.5 106.5q88 0 164 -58q86 297 117 424l-154 25l31 57q59 25 162.5 44.5t166.5 19.5l5 -2q-285 -948 -361 -1311l4 -2q31 10 61.5 26.5t52 34t44 40t35 37t27 32.5t16.5 20l22 -26q-14 -125 -133 -222.5t-254 -97.5q-39 0 -69 11 q72 264 110 395h-6q-121 -180 -255 -293t-253 -113q-70 0 -116 61.5t-46 174.5zM233 205q0 -49 18.5 -76t47.5 -27q57 0 155.5 81t200.5 233q63 94 95 164.5t71 203.5q-61 47 -127 47h-2q-111 0 -219 -103t-174 -249.5t-66 -273.5z" />
<glyph unicode="e" horiz-adv-x="892" d="M76 287q0 102 42 215.5t113.5 209t179 158t224.5 62.5q104 0 160.5 -57.5t56.5 -149.5q0 -96 -66 -154q-57 -55 -220 -104t-300 -74q-8 -33 -8 -90q0 -88 40 -145.5t130 -57.5q96 0 194.5 68t161.5 147h7l12 -84q-82 -123 -196.5 -190.5t-244.5 -67.5q-121 0 -202.5 73 t-83.5 241zM279 477q330 76 383 156q27 41 26 102q0 53 -25.5 83t-62.5 30h-2q-90 0 -182 -103.5t-137 -267.5z" />
<glyph unicode="f" horiz-adv-x="575" d="M-383 -401l82 127l18 4q63 -90 170 -90q27 0 45.5 7t47 34.5t57.5 98t55 181.5q90 385 182 834l-168 32l46 76h147q68 285 219 422q127 119 277 119q96 0 145 -45q-45 -137 -92 -199l-43 -16q-25 66 -43 164q-8 4 -19 4q-174 0 -276 -453h219l-41 -82l-203 -26 q-92 -428 -139 -627q-53 -217 -112.5 -338t-155.5 -203q-137 -111 -252 -110q-55 0 -101.5 25.5t-64.5 60.5z" />
<glyph unicode="g" horiz-adv-x="899" d="M-109 -217q0 39 33 65q86 70 283 166v2q-62 58 -62 114q0 49 105 138q-127 70 -127 228q0 176 135 311q126 126 301 126q13 0 27 -1q39 -2 106 -17q102 -20 133 -24l164 92l25 -22l-88 -152l-166 -8l-2 -4q43 -70 43 -142q0 -170 -120 -296t-304 -126q-31 0 -66 11 q-25 -33 -22 -54q6 -51 69 -79q150 -68 297 -142q131 -63 127 -157q0 -90 -80.5 -162t-179 -105.5t-178.5 -33.5q-133 0 -230.5 32.5t-141.5 80.5t-62.5 89t-18.5 70zM57 -204q0 -64 91 -125q93 -62 229 -62h6q106 0 175 40t69 95q0 49 -80 94q-178 96 -279 137 q-123 -68 -167 -103.5t-44 -75.5zM283 461q0 -70 29.5 -108t76.5 -38q102 0 178 127t76 258q0 72 -27.5 111t-76.5 39h-2q-100 0 -177 -129t-77 -260z" />
<glyph unicode="h" horiz-adv-x="1130" d="M55 -16q104 393 189 723q131 518 145 591l-153 25l26 55q57 23 169 44.5t163 21.5l4 -4q-6 -27 -36 -132.5t-94.5 -339t-141.5 -524.5h6q231 354 471 455q90 33 149 33q53 0 67 -20q6 -9 6 -28q0 -25 -9 -67q-158 -563 -174 -674l188 31l-35 -84q-174 -49 -360 -129 l-19 16q6 25 52.5 185t102.5 352.5t71 241.5q10 41 -19 41q-84 0 -217 -138.5t-221 -285.5q-90 -152 -166 -373z" />
<glyph unicode="i" horiz-adv-x="622" d="M124 25q-9 22 -9 57q0 47 16 117q47 180 170 571l-137 16l26 58q45 25 153 55.5t165 32.5l2 -6q-143 -475 -248 -840l6 -2q51 10 129 82t129 135l11 -35q-10 -92 -101.5 -192.5t-232.5 -100.5q-57 1 -79 52zM356 1225l2 4q72 96 148 131h14q18 -18 42 -65.5t26 -73.5 l-4 -11q-14 -27 -63.5 -72.5t-74.5 -58.5h-14q-20 16 -44 62.5t-32 83.5z" />
<glyph unicode="j" horiz-adv-x="567" d="M-193 -438q217 143 306 489q61 242 182 731l-154 19l33 59q53 23 160.5 47.5t161.5 26.5l6 -4q-102 -432 -201 -791q-78 -297 -178 -424q-70 -86 -143.5 -138t-116.5 -66zM336 1225l2 4q72 94 147 131h13q18 -16 42.5 -63.5t26.5 -75.5l-4 -9q-14 -31 -64 -75.5 t-75 -55.5h-12q-20 16 -44 61.5t-32 82.5z" />
<glyph unicode="k" horiz-adv-x="985" d="M43 -12q225 764 367 1310l-140 25l23 57q59 23 165.5 43.5t159.5 20.5l5 -4q-113 -369 -400 -1430q-98 -14 -180 -22zM383 504l6 10q213 195 309 291q31 31 41.5 49t32.5 78q10 2 30 2q40 0 120 -8q119 -12 149 -23l-39 -63q-168 -33 -225 -70q-113 -86 -250 -211v-4 q33 -70 169 -307.5t155 -272.5l-23 -20q-98 14 -147 42t-109 120q-55 84 -132 221t-87 166z" />
<glyph unicode="l" horiz-adv-x="612" d="M109 26q-10 24 -11 64q0 48 15 119q31 123 297 1089l-140 25l27 57q57 25 164.5 45.5t161.5 20.5l2 -4q-10 -37 -41 -139.5t-71 -241.5t-87 -309q-172 -631 -180 -664l4 -4q76 18 268 235l19 -22q-14 -109 -112.5 -216.5t-240.5 -107.5q-52 1 -75 53z" />
<glyph unicode="m" horiz-adv-x="1722" d="M78 -16q33 92 119 412.5t94 375.5l-146 12l21 60q61 27 174 57.5t158 30.5l2 -6q-8 -29 -27.5 -95.5t-56.5 -183.5t-64 -205h6q236 367 469 459q80 31 146 31q51 0 62 -30q5 -12 5 -32q0 -29 -10 -73q-23 -92 -100 -342h6q223 348 463 446q76 31 151 31q51 0 63 -26 q4 -9 4 -23q0 -29 -15 -80q-158 -582 -170 -660l188 31l-33 -84q-145 -43 -362 -129l-17 27q4 20 51.5 178t102.5 346t72 244q12 41 -21 41q-78 0 -209 -135.5t-213 -270.5q-98 -162 -180 -391l-170 -16q0 4 38 121.5t69.5 223t68.5 233.5t51 194q8 41 -20 41 q-88 0 -212 -128t-216 -282q-98 -160 -176 -387z" />
<glyph unicode="n" horiz-adv-x="1155" d="M78 -16q33 98 120 418.5t93 369.5l-139 14l16 58q53 25 170 56.5t160 31.5l4 -4q-2 -8 -55.5 -181.5t-92.5 -308.5h6q236 371 471 463q78 31 148 31q55 0 65 -26q3 -9 4 -23q0 -29 -14 -80q-156 -575 -172 -660l191 31l-35 -84q-154 -43 -361 -129l-18 27q6 20 106.5 354 t122.5 414q10 39 -20 39q-80 0 -210 -134.5t-214 -269.5q-109 -172 -182 -391z" />
<glyph unicode="o" horiz-adv-x="1013" d="M84 324q0 236 162 422t387 186h2q137 0 215 -102.5t78 -254.5q0 -227 -161 -414.5t-386 -187.5q-127 0 -212 93.5t-85 257.5zM264 268q0 -211 133 -211q131 0 241 194.5t110 385.5q0 211 -132 211h-2q-94 0 -177 -98.5t-128 -231.5t-45 -250z" />
<glyph unicode="p" horiz-adv-x="1122" d="M-168 -455l27 74l129 51q41 98 137 467q143 530 166 637l-139 12l20 58q37 25 155.5 61.5t170.5 38.5l2 -6l-123 -412h6q150 221 281 313.5t229 92.5q78 0 122 -63.5t44 -174.5q0 -289 -203 -505t-438 -216q-88 0 -158 50q-37 -119 -88 -342l180 -39l-35 -72 q-417 -25 -485 -25zM293 135q18 -31 49 -51.5t57 -20.5h2q129 0 243 102.5t175 247.5q59 140 60 272q0 124 -74 124q-106 0 -258 -199q-178 -213 -254 -475z" />
<glyph unicode="q" horiz-adv-x="1073" d="M53 195q0 174 94.5 347t243 281.5t297.5 108.5q84 0 150 -82l4 2l14 35q98 45 199 45l8 -25l-78 -106q-96 -279 -297 -1129l170 -47l-22 -65q-129 -12 -492 -13l18 62q20 12 73.5 32.5t66.5 26.5q31 86 209 692h-4q-139 -199 -271.5 -293t-230.5 -94q-59 0 -105.5 55.5 t-46.5 166.5zM231 186q0 -43 15.5 -66.5t38.5 -23.5q63 0 155 80t187 207q76 104 103.5 159.5t80.5 221.5q-41 68 -121 67h-2q-117 0 -226.5 -112.5t-170 -261t-60.5 -271.5z" />
<glyph unicode="r" horiz-adv-x="813" d="M82 -16q78 256 135 486t62 300l-152 10l20 64q53 27 145.5 56.5t141.5 31.5l4 -4q0 -8 1 -17q0 -131 -60 -346h8q195 367 395 367q53 0 80 -25q-2 -31 -38 -131t-60 -139l-43 -21q-8 25 -21.5 87.5t-17.5 76.5q-2 2 -14 2q-23 0 -62 -32.5t-104.5 -135t-130.5 -254.5 q-49 -115 -119 -360z" />
<glyph unicode="s" horiz-adv-x="763" d="M-8 84q57 139 117 227l36 11q20 -92 33 -240q43 -20 101 -21q96 0 146 42t50 104q0 43 -28.5 82t-102.5 94q-178 135 -178 266t103.5 207t242.5 76h2q59 0 118.5 -18.5t88.5 -45.5q-10 -43 -42 -115.5t-54 -101.5l-39 -12q-16 74 -29 197q-25 12 -61 12q-78 0 -128.5 -43 t-50.5 -100q0 -49 32 -87t114 -98q102 -78 140 -135t38 -127q0 -119 -98.5 -202t-263.5 -83q-90 0 -177 39t-110 72z" />
<glyph unicode="t" horiz-adv-x="704" d="M121 145q63 270 178 652l-170 24l47 82h152l61 209l178 100l13 -10l-88 -299h272l-51 -82l-250 -24q-127 -436 -189 -701l5 -2q90 14 186 79t176 167l14 -55q-37 -96 -97 -164t-125.5 -96.5t-112 -40t-84.5 -11.5q-123 0 -123 110q0 27 8 62z" />
<glyph unicode="u" horiz-adv-x="1179" d="M129 162q29 111 96.5 336t77.5 264l-158 8l21 64q166 70 342 98l18 -2q-45 -119 -121.5 -371t-101.5 -352q-10 -48 -10 -69q0 -27 29 -27q70 0 190.5 120.5t230.5 300.5q90 145 158 367q88 23 195 33l14 -25l-84 -116q-111 -352 -182 -666h4q129 35 231 194l21 -40 q-14 -111 -120 -208.5t-267 -97.5q-25 0 -66 9q119 389 141 467h-6q-193 -291 -362 -402q-111 -74 -205 -74q-99 0 -99 102q0 37 13 87z" />
<glyph unicode="v" horiz-adv-x="950" d="M82 768l14 63q49 27 159 64t140 37l4 -4q0 -455 17 -731h4q209 215 295 395q52 112 52 247q0 31 -3 62q51 37 133 41l4 -2q33 -61 33 -125q0 -78 -64.5 -189.5t-135 -195.5t-191.5 -216t-160 -179q-43 -47 -109 -62l-10 2q-2 27 -6 126.5t-9 247t-9 235.5q-4 141 -15 178 z" />
<glyph unicode="w" horiz-adv-x="1419" d="M88 776l14 55q47 25 165 63t139 38l4 -6q-2 -111 -6.5 -345.5t-6.5 -361.5h4q168 256 340 524q-4 45 -6 87t-2 47q27 23 81 39t93 18l11 -14q0 -2 -8.5 -48.5t-10.5 -80.5v-47q0 -131 9 -299q11 -198 20 -240h6q172 199 248 370q59 141 59 278q0 24 -2 48q66 41 131 41 l4 -2q10 -14 21 -53q9 -32 8 -64v-12q0 -51 -32 -124t-67.5 -134t-106.5 -153.5t-106.5 -137.5t-112.5 -134t-83 -97q-47 -41 -100 -60l-11 4q-8 61 -36 617l-7 -2q-272 -420 -376 -559q-18 -18 -51 -37t-54 -23l-8 4q-2 20 -2 247t-4 353q-2 147 -8 177z" />
<glyph unicode="x" horiz-adv-x="1021" d="M-39 242l39 49q63 -92 133 -162q33 12 132.5 126t172.5 218q-72 262 -100 301q-29 -12 -86 -60t-113 -118l-30 55q41 96 141 187.5t184 93.5q14 -8 28.5 -30.5t29 -60.5t24.5 -70t24.5 -82t22.5 -73h6q63 86 148 185q96 115 164 141h22q37 -25 60.5 -102.5t25.5 -157.5 l-51 -47q-55 123 -88 149q-37 -14 -122 -107t-134 -165q10 -35 48 -160t50 -172q8 -27 19 -26q20 0 89.5 57t121.5 131l18 -70q-45 -129 -151.5 -214t-208.5 -85q-8 31 -42 157t-69 241h-4q-164 -227 -223 -295q-94 -113 -136 -123h-30q-31 31 -66 113t-49 176z" />
<glyph unicode="y" horiz-adv-x="952" d="M-86 -299l12 25q55 -2 201 -45q18 4 75.5 53t104.5 112q47 68 67.5 133.5t20.5 176.5q-4 375 -78 561q-25 61 -43 61q-16 0 -56 -59.5t-75 -145.5l-63 58q55 168 128 235.5t132 69.5q102 -8 154 -217q44 -180 43 -482v-77h6q78 127 154.5 323.5t78.5 290.5l-67 92l14 27 q82 43 188 43q14 0 23 -6q7 -5 6 -14q0 -48 -20.5 -121.5t-41 -126t-63.5 -156.5q-139 -344 -385 -664q-84 -111 -173 -192.5t-140 -113t-70 -31.5q-14 0 -36.5 16t-52.5 62t-44 112z" />
<glyph unicode="z" horiz-adv-x="894" d="M25 76q12 29 43.5 62.5t60.5 51.5q123 123 304 317.5t226 250.5l-2 4q-53 -8 -114 -9q-45 0 -94 5q-31 2 -64 4t-41 2q-33 -14 -103.5 -88t-105.5 -117l-39 57q33 66 112 181.5t105 138.5q37 -16 142.5 -35.5t226.5 -19.5q100 0 182 77l39 -59q-25 -63 -631 -704v-5 q63 -6 162 -38q27 -8 75 -23.5t73 -22.5q82 37 227 189l33 -68q-156 -254 -260 -286q-20 0 -46 8t-81.5 29.5t-79.5 31.5q-8 4 -135 51q-29 10 -52 10q-32 0 -55 -18q-35 -20 -72 -86h-20q-28 20 -28 56q1 24 12 53z" />
<glyph unicode="{" horiz-adv-x="673" d="M125 555l27 33l229 135q0 266 35 422q27 115 149.5 209t247.5 127l21 -78q-125 -53 -180.5 -114.5t-82.5 -172.5q-61 -270 -71 -422l-232 -127v-4l166 -121q-111 -326 -137 -440q-25 -104 2 -172t115 -127l-41 -68q-115 37 -189.5 139.5t-40.5 241.5q33 139 164 402z" />
<glyph unicode="|" horiz-adv-x="626" d="M221 -496v1977h148v-1977h-148z" />
<glyph unicode="}" horiz-adv-x="673" d="M-117 -289q119 55 179.5 127t91.5 189q53 203 69 426l232 118v4l-168 121q86 209 133 408q27 106 1 179t-114 128l43 70q109 -43 184.5 -147.5t45.5 -223.5q-31 -133 -162 -391l180 -137l-20 -37l-230 -127q-10 -305 -45 -445q-35 -129 -150.5 -214t-242.5 -121z" />
<glyph unicode="~" horiz-adv-x="1134" d="M92 391q53 131 135 199.5t174 68.5q47 0 99.5 -19t74.5 -34l91 -57q127 -80 196 -80q104 0 197 188l84 -45q-59 -141 -132 -204.5t-171 -63.5q-90 0 -248 102q-8 6 -42 27t-46 27l-37 18q-25 12 -43 16.5t-39 4.5q-102 0 -209 -197z" />
<glyph unicode="&#xa1;" horiz-adv-x="493" d="M-115 -420q254 711 308 856l83 27q-113 -639 -122 -717l12 -111q-27 -23 -102.5 -47t-161.5 -28zM199 780v13q14 29 68.5 77t82.5 58h15q25 -18 53 -64.5t41 -87.5l-2 -6q-78 -104 -162 -135h-14q-20 16 -49 66t-33 79z" />
<glyph unicode="&#xa2;" d="M164 518q0 227 170 393t391 193l45 168l80 10l-45 -172q84 -2 141.5 -21.5t77.5 -44.5q-6 -31 -42 -108.5t-52 -97.5l-33 -13q-29 88 -43 193q-35 10 -72 10l-194 -709q172 12 344 185l22 -78q-158 -193 -397 -223l-45 -164l-84 -16l49 174q-158 6 -235.5 96t-77.5 225z M352 532q0 -190 158 -213l190 697l-2 4q-150 -35 -248 -177.5t-98 -310.5z" />
<glyph unicode="&#xa3;" d="M-27 0l7 33l81 78q39 10 74 41q119 143 172 473l-196 22l49 78h164l14 74q61 332 254 461q113 80 250 79q135 0 207 -75q-29 -84 -101 -207l-53 -15q-12 45 -35 207q-12 6 -39 6q-98 0 -173 -86t-109 -270q-18 -113 -27 -174h389l-39 -80l-366 -20q-35 -182 -89.5 -284.5 t-173.5 -201.5v-4q209 -6 547 10q53 47 156 181l57 -39q-47 -145 -135 -297q-6 0 -174 5t-289 5h-422z" />
<glyph unicode="&#xa4;" d="M88 299l143 111q-74 109 -53 254q8 70 45 142.5t86 117.5l-108 108l106 101l92 -134q127 82 263 82q127 0 210 -86l136 135l75 -90l-145 -118q57 -104 35 -240q-23 -170 -133 -276l104 -103l-106 -100l-88 131q-100 -70 -236 -70q-143 0 -223 76l-133 -135zM319 664 q-18 -131 44.5 -215t171.5 -84q119 0 200.5 90t98.5 227q14 125 -39.5 212t-165.5 87h-2q-119 0 -204.5 -91t-103.5 -226z" />
<glyph unicode="&#xa5;" d="M111 389l43 84h268l39 154h-289l43 84h248q-70 291 -125 497l-117 39l27 66q33 0 98.5 -1t93.5 -1q39 0 117 1t115 1l-27 -66l-127 -39l94 -452h4q184 256 318 450l-143 43l32 64q33 0 99.5 -1t97.5 -1q33 0 94.5 1t95.5 1l-26 -64l-125 -51q-106 -121 -381 -487h278 l-41 -84h-280l-41 -154h303l-43 -84h-279q-61 -258 -63 -278l178 -48l-26 -63q-43 0 -130.5 1t-130.5 1q-45 0 -138 -1t-140 -1l27 63l161 48q23 43 88 278h-290z" />
<glyph unicode="&#xa6;" horiz-adv-x="626" d="M221 -373v752h148v-752h-148zM221 614v750h148v-750h-148z" />
<glyph unicode="&#xa7;" horiz-adv-x="989" d="M12 -143q4 29 45 98.5t68 95.5l37 6q2 -16 6 -78.5t8 -109.5q43 -20 103 -19q78 2 136 47.5t58 110.5q0 90 -72 211q-82 143 -131 234q-92 166 -92 303v2q0 158 104.5 284.5t278.5 206.5q86 47 170 47q76 0 117 -28q31 18 127 47l22 -8q-10 -41 -49 -133.5t-74 -139.5 l-36 -10q-10 35 -25 166q-31 27 -98 27q-61 0 -106.5 -38t-45.5 -89q-2 -33 23 -97q39 -84 174 -303q104 -186 104 -321q0 -287 -332 -502q-141 -98 -270 -98q-168 0 -250 88zM303 827q0 -104 70 -241q20 -37 74.5 -135.5t87.5 -159.5q74 -141 69 -219q0 -25 -8 -62h8 q127 127 127 273q0 109 -61 221q-41 74 -81 144.5t-62.5 111.5t-43.5 86q-39 86 -39 176q0 45 17 84h-6q-152 -121 -152 -277v-2z" />
<glyph unicode="&#xa8;" horiz-adv-x="790" d="M301 1212l2 5q70 92 143 118h11q16 -14 42.5 -57t32.5 -68l-2 -12q-14 -27 -61 -70t-72 -53h-12q-66 61 -84 137zM702 1212l5 5q68 92 141 118h10q18 -14 44 -56t32 -69l-4 -12q-14 -27 -59.5 -70t-69.5 -53h-15q-61 57 -84 137z" />
<glyph unicode="&#xa9;" horiz-adv-x="1495" d="M145 655q0 283 187.5 476.5t462.5 193.5h2q270 0 457.5 -193.5t187.5 -476.5q0 -279 -187.5 -470t-459.5 -191q-276 0 -463 190t-187 471zM258 657q0 -242 153.5 -404.5t385.5 -162.5q229 0 380.5 163t151.5 404q0 244 -151.5 408t-380.5 164h-2q-229 0 -383 -164 t-154 -408zM457 655q0 92 39 164t99 109t122.5 55t122.5 18h2q76 0 125 -24q20 6 57 16.5t43 12.5l18 -9q0 -29 -14 -114.5t-22 -94.5l-31 -18q-29 39 -68 135q-33 20 -90 21q-96 0 -170 -72t-74 -184q0 -115 75 -192t194 -77q18 0 45 9q121 111 131 116l31 -24 q-2 -25 -30 -84.5t-40 -71.5q-72 -29 -178 -29q-164 0 -275.5 91t-111.5 247z" />
<glyph unicode="&#xaa;" horiz-adv-x="733" d="M121 719q0 80 51 175t150 165q98 68 184 67q39 0 66.5 -17t33.5 -36l17 47l125 19l12 -6l-47 -68q-35 -111 -95 -365q61 16 152 97l6 -17q0 -61 -72.5 -122.5t-181.5 -61.5q-20 0 -39 8q53 199 58 209h-9q-164 -217 -311 -217q-49 0 -74.5 33t-25.5 90zM252 731 q0 -43 33 -43h2q31 0 87 44t124 130q55 74 86 148q-14 51 -76 51q-59 0 -113 -53q-66 -63 -104.5 -140.5t-38.5 -136.5z" />
<glyph unicode="&#xab;" horiz-adv-x="1142" d="M127 461q78 51 211 165.5t248 239.5l47 -47q-72 -113 -293 -364q133 -260 164 -359l-64 -45q-68 123 -160 239t-153 171zM559 461q86 57 219 172t236 233l49 -47q-76 -125 -281 -364q16 -41 51 -116t61 -134.5t40 -108.5l-62 -45q-68 125 -161 241t-152 169z" />
<glyph unicode="&#xac;" horiz-adv-x="1331" d="M162 575l37 123h915v-585l-139 -33v495h-813z" />
<glyph unicode="&#xad;" horiz-adv-x="745" d="M68 383l73 164l111 -6l428 26v-12l-92 -111z" />
<glyph unicode="&#xae;" horiz-adv-x="661" d="M209 1069q0 115 79 194.5t191 79.5h2q113 0 192 -76.5t79 -191.5q0 -117 -79 -194.5t-196 -77.5q-115 0 -191.5 76.5t-76.5 189.5zM281 1075q0 -92 57 -154.5t141 -62.5q88 0 144.5 62.5t56.5 156.5q0 88 -58.5 149.5t-142.5 61.5h-2q-82 0 -139 -61.5t-57 -151.5z M358 958l4 23l31 12v170l-35 4l7 27q45 10 110 10q106 -2 107 -63q0 -41 -50 -62q10 -29 50 -80q20 -29 32 -45l-8 -2q-53 0 -86 29q-20 25 -57 96q29 10 41 20.5t12 31t-18.5 33t-44.5 9.5v-178l36 -12l-6 -23h-125z" />
<glyph unicode="&#xaf;" horiz-adv-x="790" d="M356 1130l52 125h466l-49 -125h-469z" />
<glyph unicode="&#xb0;" horiz-adv-x="608" d="M266 1057q-2 109 74 188.5t186 79.5h2q82 0 137.5 -54t55.5 -145q0 -117 -76 -190.5t-186 -73.5q-82 0 -137.5 55.5t-55.5 139.5zM367 1067q0 -57 29.5 -90t76.5 -33q72 0 112 53.5t40 118.5q0 127 -113 127h-2q-61 0 -102 -54t-41 -122z" />
<glyph unicode="&#xb1;" horiz-adv-x="1325" d="M150 0l26 123h973l-27 -123h-972zM150 670l26 123h404v378l139 25v-403h428l-27 -123h-401v-412l-139 -27v439h-430z" />
<glyph unicode="&#xb2;" horiz-adv-x="696" d="M164 868l6 25l66 70q23 10 53 32q205 150 272 222q90 98 90 182q0 57 -29.5 88t-80.5 31q-43 0 -80 -19q-2 -8 -14.5 -47t-24.5 -69.5t-23 -43.5l-41 -18q-23 47 -36 164q121 111 272 110q94 0 154.5 -53t60.5 -147q0 -78 -53.5 -139.5t-157.5 -133.5q-123 -82 -233 -151 q25 0 138 4t130 4q12 10 49 49t61 62l52 -25q-57 -127 -105 -203q-12 0 -118.5 3t-178.5 3h-229z" />
<glyph unicode="&#xb3;" horiz-adv-x="696" d="M190 924q10 27 42 81t44 70l29 10q20 -66 33 -151q33 -14 76 -14q82 0 141 46t59 126q0 104 -112 116q-74 -12 -105 -16l-12 12q2 18 21.5 49t33.5 41q12 0 39 -4t37 -4q131 39 131 133q0 51 -30.5 78t-79.5 27q-39 0 -72 -15q-29 -88 -55 -133l-31 -12q-16 31 -39 145 q127 86 248 86q98 0 150.5 -46t52.5 -113q-2 -121 -193 -176l-2 -5q178 -33 178 -172q0 -104 -105.5 -167.5t-244.5 -63.5q-146 0 -234 72z" />
<glyph unicode="&#xb4;" horiz-adv-x="790" d="M446 1061l242 342q41 4 98.5 -7.5t92.5 -31.5v-27l-377 -327z" />
<glyph unicode="&#xb5;" horiz-adv-x="1153" d="M18 -147q41 178 103 387q37 135 101.5 356t84.5 293q94 29 180 43l9 -8q-154 -449 -226 -729q-16 -86 47 -86q70 0 179.5 117.5t222.5 301.5q80 135 153 383l197 21l2 -8l-74 -119q-109 -362 -174 -676l4 -2q29 10 57.5 27.5t48 34t41 39t32 35.5t24.5 33.5t17 22.5 l20 -26q-10 -102 -114.5 -211t-258.5 -109q-25 0 -65 9q16 61 133 452h-8q-307 -461 -469 -461q-43 0 -72 27h-4q-90 -250 -103 -489l-18 -7q-138 58 -70 349z" />
<glyph unicode="&#xb6;" horiz-adv-x="1048" d="M8 -334l23 29q70 -53 178 -53q238 0 358 430l25 80q-57 -20 -90 -21q-131 0 -247 112.5t-118 303.5q-2 238 177.5 400.5t473.5 162.5q23 0 43 -4l54 221l190 25l6 -4l-135 -248l-268 -1047q-45 -172 -104.5 -287.5t-125 -170t-123 -75t-122.5 -20.5q-94 0 -133 51 q-48 62 -62 115z" />
<glyph unicode="&#xb7;" horiz-adv-x="436" d="M113 508l2 6q74 98 161 137h15q20 -16 49 -66t35 -81l-2 -12q-14 -29 -68.5 -77t-83.5 -61h-12q-61 52 -96 154z" />
<glyph unicode="&#xb8;" horiz-adv-x="790" d="M53 -416q57 16 111.5 50t54.5 77q0 55 -106 94l-2 7l161 188h105l-103 -121q98 -55 99 -137q0 -68 -56.5 -121t-120 -75.5t-122.5 -30.5z" />
<glyph unicode="&#xb9;" horiz-adv-x="696" d="M242 866l22 54l144 36q45 129 153 490l-174 -10l31 57q4 2 293 102h18q-131 -516 -164 -639l162 -36l-29 -54q-49 0 -123.5 1t-107.5 1q-37 0 -111.5 -1t-113.5 -1z" />
<glyph unicode="&#xba;" horiz-adv-x="651" d="M143 801q2 129 102.5 233.5t239.5 104.5h2q98 0 151.5 -53.5t53.5 -147.5q0 -135 -98 -238.5t-252 -103.5q-90 0 -144.5 57.5t-54.5 147.5zM281 766q0 -53 21.5 -80t49.5 -27q88 0 145.5 104.5t57.5 207.5q0 45 -17.5 75.5t-54.5 30.5h-2q-80 0 -140 -105.5t-60 -205.5z " />
<glyph unicode="&#xbb;" horiz-adv-x="1142" d="M88 98q76 125 281 365q-14 33 -52 113.5t-62 138t-40 106.5l61 45q68 -125 161 -240.5t155 -168.5q-80 -53 -213 -169t-244 -237zM516 98q117 180 283 365q-104 207 -154 358l66 45q66 -123 158 -238.5t153 -170.5q-74 -47 -206 -163t-251 -243z" />
<glyph unicode="&#xbc;" horiz-adv-x="1589" d="M160 610l22 54l144 36q45 129 153 490l-174 -10l31 57q4 2 293 102h18q-131 -516 -164 -639l162 -36l-29 -54q-49 0 -123.5 1t-107.5 1q-37 0 -111.5 -1t-113.5 -1zM217 -16q879 1028 1159 1376l62 -64q-1081 -1280 -1162 -1380zM782 219q68 88 233 260t199 195 q16 10 76 20.5t94 12.5l-118 -459l61 -2q33 29 80 57h27q-4 -25 -26 -91.5t-32 -82.5l-26 -4q-6 6 -16.5 26.5t-14.5 26.5h-68l-28 -110l114 -41l-24 -50q-31 0 -90.5 1.5t-87.5 1.5q-33 0 -103.5 -1.5t-105.5 -1.5l20 50l131 41l35 108l-317 -2zM913 256l220 -6l112 362h-8 q-123 -123 -324 -356z" />
<glyph unicode="&#xbd;" horiz-adv-x="1589" d="M156 610l22 54l144 36q45 129 153 490l-174 -10l31 57q4 2 293 102h18q-131 -516 -164 -639l162 -36l-29 -54q-49 0 -123.5 1t-107.5 1q-37 0 -111.5 -1t-113.5 -1zM190 -16q879 1028 1160 1376l61 -64q-1081 -1280 -1161 -1380zM809 -20l6 24l66 70q23 10 53 32 q205 150 272 222q90 98 90 182q0 57 -29.5 88t-80.5 31q-43 0 -80 -19q-2 -8 -14.5 -47t-24.5 -69.5t-23 -42.5l-40 -19q-23 47 -37 164q121 111 272 111q94 0 154.5 -53.5t60.5 -147.5q0 -78 -53 -139.5t-158 -133.5q-123 -82 -233 -151q25 0 138.5 4t129.5 4q12 10 49 49 t62 62l51 -25q-57 -127 -105 -203q-12 0 -118.5 3.5t-178.5 3.5h-229z" />
<glyph unicode="&#xbe;" horiz-adv-x="1589" d="M156 668q10 27 41.5 81t44.5 70l28 10q20 -66 33 -151q33 -14 76 -14q82 0 141.5 46t59.5 126q0 104 -113 116q-74 -12 -105 -16l-12 12q2 18 21.5 49t34.5 41q12 0 38.5 -4t36.5 -4q131 39 131 133q0 51 -30.5 78t-79.5 27q-39 0 -72 -15q-29 -88 -55 -133l-31 -12 q-16 31 -39 145q127 86 248 86q98 0 150.5 -46t52.5 -113q-2 -121 -193 -176l-2 -5q178 -33 178 -172q0 -104 -105.5 -167.5t-244.5 -63.5q-145 0 -233 72zM236 -16q879 1028 1159 1376l61 -64q-1081 -1280 -1161 -1380zM815 219q68 88 232.5 260t199.5 195q16 10 75.5 20.5 t94.5 12.5l-119 -459l62 -2q33 29 80 57h26q-4 -25 -25.5 -91.5t-31.5 -82.5l-27 -4q-6 6 -16 26.5t-14 26.5h-68l-29 -110l115 -41l-24 -50q-31 0 -90.5 1.5t-88.5 1.5q-33 0 -103.5 -1.5t-105.5 -1.5l21 50l131 41l35 108l-318 -2zM946 256l219 -6l113 362h-8 q-123 -123 -324 -356z" />
<glyph unicode="&#xbf;" horiz-adv-x="843" d="M-49 -176q0 88 57.5 153.5t161.5 133.5q88 57 130 85.5t86 71.5t50 74q10 45 -12 107l61 30q33 -18 67 -85.5t23 -135.5q-49 -102 -249 -233q-119 -78 -163 -122t-44 -105.5t49 -103.5t125 -42q45 0 100 20q74 176 88 201l43 18q33 -76 58 -213q-70 -47 -167.5 -82.5 t-172.5 -35.5q-119 0 -205 70.5t-86 193.5zM401 780l2 13q14 29 67.5 74.5t82.5 60.5h12q25 -18 54.5 -64.5t42.5 -87.5l-3 -6q-78 -104 -161 -135h-13q-20 14 -49 65t-35 80z" />
<glyph unicode="&#xc0;" horiz-adv-x="1409" d="M-98 0l22 66l148 61q25 31 77 108.5t134 201.5t154.5 234.5t181 277.5t169.5 261q20 31 19 56l-2 24l170 99l12 -11q-16 -45 -10 -145q8 -117 135 -1024q14 -72 43 -92.5t135 -44.5l-24 -72q-35 0 -110 1t-114 1q-37 0 -111.5 -1t-113.5 -1l14 57l99 54 q-4 43 -18.5 163.5t-22.5 192.5q-244 -12 -461 -8q-178 -279 -207 -332l166 -61l-22 -66q-39 0 -123 1t-125 1q-35 0 -106.5 -1t-108.5 -1zM496 575q43 0 205.5 -5t179.5 -5q-14 121 -36 311.5t-24 208.5h-8q-157 -256 -317 -510zM598 1622v31q63 92 129 110l338 -223 l-39 -70z" />
<glyph unicode="&#xc1;" horiz-adv-x="1409" d="M-98 0l22 66l148 61q25 31 77 108.5t134 201.5t154.5 234.5t181 277.5t169.5 261q20 31 19 56l-2 24l170 99l12 -11q-16 -45 -10 -145q8 -117 135 -1024q14 -72 43 -92.5t135 -44.5l-24 -72q-35 0 -110 1t-114 1q-37 0 -111.5 -1t-113.5 -1l14 57l99 54 q-4 43 -18.5 163.5t-22.5 192.5q-244 -12 -461 -8q-178 -279 -207 -332l166 -61l-22 -66q-39 0 -123 1t-125 1q-35 0 -106.5 -1t-108.5 -1zM496 575q43 0 205.5 -5t179.5 -5q-14 121 -36 311.5t-24 208.5h-8q-157 -256 -317 -510zM799 1511l340 222q35 -4 80 -38t63 -69 l-6 -31l-436 -155z" />
<glyph unicode="&#xc2;" horiz-adv-x="1409" d="M-98 0l22 66l148 61q25 31 77 108.5t134 201.5t154.5 234.5t181 277.5t169.5 261q20 31 19 56l-2 24l170 99l12 -11q-16 -45 -10 -145q8 -117 135 -1024q14 -72 43 -92.5t135 -44.5l-24 -72q-35 0 -110 1t-114 1q-37 0 -111.5 -1t-113.5 -1l14 57l99 54 q-4 43 -18.5 163.5t-22.5 192.5q-244 -12 -461 -8q-178 -279 -207 -332l166 -61l-22 -66q-39 0 -123 1t-125 1q-35 0 -106.5 -1t-108.5 -1zM496 575q43 0 205.5 -5t179.5 -5q-14 121 -36 311.5t-24 208.5h-8q-157 -256 -317 -510zM610 1509q268 184 328 226h86l227 -228 l-55 -67q-78 45 -238 139q-250 -115 -305 -139z" />
<glyph unicode="&#xc3;" horiz-adv-x="1409" d="M-98 0l22 66l148 61q25 31 77 108.5t134 201.5t154.5 234.5t181 277.5t169.5 261q20 31 19 56l-2 24l170 99l12 -11q-16 -45 -10 -145q8 -117 135 -1024q14 -72 43 -92.5t135 -44.5l-24 -72q-35 0 -110 1t-114 1q-37 0 -111.5 -1t-113.5 -1l14 57l99 54 q-4 43 -18.5 163.5t-22.5 192.5q-244 -12 -461 -8q-178 -279 -207 -332l166 -61l-22 -66q-39 0 -123 1t-125 1q-35 0 -106.5 -1t-108.5 -1zM496 575q43 0 205.5 -5t179.5 -5q-14 121 -36 311.5t-24 208.5h-8q-157 -256 -317 -510zM600 1513q129 172 242 173q33 0 125 -50 q86 -45 118 -45q51 0 154 99l53 -60q-121 -172 -237 -172q-33 0 -131 49q-82 45 -117 45q-57 0 -156 -98z" />
<glyph unicode="&#xc4;" horiz-adv-x="1409" d="M-98 0l22 66l148 61q25 31 77 108.5t134 201.5t154.5 234.5t181 277.5t169.5 261q20 31 19 56l-2 24l170 99l12 -11q-16 -45 -10 -145q8 -117 135 -1024q14 -72 43 -92.5t135 -44.5l-24 -72q-35 0 -110 1t-114 1q-37 0 -111.5 -1t-113.5 -1l14 57l99 54 q-4 43 -18.5 163.5t-22.5 192.5q-244 -12 -461 -8q-178 -279 -207 -332l166 -61l-22 -66q-39 0 -123 1t-125 1q-35 0 -106.5 -1t-108.5 -1zM496 575q43 0 205.5 -5t179.5 -5q-14 121 -36 311.5t-24 208.5h-8q-157 -256 -317 -510zM618 1595l3 7q68 88 147 124h12 q18 -18 45 -62t33 -71l-4 -12q-12 -27 -60.5 -71t-74.5 -54h-14q-62 57 -87 139zM1042 1595v7q66 86 150 124h12q18 -18 44 -62t32 -71l-2 -12q-12 -27 -61.5 -71t-75.5 -54h-13q-61 57 -86 139z" />
<glyph unicode="&#xc5;" horiz-adv-x="1409" d="M-98 0l22 66l148 61q25 31 77 108.5t134 201.5t154.5 234.5t181 277.5t169.5 261q20 31 19 56l-2 24l170 99l12 -11q-16 -45 -10 -145q8 -117 135 -1024q14 -72 43 -92.5t135 -44.5l-24 -72q-35 0 -110 1t-114 1q-37 0 -111.5 -1t-113.5 -1l14 57l99 54 q-4 43 -18.5 163.5t-22.5 192.5q-244 -12 -461 -8q-178 -279 -207 -332l166 -61l-22 -66q-39 0 -123 1t-125 1q-35 0 -106.5 -1t-108.5 -1zM496 575q43 0 205.5 -5t179.5 -5q-14 121 -36 311.5t-24 208.5h-8q-157 -256 -317 -510zM772 1626q16 86 84 136t143 50h2 q78 0 127.5 -51t32.5 -139q-16 -84 -82.5 -133t-144.5 -49q-80 0 -129 50t-33 136zM870.5 1626q-10.5 -53 11 -79.5t64.5 -26.5h2q39 0 70 26.5t41 79.5t-11.5 80t-64.5 27q-39 0 -70.5 -27t-42 -80z" />
<glyph unicode="&#xc6;" horiz-adv-x="1945" d="M-109 0l25 68l160 53q473 596 868 1114l-252 43l37 70h326h745q92 20 174 20l8 -10q-61 -229 -96 -314l-39 -14q-10 31 -20 67t-21.5 83t-19.5 75l-440 -14l-113 -534q383 0 545 22l16 -27q-14 -20 -77.5 -68t-74.5 -48q-4 0 -100 4t-200.5 8t-135.5 2q-8 -47 -45 -226 t-51 -261l465 -17q178 170 258 242l39 -16q-78 -231 -137 -326q-199 6 -437 6h-315q-45 0 -139 -1t-139 -1l22 68l182 53q23 59 117 479h-438q-18 -25 -69.5 -92.5t-121 -161.5t-159.5 -223l172 -55l-29 -68q-41 0 -120 1t-118 1q-41 0 -126 -1t-126 -1zM664 707h389 l129 542h-113q-184 -237 -405 -542z" />
<glyph unicode="&#xc7;" horiz-adv-x="1394" d="M156 565q0 342 250.5 579.5t613.5 237.5q178 0 272 -67q41 18 166 41l19 -19q-18 -61 -71.5 -183t-74.5 -153l-47 -12q-20 145 -24 236q-74 55 -228 55q-287 0 -477 -205t-190 -508q0 -221 122.5 -357t343.5 -136q57 0 138 14q20 18 73.5 65.5t82 73t72.5 61.5t81 60 l35 -65q-98 -162 -189 -250q-152 -53 -301 -66l-75 -86q98 -57 98 -139q0 -68 -57.5 -121t-121 -76.5t-122.5 -31.5l-23 71q59 16 112.5 50t53.5 77q0 55 -106 94l-2 7l135 153l-2 2q-254 16 -405.5 176t-151.5 422z" />
<glyph unicode="&#xc8;" horiz-adv-x="1200" d="M-39 0l25 66l182 55q18 41 160 584l135 530l-180 51l28 62h236h514q102 20 172 20l8 -10q-68 -254 -94 -316l-43 -16q-12 39 -30.5 118t-29.5 113l-399 -16l-121 -487q313 0 527 22l8 -28q-16 -18 -75.5 -67.5t-68.5 -49.5q-6 0 -195.5 10t-223.5 10 q-12 -53 -62.5 -251.5t-68.5 -286.5l475 -21q35 35 118.5 122t126.5 128l39 -25q-14 -49 -59 -159.5t-76 -161.5q-199 6 -436 6h-317q-47 0 -137.5 -1t-137.5 -1zM545 1591v31q63 92 129 111l338 -224l-39 -69z" />
<glyph unicode="&#xc9;" horiz-adv-x="1200" d="M-39 0l25 66l182 55q18 41 160 584l135 530l-180 51l28 62h236h514q102 20 172 20l8 -10q-68 -254 -94 -316l-43 -16q-12 39 -30.5 118t-29.5 113l-399 -16l-121 -487q313 0 527 22l8 -28q-16 -18 -75.5 -67.5t-68.5 -49.5q-6 0 -195.5 10t-223.5 10 q-12 -53 -62.5 -251.5t-68.5 -286.5l475 -21q35 35 118.5 122t126.5 128l39 -25q-14 -49 -59 -159.5t-76 -161.5q-199 6 -436 6h-317q-47 0 -137.5 -1t-137.5 -1zM715 1511l340 222q35 -4 80 -38t63 -69l-6 -31l-436 -155z" />
<glyph unicode="&#xca;" horiz-adv-x="1200" d="M-39 0l25 66l182 55q18 41 160 584l135 530l-180 51l28 62h236h514q102 20 172 20l8 -10q-68 -254 -94 -316l-43 -16q-12 39 -30.5 118t-29.5 113l-399 -16l-121 -487q313 0 527 22l8 -28q-16 -18 -75.5 -67.5t-68.5 -49.5q-6 0 -195.5 10t-223.5 10 q-12 -53 -62.5 -251.5t-68.5 -286.5l475 -21q35 35 118.5 122t126.5 128l39 -25q-14 -49 -59 -159.5t-76 -161.5q-199 6 -436 6h-317q-47 0 -137.5 -1t-137.5 -1zM520 1513q268 184 328 226h86l227 -228l-55 -67q-78 45 -238 139q-250 -115 -305 -139z" />
<glyph unicode="&#xcb;" horiz-adv-x="1200" d="M-39 0l25 66l182 55q18 41 160 584l135 530l-180 51l28 62h236h514q102 20 172 20l8 -10q-68 -254 -94 -316l-43 -16q-12 39 -30.5 118t-29.5 113l-399 -16l-121 -487q313 0 527 22l8 -28q-16 -18 -75.5 -67.5t-68.5 -49.5q-6 0 -195.5 10t-223.5 10 q-12 -53 -62.5 -251.5t-68.5 -286.5l475 -21q35 35 118.5 122t126.5 128l39 -25q-14 -49 -59 -159.5t-76 -161.5q-199 6 -436 6h-317q-47 0 -137.5 -1t-137.5 -1zM530 1595l2 7q68 88 148 124h12q18 -18 45 -62t33 -71l-4 -12q-12 -27 -60.5 -71t-74.5 -54h-15 q-61 57 -86 139zM954 1595v7q66 86 150 124h12q18 -18 44 -62t32 -71l-2 -12q-12 -27 -61.5 -71t-75.5 -54h-13q-61 57 -86 139z" />
<glyph unicode="&#xcc;" horiz-adv-x="706" d="M-33 0l29 66l162 53q25 51 166 583l137 527l-156 53l27 66q37 0 112.5 -1t114.5 -1q41 0 126 1t128 1l-25 -66l-147 -55l-135 -525q-127 -489 -139 -581l176 -55l-35 -66q-43 0 -133 1t-135 1t-135.5 -1t-137.5 -1zM340 1591v31q63 92 129 111l338 -224l-39 -69z" />
<glyph unicode="&#xcd;" horiz-adv-x="706" d="M-33 0l29 66l162 53q25 51 166 583l137 527l-156 53l27 66q37 0 112.5 -1t114.5 -1q41 0 126 1t128 1l-25 -66l-147 -55l-135 -525q-127 -489 -139 -581l176 -55l-35 -66q-43 0 -133 1t-135 1t-135.5 -1t-137.5 -1zM477 1513l340 222q35 -4 80 -38t64 -69l-7 -31 l-436 -155z" />
<glyph unicode="&#xce;" horiz-adv-x="706" d="M-33 0l29 66l162 53q25 51 166 583l137 527l-156 53l27 66q37 0 112.5 -1t114.5 -1q41 0 126 1t128 1l-25 -66l-147 -55l-135 -525q-127 -489 -139 -581l176 -55l-35 -66q-43 0 -133 1t-135 1t-135.5 -1t-137.5 -1zM279 1520q268 184 327 225h86l228 -227l-56 -68 q-78 45 -237 139q-250 -115 -305 -139z" />
<glyph unicode="&#xcf;" horiz-adv-x="706" d="M-33 0l29 66l162 53q25 51 166 583l137 527l-156 53l27 66q37 0 112.5 -1t114.5 -1q41 0 126 1t128 1l-25 -66l-147 -55l-135 -525q-127 -489 -139 -581l176 -55l-35 -66q-43 0 -133 1t-135 1t-135.5 -1t-137.5 -1zM301 1595l2 7q68 88 148 124h12q18 -18 45 -62t33 -71 l-4 -12q-12 -27 -60.5 -71t-75.5 -54h-14q-61 57 -86 139zM725 1595v7q66 86 149 124h13q18 -18 43.5 -62t32.5 -71l-2 -12q-12 -27 -61.5 -71t-76.5 -54h-12q-61 57 -86 139z" />
<glyph unicode="&#xd0;" horiz-adv-x="1548" d="M0 0l29 66l168 45q25 53 151 540h-229l47 103h209l125 491l-176 27l28 61q293 27 463 27q322 0 505 -150.5t183 -435.5q0 -272 -171 -467.5t-447 -267.5q-156 -43 -541 -43q-90 0 -196.5 2t-147.5 2zM397 90q197 0 338.5 23.5t253.5 95.5q309 197 309 586q0 193 -96 305 q-72 88 -195.5 127t-318.5 39l-129 -512h399l-57 -103h-366q-132 -502 -138 -561z" />
<glyph unicode="&#xd1;" horiz-adv-x="1527" d="M-49 0l20 63l172 66q57 141 301 1030q-35 72 -68.5 88.5t-154.5 36.5l35 66q125 2 313 10q4 -49 47 -129q94 -186 269.5 -526t240.5 -467h4q125 483 238 985l-170 61l31 64q43 0 124 -1t115 -1q41 0 119 1t111 1l-37 -70l-164 -59q-78 -209 -297 -1098l125 -88l-10 -33 l-258 -23q-98 180 -545 1070h-4q-199 -758 -225 -920l178 -64l-29 -63q-39 0 -125 1t-127 1q-37 0 -113.5 -1t-115.5 -1zM678 1511q129 172 242 172q33 0 124 -49q86 -45 119 -45q51 0 154 99l53 -60q-121 -172 -237 -172q-33 0 -132 49q-82 45 -116 45q-57 0 -156 -98z" />
<glyph unicode="&#xd2;" horiz-adv-x="1546" d="M150 561q0 205 96 391.5t283.5 308t420.5 121.5h2q92 0 183.5 -31.5t176.5 -98t138 -189.5t53 -285q0 -115 -31.5 -229.5t-97 -220t-157 -186.5t-221.5 -129t-281 -48q-236 0 -400.5 150.5t-164.5 445.5zM356 541q0 -244 101.5 -365t267.5 -121q129 0 239.5 69 t181.5 179.5t110.5 241.5t39.5 262q0 246 -103 364.5t-253 118.5h-4q-176 0 -312.5 -117.5t-202 -285.5t-65.5 -346zM743 1612v30q63 92 129 111l338 -223l-39 -70z" />
<glyph unicode="&#xd3;" horiz-adv-x="1546" d="M150 561q0 205 96 391.5t283.5 308t420.5 121.5h2q92 0 183.5 -31.5t176.5 -98t138 -189.5t53 -285q0 -115 -31.5 -229.5t-97 -220t-157 -186.5t-221.5 -129t-281 -48q-236 0 -400.5 150.5t-164.5 445.5zM356 541q0 -244 101.5 -365t267.5 -121q129 0 239.5 69 t181.5 179.5t110.5 241.5t39.5 262q0 246 -103 364.5t-253 118.5h-4q-176 0 -312.5 -117.5t-202 -285.5t-65.5 -346zM854 1532l340 221q35 -4 80 -38t63 -68l-6 -31l-436 -156z" />
<glyph unicode="&#xd4;" horiz-adv-x="1546" d="M150 561q0 205 96 391.5t283.5 308t420.5 121.5h2q92 0 183.5 -31.5t176.5 -98t138 -189.5t53 -285q0 -115 -31.5 -229.5t-97 -220t-157 -186.5t-221.5 -129t-281 -48q-236 0 -400.5 150.5t-164.5 445.5zM356 541q0 -244 101.5 -365t267.5 -121q129 0 239.5 69 t181.5 179.5t110.5 241.5t39.5 262q0 246 -103 364.5t-253 118.5h-4q-176 0 -312.5 -117.5t-202 -285.5t-65.5 -346zM657 1511q268 184 328 226h86l227 -228l-55 -67q-78 45 -237 139q-250 -115 -306 -139z" />
<glyph unicode="&#xd5;" horiz-adv-x="1546" d="M150 561q0 205 96 391.5t283.5 308t420.5 121.5h2q92 0 183.5 -31.5t176.5 -98t138 -189.5t53 -285q0 -115 -31.5 -229.5t-97 -220t-157 -186.5t-221.5 -129t-281 -48q-236 0 -400.5 150.5t-164.5 445.5zM356 541q0 -244 101.5 -365t267.5 -121q129 0 239.5 69 t181.5 179.5t110.5 241.5t39.5 262q0 246 -103 364.5t-253 118.5h-4q-176 0 -312.5 -117.5t-202 -285.5t-65.5 -346zM684 1544q129 172 242 172q33 0 125 -49q86 -45 118 -45q51 0 154 98l53 -59q-121 -172 -237 -172q-33 0 -131 49q-82 45 -117 45q-57 0 -156 -98z" />
<glyph unicode="&#xd6;" horiz-adv-x="1546" d="M150 561q0 205 96 391.5t283.5 308t420.5 121.5h2q92 0 183.5 -31.5t176.5 -98t138 -189.5t53 -285q0 -115 -31.5 -229.5t-97 -220t-157 -186.5t-221.5 -129t-281 -48q-236 0 -400.5 150.5t-164.5 445.5zM356 541q0 -244 101.5 -365t267.5 -121q129 0 239.5 69 t181.5 179.5t110.5 241.5t39.5 262q0 246 -103 364.5t-253 118.5h-4q-176 0 -312.5 -117.5t-202 -285.5t-65.5 -346zM702 1612l3 6q68 88 147 125h12q18 -18 45 -62.5t33 -70.5l-4 -13q-12 -27 -60.5 -70.5t-74.5 -53.5h-15q-61 57 -86 139zM1126 1612v6q66 86 150 125h12 q18 -18 44 -62.5t32 -70.5l-2 -13q-12 -27 -61.5 -70.5t-75.5 -53.5h-13q-61 57 -86 139z" />
<glyph unicode="&#xd7;" horiz-adv-x="1331" d="M211 846l90 96l363 -371l366 375l86 -94l-362 -375l360 -364l-86 -99l-364 373l-363 -373l-88 97l358 366z" />
<glyph unicode="&#xd8;" horiz-adv-x="1546" d="M131 -43l160 184q-141 156 -141 418q0 145 58 292.5t160.5 265.5t255 191.5t326.5 73.5q190 0 338 -110l127 147l68 -49l-131 -153q147 -158 147 -439q0 -143 -50 -284.5t-145.5 -260t-251 -193.5t-345.5 -75q-207 0 -357 117l-157 -184zM352 541q0 -152 51 -269l7 -4 l782 901q-88 121 -248 121q-109 0 -205 -46t-164.5 -124t-120 -175t-77 -201.5t-25.5 -202.5zM449 186q90 -131 266 -131q172 0 309 118t204.5 286t67.5 340q0 158 -57 286l-4 5z" />
<glyph unicode="&#xd9;" horiz-adv-x="1552" d="M201 393q47 184 243 832l-165 61l34 62q35 0 109 -1t108.5 -1t100 1t96.5 1l-25 -62l-86 -74q-197 -688 -227 -852q-29 -147 21.5 -202.5t150.5 -55.5q270 0 529 267l233 860l-98 57l26 62q31 0 95.5 -1t99.5 -1q41 0 120 1t117 1l-32 -66l-156 -57 q-27 -90 -149.5 -580.5t-124.5 -521.5l184 -37l-29 -66q-352 -49 -377 -55l-12 6l74 258h-4q-287 -264 -574 -264q-139 0 -219 62q-131 102 -63 366zM719 1591v31q63 92 129 111l338 -224l-39 -69z" />
<glyph unicode="&#xda;" horiz-adv-x="1552" d="M201 393q47 184 243 832l-165 61l34 62q35 0 109 -1t108.5 -1t100 1t96.5 1l-25 -62l-86 -74q-197 -688 -227 -852q-29 -147 21.5 -202.5t150.5 -55.5q270 0 529 267l233 860l-98 57l26 62q31 0 95.5 -1t99.5 -1q41 0 120 1t117 1l-32 -66l-156 -57 q-27 -90 -149.5 -580.5t-124.5 -521.5l184 -37l-29 -66q-352 -49 -377 -55l-12 6l74 258h-4q-287 -264 -574 -264q-139 0 -219 62q-131 102 -63 366zM905 1511l340 222q35 -4 80 -38t64 -69l-7 -31l-436 -155z" />
<glyph unicode="&#xdb;" horiz-adv-x="1552" d="M201 393q47 184 243 832l-165 61l34 62q35 0 109 -1t108.5 -1t100 1t96.5 1l-25 -62l-86 -74q-197 -688 -227 -852q-29 -147 21.5 -202.5t150.5 -55.5q270 0 529 267l233 860l-98 57l26 62q31 0 95.5 -1t99.5 -1q41 0 120 1t117 1l-32 -66l-156 -57 q-27 -90 -149.5 -580.5t-124.5 -521.5l184 -37l-29 -66q-352 -49 -377 -55l-12 6l74 258h-4q-287 -264 -574 -264q-139 0 -219 62q-131 102 -63 366zM715 1509q268 184 327 226h86l228 -228l-56 -67q-78 45 -237 139q-250 -115 -305 -139z" />
<glyph unicode="&#xdc;" horiz-adv-x="1552" d="M201 393q47 184 243 832l-165 61l34 62q35 0 109 -1t108.5 -1t100 1t96.5 1l-25 -62l-86 -74q-197 -688 -227 -852q-29 -147 21.5 -202.5t150.5 -55.5q270 0 529 267l233 860l-98 57l26 62q31 0 95.5 -1t99.5 -1q41 0 120 1t117 1l-32 -66l-156 -57 q-27 -90 -149.5 -580.5t-124.5 -521.5l184 -37l-29 -66q-352 -49 -377 -55l-12 6l74 258h-4q-287 -264 -574 -264q-139 0 -219 62q-131 102 -63 366zM733 1595l2 7q68 88 148 124h12q18 -18 45 -62t33 -71l-4 -12q-12 -27 -60.5 -71t-74.5 -54h-15q-61 57 -86 139z M1157 1595v7q66 86 150 124h12q18 -18 44 -62t32 -71l-2 -12q-12 -27 -61.5 -71t-76.5 -54h-12q-61 57 -86 139z" />
<glyph unicode="&#xdd;" horiz-adv-x="1218" d="M195 0l28 61l207 60q35 82 135 452q10 45 -4 89q-57 178 -203 565q-45 27 -151 59l26 62q29 0 104 -1t112 -1q35 0 103.5 1t100.5 1l-26 -66l-76 -39q10 -39 174 -526h8q287 350 402 518l-82 51l26 62q37 0 89.5 -1t72.5 -1q39 0 114 1t120 1l-33 -66l-158 -51 q-205 -219 -502 -596q-27 -41 -37 -78q-104 -397 -104 -434l227 -60l-30 -63q-55 0 -165 1t-163 1q-51 0 -156.5 -1t-158.5 -1zM760 1511l340 222q35 -4 80 -38t63 -69l-6 -31l-436 -155z" />
<glyph unicode="&#xde;" horiz-adv-x="1175" d="M-14 0l18 61l152 60q16 31 159 581l138 531l-146 53l29 62q37 0 108.5 -1t106.5 -1q47 0 137 1t133 1l-22 -64l-164 -53l-45 -162q82 8 98 8q465 14 465 -348q0 -172 -148.5 -292t-379.5 -120q-55 0 -97 13l-18 71q190 -4 316 81t126 257q0 246 -290 246q-53 0 -95 -10 l-61 -236q-145 -571 -148 -616l174 -57l-24 -66q-43 0 -131 1t-133 1q-41 0 -127 -1t-131 -1z" />
<glyph unicode="&#xdf;" horiz-adv-x="1118" d="M-358 -422l79 154l19 4q29 -49 72 -75t77 -26q63 0 113.5 64.5t93.5 249.5q55 227 178 842l-163 34l34 78h152q98 285 256 412q154 129 319 129q129 0 207 -68.5t78 -199.5q0 -27 -8 -41q-305 -242 -305 -400q0 -55 74 -198q82 -152 81 -246q-2 -123 -108.5 -220.5 t-272.5 -97.5q-68 0 -136 25t-101 63q53 102 96 166l39 11q12 -39 39 -162q29 -14 70 -15q94 0 155.5 55.5t61.5 121t-76 206.5q-78 143 -80 228q-2 98 70.5 191t240.5 249q12 43 13 55q0 84 -44 136.5t-128 52.5q-289 0 -416 -660q-66 -328 -113 -536q-82 -369 -248 -522 q-137 -125 -260 -125q-128 -1 -159 65z" />
<glyph unicode="&#xe0;" horiz-adv-x="1132" d="M43 176q0 133 84 307t254 305q158 121 311 121q72 0 137 -49l17 51l190 23l13 -21l-82 -108q-102 -324 -183 -686l7 -2q123 35 243 188l17 -29q-10 -106 -124 -204.5t-263 -98.5q-37 0 -68 11q12 51 54 201.5t55 193.5h-7q-123 -178 -259 -292t-249 -114 q-74 0 -110.5 54.5t-36.5 148.5zM223 184q0 -80 45 -80h2q63 0 168 90.5t224 266.5q88 133 137 319q-39 33 -97 33q-129 0 -245 -125q-113 -117 -173.5 -257.5t-60.5 -246.5zM514 1380l6 25q94 51 187 37l98 -404l-74 -30z" />
<glyph unicode="&#xe1;" horiz-adv-x="1132" d="M43 176q0 133 84 307t254 305q158 121 311 121q72 0 137 -49l17 51l190 23l13 -21l-82 -108q-102 -324 -183 -686l7 -2q123 35 243 188l17 -29q-10 -106 -124 -204.5t-263 -98.5q-37 0 -68 11q12 51 54 201.5t55 193.5h-7q-123 -178 -259 -292t-249 -114 q-74 0 -110.5 54.5t-36.5 148.5zM223 184q0 -80 45 -80h2q63 0 168 90.5t224 266.5q88 133 137 319q-39 33 -97 33q-129 0 -245 -125q-113 -117 -173.5 -257.5t-60.5 -246.5zM635 1061l242 342q41 4 98 -7.5t92 -31.5v-27l-377 -327z" />
<glyph unicode="&#xe2;" horiz-adv-x="1132" d="M43 176q0 133 84 307t254 305q158 121 311 121q72 0 137 -49l17 51l190 23l13 -21l-82 -108q-102 -324 -183 -686l7 -2q123 35 243 188l17 -29q-10 -106 -124 -204.5t-263 -98.5q-37 0 -68 11q12 51 54 201.5t55 193.5h-7q-123 -178 -259 -292t-249 -114 q-74 0 -110.5 54.5t-36.5 148.5zM223 184q0 -80 45 -80h2q63 0 168 90.5t224 266.5q88 133 137 319q-39 33 -97 33q-129 0 -245 -125q-113 -117 -173.5 -257.5t-60.5 -246.5zM457 1081l307 349l72 14l133 -373l-76 -47l-131 217l-242 -217z" />
<glyph unicode="&#xe3;" horiz-adv-x="1132" d="M43 176q0 133 84 307t254 305q158 121 311 121q72 0 137 -49l17 51l190 23l13 -21l-82 -108q-102 -324 -183 -686l7 -2q123 35 243 188l17 -29q-10 -106 -124 -204.5t-263 -98.5q-37 0 -68 11q12 51 54 201.5t55 193.5h-7q-123 -178 -259 -292t-249 -114 q-74 0 -110.5 54.5t-36.5 148.5zM223 184q0 -80 45 -80h2q63 0 168 90.5t224 266.5q88 133 137 319q-39 33 -97 33q-129 0 -245 -125q-113 -117 -173.5 -257.5t-60.5 -246.5zM453 1126q131 172 227 172q39 0 117 -45q78 -43 114 -47q51 0 140 94l51 -49q-123 -176 -217 -172 q-37 0 -125 47q-80 43 -111 43q-39 0 -141 -98z" />
<glyph unicode="&#xe4;" horiz-adv-x="1132" d="M43 176q0 133 84 307t254 305q158 121 311 121q72 0 137 -49l17 51l190 23l13 -21l-82 -108q-102 -324 -183 -686l7 -2q123 35 243 188l17 -29q-10 -106 -124 -204.5t-263 -98.5q-37 0 -68 11q12 51 54 201.5t55 193.5h-7q-123 -178 -259 -292t-249 -114 q-74 0 -110.5 54.5t-36.5 148.5zM223 184q0 -80 45 -80h2q63 0 168 90.5t224 266.5q88 133 137 319q-39 33 -97 33q-129 0 -245 -125q-113 -117 -173.5 -257.5t-60.5 -246.5zM453 1212l2 5q70 92 143 118h10q16 -14 43 -57t33 -68l-2 -12q-14 -27 -61.5 -70t-71.5 -53h-12 q-66 61 -84 137zM854 1212l4 5q68 92 141 118h11q18 -14 43.5 -56t31.5 -69l-4 -12q-14 -27 -59 -70t-70 -53h-14q-61 57 -84 137z" />
<glyph unicode="&#xe5;" horiz-adv-x="1132" d="M43 176q0 133 84 307t254 305q158 121 311 121q72 0 137 -49l17 51l190 23l13 -21l-82 -108q-102 -324 -183 -686l7 -2q123 35 243 188l17 -29q-10 -106 -124 -204.5t-263 -98.5q-37 0 -68 11q12 51 54 201.5t55 193.5h-7q-123 -178 -259 -292t-249 -114 q-74 0 -110.5 54.5t-36.5 148.5zM223 184q0 -80 45 -80h2q63 0 168 90.5t224 266.5q88 133 137 319q-39 33 -97 33q-129 0 -245 -125q-113 -117 -173.5 -257.5t-60.5 -246.5zM585.5 1223q18.5 86 85 137t144.5 51h2q80 0 130 -51t32 -137q-16 -86 -84 -137.5t-145 -51.5 q-80 0 -131.5 51.5t-33 137.5zM684 1222.5q-10 -53.5 12.5 -81t65.5 -27.5h2q43 0 75.5 27.5t43 81t-12 82t-67.5 28.5q-43 0 -76 -28.5t-43 -82z" />
<glyph unicode="&#xe6;" horiz-adv-x="1480" d="M37 154q0 129 98 296.5t287 286.5q238 147 584 131q109 63 219 64q98 0 155.5 -56.5t57.5 -138.5q0 -74 -29 -131q-16 -33 -76 -69q-45 -29 -187 -76t-300 -68q-12 -63 -8 -117q4 -82 48 -135t130 -53q102 0 204.5 69.5t172.5 159.5h4l10 -88q-184 -256 -459 -256 q-123 0 -202.5 73t-81.5 216q0 27 2 41h-7q-109 -143 -237.5 -236.5t-235.5 -93.5q-72 0 -110.5 50.5t-38.5 130.5zM213 166q0 -72 53 -72q63 0 185 102.5t233 272.5q90 213 215 313l-2 6q-74 6 -179.5 -24.5t-195.5 -97.5q-139 -100 -224 -250t-85 -248v-2zM862 481 q141 16 246 56q102 35 143 86q37 55 37 122q0 100 -92 101h-2q-90 0 -187.5 -103.5t-144.5 -261.5z" />
<glyph unicode="&#xe7;" horiz-adv-x="866" d="M76 291q0 113 51 242t160 231q176 168 385 168q117 0 168 -45q-6 -35 -36 -120t-54 -118l-45 -22q-14 25 -48 217q-6 2 -26 2q-109 0 -213 -117q-158 -180 -158 -424q0 -94 42 -151.5t124 -57.5q94 0 188.5 67.5t153.5 141.5l4 -2l16 -84q-139 -193 -331 -231l-90 -107 q96 -53 96 -137q0 -51 -32 -95t-82 -71t-96 -43t-89 -22l-23 73q59 16 113.5 49t54.5 76q0 55 -108 94v7l137 159v2q-131 4 -196.5 93.5t-65.5 224.5z" />
<glyph unicode="&#xe8;" horiz-adv-x="892" d="M76 287q0 102 42 215.5t113.5 209t179 158t224.5 62.5q104 0 160.5 -57.5t56.5 -149.5q0 -96 -66 -154q-57 -55 -220 -104t-300 -74q-8 -33 -8 -90q0 -88 40 -145.5t130 -57.5q96 0 194.5 68t161.5 147h7l12 -84q-82 -123 -196.5 -190.5t-244.5 -67.5q-121 0 -202.5 73 t-83.5 241zM279 477q330 76 383 156q27 41 26 102q0 53 -25.5 83t-62.5 30h-2q-90 0 -182 -103.5t-137 -267.5zM434 1380l6 25q94 51 187 37l98 -404l-74 -30z" />
<glyph unicode="&#xe9;" horiz-adv-x="892" d="M76 287q0 102 42 215.5t113.5 209t179 158t224.5 62.5q104 0 160.5 -57.5t56.5 -149.5q0 -96 -66 -154q-57 -55 -220 -104t-300 -74q-8 -33 -8 -90q0 -88 40 -145.5t130 -57.5q96 0 194.5 68t161.5 147h7l12 -84q-82 -123 -196.5 -190.5t-244.5 -67.5q-121 0 -202.5 73 t-83.5 241zM279 477q330 76 383 156q27 41 26 102q0 53 -25.5 83t-62.5 30h-2q-90 0 -182 -103.5t-137 -267.5zM518 1061l242 342q41 4 98 -7.5t92 -31.5v-27l-377 -327z" />
<glyph unicode="&#xea;" horiz-adv-x="892" d="M76 287q0 102 42 215.5t113.5 209t179 158t224.5 62.5q104 0 160.5 -57.5t56.5 -149.5q0 -96 -66 -154q-57 -55 -220 -104t-300 -74q-8 -33 -8 -90q0 -88 40 -145.5t130 -57.5q96 0 194.5 68t161.5 147h7l12 -84q-82 -123 -196.5 -190.5t-244.5 -67.5q-121 0 -202.5 73 t-83.5 241zM279 477q330 76 383 156q27 41 26 102q0 53 -25.5 83t-62.5 30h-2q-90 0 -182 -103.5t-137 -267.5zM383 1081l307 349l72 14l133 -373l-76 -47l-131 217l-242 -217z" />
<glyph unicode="&#xeb;" horiz-adv-x="892" d="M76 287q0 102 42 215.5t113.5 209t179 158t224.5 62.5q104 0 160.5 -57.5t56.5 -149.5q0 -96 -66 -154q-57 -55 -220 -104t-300 -74q-8 -33 -8 -90q0 -88 40 -145.5t130 -57.5q96 0 194.5 68t161.5 147h7l12 -84q-82 -123 -196.5 -190.5t-244.5 -67.5q-121 0 -202.5 73 t-83.5 241zM279 477q330 76 383 156q27 41 26 102q0 53 -25.5 83t-62.5 30h-2q-90 0 -182 -103.5t-137 -267.5zM360 1212l2 5q70 92 144 118h10q16 -14 43 -57t33 -68l-2 -12q-14 -27 -61.5 -70t-71.5 -53h-13q-66 61 -84 137zM762 1212l4 5q68 92 141 118h11 q18 -14 43.5 -56t31.5 -69l-4 -12q-14 -27 -59 -70t-70 -53h-14q-61 57 -84 137z" />
<glyph unicode="&#xec;" horiz-adv-x="622" d="M123.5 24.5q-21.5 51.5 7.5 174.5q47 180 170 571l-137 16l26 58q45 25 153 55.5t165 32.5l2 -6q-143 -475 -248 -840l6 -2q51 10 129 82t129 135l11 -35q-10 -92 -101.5 -192.5t-232.5 -100.5q-58 0 -79.5 51.5zM229 1380l7 25q94 51 186 37l98 -404l-74 -30z" />
<glyph unicode="&#xed;" horiz-adv-x="622" d="M123.5 24.5q-21.5 51.5 7.5 174.5q47 180 170 571l-137 16l26 58q45 25 153 55.5t165 32.5l2 -6q-143 -475 -248 -840l6 -2q51 10 129 82t129 135l11 -35q-10 -92 -101.5 -192.5t-232.5 -100.5q-58 0 -79.5 51.5zM338 1061l242 342q41 4 98 -7.5t92 -31.5v-27l-377 -327z " />
<glyph unicode="&#xee;" horiz-adv-x="622" d="M123.5 24.5q-21.5 51.5 7.5 174.5q47 180 170 571l-137 16l26 58q45 25 153 55.5t165 32.5l2 -6q-143 -475 -248 -840l6 -2q51 10 129 82t129 135l11 -35q-10 -92 -101.5 -192.5t-232.5 -100.5q-58 0 -79.5 51.5zM184 1081l308 349l71 14l133 -373l-75 -47l-132 217 l-241 -217z" />
<glyph unicode="&#xef;" horiz-adv-x="622" d="M123.5 24.5q-21.5 51.5 7.5 174.5q47 180 170 571l-137 16l26 58q45 25 153 55.5t165 32.5l2 -6q-143 -475 -248 -840l6 -2q51 10 129 82t129 135l11 -35q-10 -92 -101.5 -192.5t-232.5 -100.5q-58 0 -79.5 51.5zM160 1212l2 5q70 92 143 118h10q16 -14 43 -57t33 -68 l-2 -12q-14 -27 -61 -70t-72 -53h-12q-66 61 -84 137zM561 1212l4 5q68 92 142 118h10q18 -14 43.5 -56t32.5 -69l-5 -12q-14 -27 -59 -70t-70 -53h-14q-61 57 -84 137z" />
<glyph unicode="&#xf0;" horiz-adv-x="960" d="M74 311q0 246 180 445q164 176 348 176q96 0 146 -49q-14 143 -93 260l-252 -127l-53 61l260 131q-72 88 -227 172l47 64q72 -25 150.5 -76t132.5 -106l233 120l58 -69l-234 -117q141 -184 141 -459q0 -354 -188 -579q-154 -184 -352 -185q-139 0 -218 95.5t-79 242.5z M252 266q0 -102 40 -154.5t99 -52.5q92 0 178 105q59 78 114.5 232.5t55.5 316.5q0 47 -34 86q-45 49 -103 49h-2q-84 0 -158 -76q-76 -78 -133 -218.5t-57 -287.5z" />
<glyph unicode="&#xf1;" horiz-adv-x="1155" d="M78 -16q33 98 120 418.5t93 369.5l-139 14l16 58q53 25 170 56.5t160 31.5l4 -4q-2 -8 -55.5 -181.5t-92.5 -308.5h6q236 371 471 463q78 31 148 31q55 0 65.5 -25.5t-10.5 -103.5q-156 -575 -172 -660l191 31l-35 -84q-154 -43 -361 -129l-18 27q6 20 106.5 354 t122.5 414q10 39 -20 39q-80 0 -210 -134.5t-214 -269.5q-109 -172 -182 -391zM401 1126q131 172 228 172q39 0 116 -45q78 -43 115 -47q51 0 139 94l52 -49q-123 -176 -217 -172q-37 0 -125 47q-80 43 -111 43q-39 0 -141 -98z" />
<glyph unicode="&#xf2;" horiz-adv-x="1013" d="M84 324q0 236 162 422t387 186h2q137 0 215 -102.5t78 -254.5q0 -227 -161 -414.5t-386 -187.5q-127 0 -212 93.5t-85 257.5zM264 268q0 -211 133 -211q131 0 241 194.5t110 385.5q0 211 -132 211h-2q-94 0 -177 -98.5t-128 -231.5t-45 -250zM471 1380l6 25q94 51 187 37 l98 -404l-74 -30z" />
<glyph unicode="&#xf3;" horiz-adv-x="1013" d="M84 324q0 236 162 422t387 186h2q137 0 215 -102.5t78 -254.5q0 -227 -161 -414.5t-386 -187.5q-127 0 -212 93.5t-85 257.5zM264 268q0 -211 133 -211q131 0 241 194.5t110 385.5q0 211 -132 211h-2q-94 0 -177 -98.5t-128 -231.5t-45 -250zM553 1061l242 342 q41 4 98 -7.5t92 -31.5v-27l-377 -327z" />
<glyph unicode="&#xf4;" horiz-adv-x="1013" d="M84 324q0 236 162 422t387 186h2q137 0 215 -102.5t78 -254.5q0 -227 -161 -414.5t-386 -187.5q-127 0 -212 93.5t-85 257.5zM264 268q0 -211 133 -211q131 0 241 194.5t110 385.5q0 211 -132 211h-2q-94 0 -177 -98.5t-128 -231.5t-45 -250zM424 1081l307 349l72 14 l133 -373l-76 -47l-131 217l-242 -217z" />
<glyph unicode="&#xf5;" horiz-adv-x="1013" d="M84 324q0 236 162 422t387 186h2q137 0 215 -102.5t78 -254.5q0 -227 -161 -414.5t-386 -187.5q-127 0 -212 93.5t-85 257.5zM264 268q0 -211 133 -211q131 0 241 194.5t110 385.5q0 211 -132 211h-2q-94 0 -177 -98.5t-128 -231.5t-45 -250zM367 1126q131 172 227 172 q39 0 117 -45q78 -43 114 -47q51 0 140 94l51 -49q-123 -176 -217 -172q-37 0 -125 47q-80 43 -111 43q-39 0 -141 -98z" />
<glyph unicode="&#xf6;" horiz-adv-x="1013" d="M84 324q0 236 162 422t387 186h2q137 0 215 -102.5t78 -254.5q0 -227 -161 -414.5t-386 -187.5q-127 0 -212 93.5t-85 257.5zM264 268q0 -211 133 -211q131 0 241 194.5t110 385.5q0 211 -132 211h-2q-94 0 -177 -98.5t-128 -231.5t-45 -250zM395 1212l2 5q70 92 144 118 h10q16 -14 43 -57t33 -68l-2 -12q-14 -27 -61.5 -70t-71.5 -53h-13q-66 61 -84 137zM797 1212l4 5q68 92 141 118h10q18 -14 44 -56t32 -69l-4 -12q-14 -27 -59 -70t-70 -53h-14q-61 57 -84 137z" />
<glyph unicode="&#xf7;" horiz-adv-x="1331" d="M152 424l24 123h998l-25 -123h-997zM545 141l2 23q66 90 115 119l16 2q20 -8 55 -47t49 -70l-4 -18q-14 -29 -51 -68t-61 -55l-17 -4q-31 18 -61.5 52.5t-42.5 65.5zM551 801l2 18q53 78 119 123l12 2q23 -10 57.5 -49t46.5 -70l-2 -18q-12 -29 -51 -69t-61 -52l-17 -6 q-31 16 -61.5 52t-44.5 69z" />
<glyph unicode="&#xf8;" horiz-adv-x="1015" d="M74 -27l82 105q-74 92 -74 241q0 240 164 426.5t389 186.5q106 0 172 -49l84 104l49 -53l-84 -98q76 -80 76 -244q0 -240 -157 -429.5t-388 -189.5q-102 0 -176 56l-88 -111zM260 197l2 -2l459 589q-29 66 -109 66q-111 0 -202 -108.5t-130.5 -261t-19.5 -283.5zM299 123 q35 -66 96 -66q113 0 206 114t132 263.5t21 263.5l-2 4z" />
<glyph unicode="&#xf9;" horiz-adv-x="1179" d="M129 162q29 111 96.5 336t77.5 264l-158 8l21 64q166 70 342 98l18 -2q-45 -119 -121.5 -371t-101.5 -352q-12 -59 -9 -77.5t28 -18.5q70 0 190.5 120.5t230.5 300.5q90 145 158 367q88 23 195 33l14 -25l-84 -116q-111 -352 -182 -666h4q129 35 231 194l21 -40 q-14 -111 -120 -208.5t-267 -97.5q-25 0 -66 9q119 389 141 467h-6q-193 -291 -362 -402q-111 -74 -205 -74q-135 1 -86 189zM516 1380l6 25q94 51 187 37l98 -404l-74 -30z" />
<glyph unicode="&#xfa;" horiz-adv-x="1179" d="M129 162q29 111 96.5 336t77.5 264l-158 8l21 64q166 70 342 98l18 -2q-45 -119 -121.5 -371t-101.5 -352q-12 -59 -9 -77.5t28 -18.5q70 0 190.5 120.5t230.5 300.5q90 145 158 367q88 23 195 33l14 -25l-84 -116q-111 -352 -182 -666h4q129 35 231 194l21 -40 q-14 -111 -120 -208.5t-267 -97.5q-25 0 -66 9q119 389 141 467h-6q-193 -291 -362 -402q-111 -74 -205 -74q-135 1 -86 189zM637 1061l242 342q41 4 98 -7.5t92 -31.5v-27l-377 -327z" />
<glyph unicode="&#xfb;" horiz-adv-x="1179" d="M129 162q29 111 96.5 336t77.5 264l-158 8l21 64q166 70 342 98l18 -2q-45 -119 -121.5 -371t-101.5 -352q-12 -59 -9 -77.5t28 -18.5q70 0 190.5 120.5t230.5 300.5q90 145 158 367q88 23 195 33l14 -25l-84 -116q-111 -352 -182 -666h4q129 35 231 194l21 -40 q-14 -111 -120 -208.5t-267 -97.5q-25 0 -66 9q119 389 141 467h-6q-193 -291 -362 -402q-111 -74 -205 -74q-135 1 -86 189zM475 1081l307 349l72 14l133 -373l-76 -47l-131 217l-241 -217z" />
<glyph unicode="&#xfc;" horiz-adv-x="1179" d="M129 162q29 111 96.5 336t77.5 264l-158 8l21 64q166 70 342 98l18 -2q-45 -119 -121.5 -371t-101.5 -352q-12 -59 -9 -77.5t28 -18.5q70 0 190.5 120.5t230.5 300.5q90 145 158 367q88 23 195 33l14 -25l-84 -116q-111 -352 -182 -666h4q129 35 231 194l21 -40 q-14 -111 -120 -208.5t-267 -97.5q-25 0 -66 9q119 389 141 467h-6q-193 -291 -362 -402q-111 -74 -205 -74q-135 1 -86 189zM430 1212l2 5q70 92 143 118h11q16 -14 42.5 -57t33.5 -68l-3 -12q-14 -27 -61 -70t-72 -53h-12q-66 61 -84 137zM831 1212l5 5q68 92 141 118h10 q18 -14 44 -56t32 -69l-4 -12q-14 -27 -59.5 -70t-69.5 -53h-15q-61 57 -84 137z" />
<glyph unicode="&#xfd;" horiz-adv-x="952" d="M-86 -299l12 25q55 -2 201 -45q18 4 75.5 53t104.5 112q47 68 67.5 133.5t20.5 176.5q-4 375 -78 561q-25 61 -43 61q-16 0 -56 -59.5t-75 -145.5l-63 58q55 168 128 235.5t132 69.5q102 -8 154 -217q49 -203 43 -559h6q78 127 154.5 323.5t78.5 290.5l-67 92l14 27 q82 43 188 43q14 0 22.5 -6t6.5 -19q-25 -158 -125 -399q-139 -344 -385 -664q-84 -111 -173 -192.5t-140 -113t-70 -31.5q-14 0 -36.5 16t-52.5 62t-44 112zM520 1061l242 342q41 4 98.5 -7.5t91.5 -31.5v-27l-377 -327z" />
<glyph unicode="&#xfe;" horiz-adv-x="1083" d="M-193 -461l29 72l123 51q18 49 72.5 244.5t123 460t83.5 317.5q143 524 165 612l-145 25l23 57q59 25 166.5 44.5t160.5 19.5l2 -4q-68 -229 -141.5 -491.5t-112.5 -389.5h4q262 375 490 375q76 0 125 -68.5t49 -173.5q0 -166 -83 -331.5t-227.5 -275.5t-301.5 -110 q-117 0 -183 60q-20 -72 -88 -361l199 -39l-27 -67q-301 -27 -506 -27zM256 133q61 -70 147 -70q96 0 182.5 62.5t140.5 156t86 198t32 192.5q0 139 -88 139h-2q-27 0 -64 -18.5t-110.5 -92t-155.5 -192.5q-109 -160 -168 -375z" />
<glyph unicode="&#xff;" horiz-adv-x="952" d="M-86 -299l12 25q55 -2 201 -45q18 4 75.5 53t104.5 112q47 68 67.5 133.5t20.5 176.5q-4 375 -78 561q-25 61 -43 61q-16 0 -56 -59.5t-75 -145.5l-63 58q55 168 128 235.5t132 69.5q102 -8 154 -217q49 -203 43 -559h6q78 127 154.5 323.5t78.5 290.5l-67 92l14 27 q82 43 188 43q14 0 22.5 -6t6.5 -19q-25 -158 -125 -399q-139 -344 -385 -664q-84 -111 -173 -192.5t-140 -113t-70 -31.5q-14 0 -36.5 16t-52.5 62t-44 112zM297 1212l2 5q70 92 143 118h11q16 -14 42.5 -57t32.5 -68l-2 -12q-14 -27 -61 -70t-72 -53h-12q-66 61 -84 137z M698 1212l4 5q68 92 142 118h10q18 -14 44 -56t32 -69l-4 -12q-14 -27 -59.5 -70t-69.5 -53h-15q-61 57 -84 137z" />
<glyph unicode="&#x152;" horiz-adv-x="2048" d="M152 569q0 352 253.5 571.5t681.5 219.5q78 0 235 -6t175 -6h414q92 20 170 20l6 -10q-6 -37 -41 -158t-55 -162l-47 -16q-25 84 -50 233l-401 -14l-119 -487q309 0 522 22l11 -31q-18 -20 -76.5 -67t-69.5 -47q-8 0 -196.5 8t-218.5 8q-94 -352 -129 -534l469 -21 q37 35 127 130t126 130l37 -24q-16 -57 -61 -171t-78 -163q-201 6 -438 6h-221q-47 0 -199 -6t-180 -6q-307 0 -477 161.5t-170 419.5zM352 573q0 -201 123 -346t371 -147q115 0 188 31l283 1128q-92 29 -230 29q-350 0 -542.5 -196t-192.5 -499z" />
<glyph unicode="&#x153;" horiz-adv-x="1515" d="M82 292.5q0 147.5 72.5 295t203.5 246t281 98.5h2q94 0 159.5 -57.5t76.5 -157.5h6q72 100 174 157.5t203 57.5q102 0 158.5 -58.5t56.5 -146.5q0 -125 -115 -190q-147 -88 -475 -138q-12 -61 -13 -96q0 -90 41 -152.5t127 -62.5q197 0 373 219l6 -2l23 -74 q-186 -258 -455 -258q-90 0 -159.5 48.5t-94.5 136.5h-4q-143 -184 -356 -185q-133 0 -212 86t-79 233.5zM264 254q0 -98 37 -147.5t90 -49.5q84 0 155.5 68t112.5 166t63.5 196.5t22.5 174.5q0 98 -33.5 143t-84.5 45h-2q-102 0 -189.5 -112.5t-129.5 -248t-42 -235.5z M899 483q129 25 217 54q197 68 199 206q0 106 -80 107h-2q-86 0 -186.5 -103.5t-147.5 -263.5z" />
<glyph unicode="&#x178;" horiz-adv-x="1218" d="M195 0l28 61l207 60q35 82 135 452q10 45 -4 89q-57 178 -203 565q-45 27 -151 59l26 62q29 0 104 -1t112 -1q35 0 103.5 1t100.5 1l-26 -66l-76 -39q10 -39 174 -526h8q287 350 402 518l-82 51l26 62q37 0 89.5 -1t72.5 -1q39 0 114 1t120 1l-33 -66l-158 -51 q-205 -219 -502 -596q-27 -41 -37 -78q-104 -397 -104 -434l227 -60l-30 -63q-55 0 -165 1t-163 1q-51 0 -156.5 -1t-158.5 -1zM588 1595l2 7q68 88 147 124h13q18 -18 44.5 -62t32.5 -71l-4 -12q-12 -27 -60 -71t-75 -54h-14q-61 57 -86 139zM1012 1595v7q66 86 149 124h13 q18 -18 43.5 -62t31.5 -71l-2 -12q-12 -27 -61 -71t-76 -54h-12q-61 57 -86 139z" />
<glyph unicode="&#x2c6;" horiz-adv-x="790" d="M319 1081l308 349l71 14l133 -373l-75 -47l-131 217l-242 -217z" />
<glyph unicode="&#x2dc;" horiz-adv-x="790" d="M297 1126q131 172 227 172q39 0 117 -45q78 -43 115 -47q51 0 139 94l51 -49q-123 -176 -217 -172q-37 0 -125 47q-80 43 -110 43q-39 0 -142 -98z" />
<glyph unicode="&#x2000;" horiz-adv-x="905" />
<glyph unicode="&#x2001;" horiz-adv-x="1812" />
<glyph unicode="&#x2002;" horiz-adv-x="905" />
<glyph unicode="&#x2003;" horiz-adv-x="1812" />
<glyph unicode="&#x2004;" horiz-adv-x="604" />
<glyph unicode="&#x2005;" horiz-adv-x="452" />
<glyph unicode="&#x2006;" horiz-adv-x="301" />
<glyph unicode="&#x2007;" horiz-adv-x="301" />
<glyph unicode="&#x2008;" horiz-adv-x="225" />
<glyph unicode="&#x2009;" horiz-adv-x="362" />
<glyph unicode="&#x200a;" horiz-adv-x="100" />
<glyph unicode="&#x2010;" horiz-adv-x="745" d="M68 383l73 164l111 -6l428 26v-12l-92 -111z" />
<glyph unicode="&#x2011;" horiz-adv-x="745" d="M68 383l73 164l111 -6l428 26v-12l-92 -111z" />
<glyph unicode="&#x2012;" horiz-adv-x="745" d="M68 383l73 164l111 -6l428 26v-12l-92 -111z" />
<glyph unicode="&#x2013;" horiz-adv-x="1224" d="M94 410l35 122h1034l-35 -122h-1034z" />
<glyph unicode="&#x2014;" horiz-adv-x="1841" d="M94 410l35 122h1651l-35 -122h-1651z" />
<glyph unicode="&#x2018;" horiz-adv-x="456" d="M236 1073q0 121 83.5 216t235.5 155l37 -66q-197 -106 -197 -237q0 -23 8 -39l86 -64l-4 -32l-135 -103h-26q-27 14 -57.5 59t-30.5 111z" />
<glyph unicode="&#x2019;" horiz-adv-x="456" d="M186 961q199 106 199 237q0 23 -8 39l-86 61l4 33l137 103h25q29 -12 59.5 -58.5t30.5 -118.5q0 -236 -322 -364z" />
<glyph unicode="&#x201a;" horiz-adv-x="452" d="M-92 -178q90 51 147.5 120.5t57.5 137.5q0 31 -9 47l-92 66v32l146 105h26q27 -8 58.5 -59.5t31.5 -131.5q0 -121 -87 -223t-242 -162z" />
<glyph unicode="&#x201c;" horiz-adv-x="800" d="M233 1077q0 117 86.5 212t237.5 155l37 -64q-199 -104 -199 -241q0 -18 6 -37l86 -64l-2 -32l-137 -103h-26q-29 14 -59 60t-30 114zM578 1077q0 117 85 211t236 156l39 -64q-197 -109 -197 -241q0 -18 7 -37l83 -64v-32l-137 -103h-26q-29 14 -59.5 60t-30.5 114z" />
<glyph unicode="&#x201d;" horiz-adv-x="800" d="M188 961q199 106 199 239q0 23 -8 37l-86 63l2 33l137 103h25q27 -12 57.5 -57.5t30.5 -114.5q0 -242 -318 -371zM530 961q199 102 199 237q0 18 -6 37l-88 63l2 33l137 103h25q29 -10 59.5 -56.5t30.5 -115.5q0 -242 -322 -369z" />
<glyph unicode="&#x201e;" horiz-adv-x="821" d="M-98 -178q90 51 147 120.5t57 137.5q0 29 -8 45l-92 68v32l146 105h26q27 -8 58.5 -59.5t31.5 -131.5q0 -121 -87 -223t-242 -162zM266 -178q90 51 148.5 120.5t58.5 137.5q0 29 -8 45l-92 68v32l145 105h27q27 -8 58.5 -59.5t31.5 -131.5q0 -121 -87 -223t-243 -162z " />
<glyph unicode="&#x2022;" horiz-adv-x="800" d="M147 465l5 14q76 102 168 174t149 97h29q39 -33 101.5 -133.5t76.5 -159.5l-2 -29q-27 -57 -133.5 -151.5t-163.5 -120.5h-29q-49 37 -110.5 131t-90.5 178z" />
<glyph unicode="&#x2026;" horiz-adv-x="1765" d="M66 121l2 6q39 53 86 90t77 49h15q18 -18 47 -68.5t35 -80.5v-13q-14 -29 -67.5 -75.5t-84.5 -63.5h-14q-25 20 -54.5 67.5t-41.5 88.5zM651 121l2 6q39 53 86 90t78 49h14q20 -18 49 -69.5t33 -79.5l-2 -13q-12 -29 -66 -75.5t-85 -63.5h-15q-25 20 -53.5 67.5 t-40.5 88.5zM1237 121l2 6q39 53 86 90t78 49h14q18 -18 47 -68.5t35 -80.5l-2 -13q-14 -29 -67.5 -75.5t-83.5 -63.5h-15q-25 20 -54.5 68.5t-39.5 87.5z" />
<glyph unicode="&#x202f;" horiz-adv-x="362" />
<glyph unicode="&#x2039;" horiz-adv-x="712" d="M127 461q80 51 213 166.5t244 238.5l47 -47q-102 -162 -281 -364q106 -209 152 -359l-64 -45q-66 123 -158 239t-153 171z" />
<glyph unicode="&#x203a;" horiz-adv-x="712" d="M88 98q88 143 281 365q-14 33 -52 113.5t-62 138t-40 106.5l61 45q68 -125 161 -240.5t153 -168.5q-80 -53 -213 -168t-242 -238z" />
<glyph unicode="&#x205f;" horiz-adv-x="452" />
<glyph unicode="&#x20ac;" d="M43 524l33 80l112 2q0 70 27 150l-100 2l35 80l88 2q90 227 260 361t372 134q172 0 295 -96q-12 -33 -56 -119t-62 -110l-43 -13q-20 111 -25 234q-39 14 -86 14q-147 0 -271 -103.5t-190 -299.5l604 8l-61 -105l-563 9q-20 -72 -25 -146l549 8l-62 -106l-489 8 q-4 -215 75 -325.5t218 -110.5q18 0 39 4q45 29 142 99.5t126 86.5l25 -57q-100 -137 -201 -209q-78 -27 -191 -26q-199 0 -315.5 147t-116.5 395z" />
<glyph unicode="&#x2122;" horiz-adv-x="1112" d="M233 1202q-4 45 7 117q4 4 8 4q14 0 63 -8h248q35 10 68 10q4 -2 8 -6q0 -45 -25 -113q-14 -8 -28 -14q-8 16 -27 74l-80 -6v-250l82 -17l-12 -47h-242l19 47l61 17v250l-76 6q-12 -18 -21.5 -35t-14.5 -27t-7 -12q-15 8 -31 10zM649 946l10 43l52 21q6 47 13 133t9 108 q-6 12 -67 19l12 45h174l6 -27q12 -31 94 -190q0 2 103 196l2 21h180l-12 -45l-51 -13q0 -162 8 -251l63 -13l-14 -47h-205l14 47l47 11v245q-14 -35 -32.5 -72.5t-48 -102t-58.5 -126.5l-33 2q-63 133 -133 285q-6 -188 -8 -225l68 -17l-13 -47h-180z" />
<glyph unicode="&#xe000;" horiz-adv-x="940" d="M0 940h940v-940h-940v940z" />
<glyph unicode="&#xfb01;" horiz-adv-x="1153" d="M-383 -408l82 132l25 2q53 -90 155 -91q27 0 46.5 7.5t49 35t57 99t52.5 184.5q14 61 73.5 327.5t118.5 510.5l-172 30l37 74h160q88 295 260 428q139 111 307 111q66 0 119 -21.5t74 -52.5q-53 -127 -105 -186l-47 -19q-47 164 -49 185q-10 6 -35 6q-240 0 -352 -455 h387q143 29 184 29l3 -4q-80 -264 -141.5 -466t-84 -277t-26.5 -89l6 -2q92 23 250 219l20 -30q-10 -106 -104.5 -205t-233.5 -99q-59 0 -78.5 51.5t9.5 170.5q14 53 182 614l-397 -16q-63 -256 -152 -625q-49 -213 -107.5 -333t-146.5 -204q-135 -121 -260 -120 q-115 -1 -166 79z" />
<glyph unicode="&#xfb02;" horiz-adv-x="1165" d="M-389 -408l90 136h23q63 -92 153 -93q27 0 47.5 7.5t52 35t60.5 99t53 184.5q20 96 193 838l-168 30l39 74h149q41 143 95.5 240.5t150.5 179.5q137 119 315 119q92 0 158 -45q98 41 160 45l6 -6q-10 -33 -41 -133.5t-71 -239.5t-87 -309q-92 -332 -182 -666l4 -2 q82 20 264 240l19 -29q-12 -113 -107.5 -217.5t-236.5 -104.5q-55 0 -79 52.5t3 179.5q43 166 145.5 518t147.5 537q-45 88 -162 88q-227 0 -330 -445h219l-43 -84l-202 -26q-6 -29 -146 -625q-49 -217 -105.5 -337t-140.5 -195q-143 -125 -268 -125q-127 -1 -178 79z" />
<glyph unicode="&#xfb03;" horiz-adv-x="1705" d="M-385 -399l84 123h22q49 -94 156 -95q25 0 43.5 8.5t48 36t59 99t56.5 184.5q66 264 195 844l-164 26l35 76h151q76 264 250 395q139 104 295 105q145 0 237 -90q143 129 324 129q70 0 130 -21.5t83 -54.5q-12 -35 -50 -100.5t-59 -91.5l-43 -15q-27 92 -38 187 q-20 8 -52 8q-41 0 -81 -15.5t-91 -58.5t-97 -140.5t-77 -240.5h385q129 31 185 29l2 -4q-80 -264 -141.5 -466t-84 -277t-26.5 -89l6 -2q98 23 254 213l16 -24q-12 -100 -103 -202t-235 -102q-59 0 -78.5 51.5t9.5 170.5q18 72 182 612l-395 -12q-43 -197 -134 -578 q-53 -227 -115.5 -354t-164.5 -209q-123 -100 -254 -100q-162 0 -266 112q-51 -61 -130 -108t-149 -47q-57 0 -107 22.5t-73 65.5zM158 -209q86 -125 225 -125q49 0 82 9.5t69.5 41t67.5 102t57 185.5q76 313 179 797h-392q-96 -428 -147 -631q-59 -244 -141 -379zM469 899 h393q45 178 139 311q-33 51 -91 77t-111 26q-47 0 -85 -13.5t-85 -51.5t-88 -127t-72 -222z" />
<glyph unicode="&#xfb04;" horiz-adv-x="1724" d="M-387 -401l84 125h22q25 -43 71 -68t89 -25q23 0 40.5 7.5t47 35t59 100t56.5 183.5q66 264 194 844l-161 26l35 76h151q63 250 240 391q66 53 150.5 81t152.5 28q141 0 225 -96q53 53 142 94t188 41q121 0 182 -49q68 31 162 51l4 -4q-84 -264 -199 -688 q-168 -610 -178 -668h4q98 33 266 235l19 -24q-16 -113 -106.5 -215.5t-229.5 -102.5q-63 0 -88 50.5t2 171.5q88 340 295 1061q-49 92 -180 92q-223 0 -326 -453h223l-43 -80l-202 -22q-94 -430 -132 -586q-51 -221 -113.5 -347t-166.5 -208q-127 -100 -248 -100 q-172 0 -268 114q-51 -63 -132 -110t-151 -47q-135 0 -180 86zM162 -209q33 -57 94 -92t119 -35q111 0 174 64.5t117 281.5q33 133 168 791h-390q-147 -627 -147 -631q-59 -242 -135 -379zM467 899h389q49 190 137 309q-74 106 -200 107q-106 0 -185.5 -85t-140.5 -331z" />
</font>
</defs>
</svg>
