<?xml version="1.0" standalone="no"?>
<!DOCTYPE svg PUBLIC "-//W3C//DTD SVG 1.1//EN" "http://www.w3.org/Graphics/SVG/1.1/DTD/svg11.dtd" >
<svg xmlns="http://www.w3.org/2000/svg">
<metadata>
This is a custom SVG webfont generated by Font Squirrel.
Copyright   : Copyright  2000 Adobe Systems Incorporated All Rights Reserved Patent Des pending
Designer    : Robert Slimbach
Foundry URL : httpwwwadobecomtype
</metadata>
<defs>
<font id="WarnockProCaption" horiz-adv-x="1054" >
<font-face units-per-em="2048" ascent="1505" descent="-543" />
<missing-glyph horiz-adv-x="520" />
<glyph unicode=" "  horiz-adv-x="520" />
<glyph unicode="&#x09;" horiz-adv-x="520" />
<glyph unicode="&#xa0;" horiz-adv-x="520" />
<glyph unicode="!" horiz-adv-x="493" d="M121 1255q27 23 101.5 47.5t148.5 28.5l20 -16q-4 -147 -88 -848l-80 -39q-39 549 -63 717zM125 100l4 23q61 90 129 135l18 6q25 -10 67 -56t58 -81l-2 -21q-14 -31 -57 -74.5t-70 -58.5l-20 -6q-70 39 -127 133z" />
<glyph unicode="&#x22;" horiz-adv-x="735" d="M90 1370q86 45 193 70h28q-41 -432 -53 -508l-82 -37q-6 49 -14 137t-16.5 155.5t-16.5 119.5zM422 1378q90 45 190 68h31q-49 -483 -51 -504l-84 -39q-8 66 -24.5 209t-24.5 203z" />
<glyph unicode="#" d="M6 399l64 140h186l78 288h-209l63 144h185l90 336l104 10l-94 -346h238l92 336l102 10l-96 -346h190l-65 -144h-164l-78 -288h185l-62 -140h-160l-96 -370l-102 -13l100 383h-240l-98 -370l-104 -13l104 383h-213zM354 539h242l76 288h-238z" />
<glyph unicode="$" d="M53 156q4 35 41 118.5t60 114.5l32 17q18 -33 66 -248q23 -16 87 -32.5t138 -19.5v476q-88 29 -147.5 54.5t-119.5 68.5t-90 105t-30 144q0 143 102.5 242.5t284.5 108.5v178l82 18v-196q139 -10 209 -72q14 8 40 18.5t58.5 21.5t46.5 17l19 -12q-2 -37 -21.5 -140.5 t-38.5 -162.5l-43 -25q-55 94 -79 193q-68 61 -191 67v-458q82 -27 123 -41.5t107.5 -47t98.5 -66.5t58.5 -90t26.5 -126q0 -78 -27.5 -141.5t-71 -102.5t-100.5 -66.5t-109.5 -40t-105.5 -16.5v-198l-82 -23v217q-104 4 -228 45.5t-196 100.5zM252 997q0 -86 54 -134 t171 -87v436q-111 -12 -168 -70.5t-57 -144.5zM559 111q104 10 170 67.5t66 149.5t-55.5 139t-180.5 90v-446z" />
<glyph unicode="%" horiz-adv-x="1511" d="M88 958q0 176 96.5 278.5t216.5 102.5h2q143 0 224.5 -107.5t81.5 -254.5q0 -170 -89.5 -274.5t-224.5 -104.5q-133 0 -220 95t-87 265zM246 965q0 -106 39 -196.5t116 -90.5q53 0 88 48t48.5 111.5t13.5 133.5q0 41 -6 85t-20.5 92t-46.5 78.5t-77 30.5h-2 q-82 0 -117.5 -87.5t-35.5 -204.5zM281 -16q518 831 864 1380l78 -57q-174 -274 -869 -1391zM803 336q0 174 96 277.5t219 103.5h2q143 0 224 -107.5t81 -255.5q0 -170 -89 -273.5t-224 -103.5q-133 0 -221 95.5t-88 263.5zM961 344q0 -102 39.5 -194.5t119.5 -92.5 q78 0 113 87t35 204q0 59 -10.5 117.5t-47 114t-94.5 55.5h-2q-80 0 -116.5 -84t-36.5 -207z" />
<glyph unicode="&#x26;" horiz-adv-x="1523" d="M80 362q0 135 127 244q61 51 151 117q-106 147 -106 287q0 129 95 228t237 99h2q135 0 214 -76.5t79 -193.5q0 -125 -129 -221q-55 -43 -179 -123q72 -88 190 -200.5t193 -170.5q61 80 122 192.5t77 168.5l-39 143l10 12q68 0 169.5 -29.5t129.5 -56.5l-4 -14l-127 -94 q-160 -254 -268 -383q279 -209 440 -240l-20 -55q-63 -25 -158 -25q-92 0 -179 44t-208 145q-182 -188 -383 -189q-172 0 -304 104.5t-132 286.5zM266 418q0 -131 93.5 -217t222.5 -86q145 0 245 104v4q-84 76 -216 208t-203 222h-5q-70 -57 -103.5 -109t-33.5 -126z M401 1049q0 -121 113 -258l8 -5q207 145 207 285q0 78 -44 127t-112 49h-2q-74 0 -122 -59t-48 -139z" />
<glyph unicode="'" horiz-adv-x="403" d="M90 1370q86 45 193 70h28q-41 -432 -53 -508l-84 -37q-2 25 -17.5 184.5t-27.5 227.5z" />
<glyph unicode="(" horiz-adv-x="684" d="M129 557v2q0 274 106.5 520t319.5 402l53 -60q-123 -125 -213 -339t-90 -525t90 -524t213 -340l-53 -60q-213 156 -319.5 403t-106.5 521z" />
<glyph unicode=")" horiz-adv-x="684" d="M76 -309q123 127 214 341t91 525t-91 526t-214 340l51 58q213 -156 320.5 -401.5t107.5 -522.5v-2q0 -274 -107.5 -520t-320.5 -402z" />
<glyph unicode="*" horiz-adv-x="788" d="M82 1016l43 -10l227 10l-6 -25l-172 -135l-31 -35q-29 14 -51 87t-10 108zM104 1122q2 39 44 95.5t77 62.5l19 -43l127 -188l-25 -9l-190 74zM233 743l35 37l103 189l16 10l37 -227l14 -56q-31 -8 -106.5 7t-98.5 40zM348 1329q29 10 109 -2t88 -31l-27 -34l-106 -201 l-23 -4l-29 229zM408 983l14 8l196 -80l46 -12q-4 -41 -47.5 -91t-81.5 -58l-17 45zM420 1016l6 26l170 140l33 32q29 -27 51 -97t14 -103l-49 10z" />
<glyph unicode="+" horiz-adv-x="1312" d="M150 426l24 123h414v422l139 24v-446h436l-22 -123h-414v-469l-139 -23v492h-438z" />
<glyph unicode="," horiz-adv-x="501" d="M63 -197q150 121 150 244q0 43 -23 72l-88 49v39l166 102h37q27 -10 54.5 -58t29.5 -126q2 -113 -69.5 -215.5t-204.5 -175.5z" />
<glyph unicode="-" horiz-adv-x="800" d="M94 373l70 166l112 -4l426 26l3 -14l-93 -113z" />
<glyph unicode="." horiz-adv-x="501" d="M109 100l6 23q59 92 131 139l16 6q25 -12 68 -58t63 -83l-8 -21q-14 -33 -57 -78.5t-72 -58.5l-16 -6q-33 18 -72 60t-59 77z" />
<glyph unicode="/" horiz-adv-x="733" d="M100 -96l424 1480h127l-424 -1480h-127z" />
<glyph unicode="0" d="M61 645q0 178 45.5 317.5t118 218.5t152.5 118.5t160 39.5h2q209 0 332.5 -179t123.5 -494q0 -188 -42 -328.5t-112.5 -216.5t-149.5 -112t-167 -36q-84 0 -160.5 34t-147.5 107.5t-113 210t-42 320.5zM258 651q0 -227 75 -407.5t206 -180.5q129 0 194.5 160t65.5 426 q0 113 -16.5 216.5t-48.5 191.5t-86 140t-122 52h-2q-131 0 -198.5 -175t-67.5 -423z" />
<glyph unicode="1" d="M162 0l24 66l242 55q20 362 21 1022h-281l31 63q8 4 72.5 24.5t162.5 52.5t168 56h23q0 -96 6 -651t6 -567l283 -55l-23 -66q-61 0 -184 1t-183 1q-61 0 -185 -1t-183 -1z" />
<glyph unicode="2" d="M68 0v31l79 94q31 20 43 33q225 211 373 407q135 186 135 371q0 125 -68.5 207t-195.5 82q-74 0 -155 -37q-6 -43 -32 -137.5t-38 -118.5l-39 -27q-55 82 -96 223q80 86 199.5 148.5t242.5 62.5q94 0 176 -33.5t145.5 -123.5t65.5 -224q2 -129 -59.5 -237.5 t-181.5 -233.5q-78 -82 -357 -337v-5q240 0 496 17q8 10 51 66.5t63 78.5l70 -2q-8 -55 -40 -167.5t-50 -147.5q-16 0 -184 5t-279 5h-364z" />
<glyph unicode="3" d="M82 90q51 166 100 234l41 18q27 -57 76 -250q41 -18 117 -18q152 0 246 78.5t94 218.5q0 246 -264 280q-131 -33 -216 -41l-12 21q8 25 37 68.5t51 56.5q35 2 135 -8q209 68 209 256q0 106 -66.5 170.5t-183.5 64.5q-72 0 -141 -33q-4 -35 -24.5 -117.5t-32.5 -111.5 l-43 -25q-16 23 -48 95.5t-46 121.5q205 174 407 174q104 0 182 -29.5t117 -78.5t57.5 -98.5t18.5 -100.5q0 -217 -283 -315v-6q182 -20 271.5 -107.5t89.5 -222.5q0 -131 -83 -227.5t-200 -138.5t-242 -42q-121 0 -217 35t-147 78z" />
<glyph unicode="4" d="M18 457q80 143 297 463.5t254 357.5q92 49 201 61l4 -858h109q76 111 116 135l31 -4q0 -33 -17.5 -168t-25.5 -161l-37 -13q-35 41 -71 121l-107 -2l4 -270l197 -53l-23 -66q-45 0 -135 1t-135 1q-53 0 -161.5 -1t-164.5 -1l25 63l199 56q10 180 10 264l-525 -6zM176 492 q135 -8 414 -9l16 695l-8 2q-57 -92 -133 -211t-112 -175.5t-84 -137t-93 -164.5z" />
<glyph unicode="5" d="M100 72q10 39 45 130t50 115l43 19q10 -23 79 -260q33 -10 84 -10q145 0 247 93t102 242q0 49 -12.5 94.5t-42 89.5t-88 70.5t-142.5 26.5q-141 0 -287 -88l-37 27q27 152 65 404.5t46 291.5q106 -4 471 -4q78 0 199 41l24 -56q-47 -53 -149 -116q-35 -23 -88 -25 q-117 -6 -371 -6q-4 -20 -33 -174t-47 -254l4 -2q156 76 289 76q115 0 199 -36t126 -93.5t61 -115.5t19 -120q0 -119 -50 -211t-130 -144t-166 -78t-172 -26q-104 0 -199.5 31t-138.5 68z" />
<glyph unicode="6" d="M74 532q0 305 196 533q106 121 273.5 197.5t339.5 85.5l30 -74q-256 -41 -432 -194.5t-198 -403.5l4 -4q188 147 336 147q139 0 251.5 -103.5t112.5 -295.5q0 -209 -135 -328t-313 -119q-219 0 -342 152.5t-123 406.5zM279 481q0 -170 74.5 -295t201.5 -125 q117 0 177.5 99.5t60.5 224.5q0 145 -71 225t-177 80h-2q-125 0 -234 -104q-30 -35 -30 -105z" />
<glyph unicode="7" d="M82 1145.5q-4 144.5 0 173.5l4 4q88 -10 137 -10h383q256 0 369 2l-6 -53q-16 -94 -259 -576.5t-259 -562.5l-9 -123l-180 -27l-24 29q45 143 268 526q201 352 321 629q-84 2 -292 2q-219 0 -306 -2q-8 -18 -42.5 -87t-45.5 -81l-49 -18q-6 30 -10 174.5z" />
<glyph unicode="8" d="M94 311q0 102 58.5 176t205.5 166l-2 6q-57 35 -100 76q-109 96 -109 240q0 160 119 262t277 102h2q172 0 270 -96t98 -229q0 -51 -16 -95.5t-59 -88.5t-61.5 -59t-76.5 -56l-18 -15v-4q100 -59 147 -96q131 -98 132 -258q0 -141 -119 -255t-328 -114 q-197 0 -308.5 103.5t-111.5 234.5zM270 340q0 -129 80 -204t189 -75h2q98 0 167.5 60.5t69.5 165.5q0 102 -78 174q-82 76 -260 153q-170 -114 -170 -274zM313 1030.5q0 -102.5 84 -176.5q51 -43 197 -117q158 119 156 264q0 111 -62.5 180.5t-159.5 69.5h-2 q-86 0 -149.5 -59t-63.5 -161.5z" />
<glyph unicode="9" d="M82 897q0 199 136 320.5t314 121.5q121 0 212.5 -52t139.5 -137t70.5 -175t22.5 -182q0 -188 -68.5 -342t-183.5 -252.5t-253 -156.5t-288 -73l-34 76q27 4 54 11t84.5 27.5t109 47.5t113.5 72t109.5 98t86 132t55.5 169l-6 2q-152 -106 -289 -106q-154 0 -269.5 107.5 t-115.5 291.5zM272 932q2 -145 83 -227t200 -82q88 0 160 47q41 25 49 59q8 53 8 102q0 186 -69.5 304t-186.5 118h-2q-119 0 -180.5 -96t-61.5 -225z" />
<glyph unicode=":" horiz-adv-x="501" d="M109 100l6 23q59 92 131 139l16 6q25 -12 68 -58t63 -83l-8 -21q-14 -33 -57 -78.5t-72 -58.5l-16 -6q-33 18 -72 60t-59 77zM109 737l6 23q57 92 131 137l16 6q25 -8 68 -54t63 -83l-8 -23q-12 -33 -55 -76.5t-74 -62.5l-16 -4q-33 18 -72 60t-59 77z" />
<glyph unicode=";" horiz-adv-x="501" d="M61 -197q150 121 150 244q0 45 -23 72l-88 49v39l166 102h37q27 -10 54.5 -58t29.5 -126q2 -113 -69.5 -215.5t-204.5 -175.5zM109 737l6 21q55 90 131 139l16 6q27 -12 69 -57t62 -82l-6 -23q-14 -33 -57 -76.5t-72 -60.5l-18 -6q-35 18 -74 61t-57 78z" />
<glyph unicode="&#x3c;" horiz-adv-x="1210" d="M160 393l28 152l863 446l-21 -145l-741 -379v-6l762 -385l-21 -135z" />
<glyph unicode="=" horiz-adv-x="1312" d="M158 229l24 123h977l-24 -123h-977zM158 627l24 123h977l-24 -123h-977z" />
<glyph unicode="&#x3e;" horiz-adv-x="1210" d="M160 -59l20 145l731 381v8l-751 379l20 135l873 -446l-31 -150z" />
<glyph unicode="?" horiz-adv-x="819" d="M96 1204q59 51 153.5 89t170.5 38h2q129 0 225 -75.5t96 -221.5q0 -74 -37.5 -132t-113.5 -122q-172 -147 -172 -215q0 -45 35 -100l-68 -35q-43 18 -87 77.5t-46 129.5q47 111 182 229q78 70 105.5 114t27.5 89q0 59 -48 112.5t-138 53.5q-59 0 -94 -21 q-6 -41 -27.5 -111.5t-36.5 -96.5l-39 -23q-63 102 -90 221zM250 100l4 23q61 90 129 135l18 6q25 -10 67 -56t60 -81l-4 -21q-14 -31 -57 -74.5t-70 -58.5l-20 -6q-33 18 -71 58t-56 75z" />
<glyph unicode="@" horiz-adv-x="1732" d="M102 373q0 350 243 590.5t624 240.5q289 0 479 -166t190 -454q0 -229 -175 -385t-425 -150q-49 0 -80 12q2 8 84 310h-8q-96 -143 -212.5 -232.5t-215.5 -89.5q-59 0 -95 49t-36 133q0 135 76 284t217 245q125 84 244 84q86 0 135 -56l12 41l148 27l16 -10l-59 -109 q-70 -231 -134 -567q-2 -20 13 -20q150 0 261.5 121.5t111.5 326.5q0 229 -154 370.5t-397 141.5q-170 0 -307.5 -62.5t-221.5 -168t-128 -232.5t-44 -264q0 -309 183.5 -475t451.5 -166q338 0 610 254l45 -68q-289 -307 -706 -307q-334 0 -540 210t-206 542zM641 248 q0 -78 47 -78q55 0 154.5 88t183.5 227q47 66 94 226q-35 41 -104 41h-2q-88 0 -170 -76q-82 -72 -142.5 -200t-60.5 -228z" />
<glyph unicode="A" horiz-adv-x="1470" d="M20 0l19 68l141 63q193 401 443 1040q10 36 10 55q0 8 -2 13l-23 57l164 99l10 -11q0 -55 31 -145q27 -74 424 -1055q23 -41 57.5 -61.5t155.5 -54.5l-20 -68q-37 0 -119 1t-123 1q-33 0 -106.5 -1t-116.5 -1l16 59l72 56q-10 35 -144 360q-153 -11 -346 -11 q-55 0 -114 1q-27 -68 -55.5 -141.5t-44 -114.5t-30.5 -78l183 -63l-17 -68q-39 0 -121.5 1t-123.5 1q-37 0 -110 -1t-110 -1zM494 586q25 0 179 -4t201 -4q-74 197 -186 509h-4q-43 -115 -85 -224t-64.5 -169.5t-40.5 -107.5z" />
<glyph unicode="B" horiz-adv-x="1267" d="M86 0l20 68l142 57q12 98 12 461v645l-174 37l23 63q252 29 475 29q508 0 508 -309q0 -137 -97.5 -214t-228.5 -100v-14q418 -43 418 -334q0 -395 -701 -395q-196 0 -397 6zM449 608q0 -430 6 -520q199 0 296 26.5t146 86.5q63 72 64 196v2q0 59 -18.5 103.5t-70 85.5 t-157.5 62q-97 20 -239 20h-27v-62zM449 760q438 4 438 272q0 135 -109 189q-88 45 -252 45h-77v-506z" />
<glyph unicode="C" horiz-adv-x="1437" d="M96 664q0 139 47 258.5t125 202.5t179.5 143.5t211 88t220.5 27.5h2q178 0 307 -69q74 41 170 55l16 -10q-8 -68 -36.5 -187.5t-47.5 -152.5l-49 -27q-41 72 -74 228q-33 23 -104.5 42t-142.5 19q-276 0 -440.5 -169t-164.5 -439.5t173.5 -436t453.5 -165.5q70 0 131 16 q176 184 240 231l67 -10q-14 -55 -72.5 -159.5t-80.5 -122.5q-49 -27 -157.5 -46.5t-192.5 -19.5q-150 0 -286 41t-249 123t-179.5 221.5t-66.5 317.5z" />
<glyph unicode="D" horiz-adv-x="1525" d="M70 0l20 70l158 45q12 45 12 585v537l-180 31l20 65q281 27 475 27q401 0 626.5 -165t225.5 -493q0 -141 -43 -255.5t-114.5 -187.5t-140 -116t-146.5 -71q-211 -78 -559 -78q-90 0 -354 6zM449 702q0 -592 8 -616q391 0 565 156q184 162 184 452q0 276 -178 424 q-102 84 -240 117q-129 31 -316 31h-23v-564z" />
<glyph unicode="E" horiz-adv-x="1193" d="M59 0l21 68l168 55q12 53 12 582v526l-182 51l20 66h258h492q90 20 188 24l6 -8q-8 -109 -49 -307l-47 -25q-43 92 -92 223l-405 -16v-487q240 0 524 26l10 -22q-8 -20 -60.5 -76.5t-72.5 -56.5q-16 0 -192.5 12t-208.5 12q0 -375 8 -534l428 -17q12 14 82.5 114.5 t97.5 129.5l57 2q-8 -57 -35.5 -182t-42.5 -164q-137 6 -374 6h-328q-47 0 -141.5 -1t-141.5 -1z" />
<glyph unicode="F" horiz-adv-x="1118" d="M84 1284l27 64h233h512l78 12q80 12 100 12l6 -6q-2 -33 -19 -154.5t-26 -160.5l-51 -27q-35 84 -86 229l-409 -16v-522q279 0 536 28l10 -26q-6 -16 -57 -73.5t-64 -57.5q-31 0 -213 12t-212 12q0 -348 8 -479l239 -61l-22 -70q-47 0 -151.5 1t-160.5 1q-43 0 -131 -1 t-133 -1l17 68l137 61q8 39 8 569v533z" />
<glyph unicode="G" horiz-adv-x="1556" d="M98 668q0 305 221.5 510.5t565.5 205.5q193 0 332 -81q55 45 167 77l19 -12q-2 -47 -35 -184t-51 -176l-55 -25q-33 72 -68 227q-106 68 -279 68q-262 0 -431 -164t-169 -440q0 -256 162 -426t451 -170q141 0 248 41q2 31 38 428l-434 12l-8 29l92 76q232 17 473 17 q48 0 97 -1q-20 -182 -63.5 -428t-63.5 -285h-15q-86 18 -106 70q-172 -76 -336 -76q-332 0 -542 194t-210 513z" />
<glyph unicode="H" horiz-adv-x="1603" d="M76 0l22 70l150 55q12 295 12 586v514l-166 51l27 72q39 0 117.5 -1t117.5 -1q37 0 102.5 1t94.5 1l-18 -70l-86 -59v-441h706v439l-106 69l22 62q31 0 90.5 -1t87.5 -1q47 0 140.5 1t136.5 1l-23 -72l-160 -55v-523q0 -522 15 -565l194 -61l-26 -72q-43 0 -133 1t-140 1 q-35 0 -101.5 -1t-96.5 -1l16 72l82 59q2 63 2 541q-55 -8 -260 -8h-446q0 -459 2 -525l102 -71l-23 -68q-29 0 -87 1t-91 1q-45 0 -138 -1t-138 -1z" />
<glyph unicode="I" horiz-adv-x="710" d="M72 0l18 70l158 55q12 51 12 577v529l-162 51l19 66q41 0 118.5 -1t116.5 -1q43 0 130 1t130 1l-20 -68l-143 -51v-527q0 -494 10 -579l190 -53l-20 -70q-41 0 -131 1t-142 1q-49 0 -145 -1t-139 -1z" />
<glyph unicode="J" horiz-adv-x="679" d="M47 -279q129 109 172 231t43 312q1 77 1 204t-1 304q-4 375 -8 455l-184 53l24 68q43 0 127 -1t129 -1q41 0 126 1t126 1l-16 -72l-133 -55v-916q0 -145 -37 -233q-51 -139 -147.5 -255t-157.5 -155l-64 43v16z" />
<glyph unicode="K" horiz-adv-x="1409" d="M70 0l18 70l160 53q12 55 12 579v527l-162 55l19 64h227h266l-18 -68l-143 -53v-525q0 -494 10 -579l190 -53l-20 -70q-45 0 -141.5 1t-149.5 1q-45 0 -136 -1t-132 -1zM504 662v16q408 479 471 575q-5 36 -5 64q0 21 3 37q121 4 169 4t146 -5t101 -5l-39 -74 q-12 -4 -94 -22.5t-117 -28.5q-39 -10 -76 -43q-88 -88 -375 -424v-6q92 -109 451 -502q63 -70 121.5 -131.5t86 -91t39.5 -43.5l-34 -13q-129 4 -213 48t-166 126q-233 234 -469 519z" />
<glyph unicode="L" horiz-adv-x="1183" d="M68 0l20 66l164 53q8 49 8 583v521l-172 57l27 68q33 0 113.5 -1t125.5 -1q43 0 128 1t126 1l-24 -70l-135 -55v-518q0 -526 8 -592l428 -25q129 203 190 270l55 7q-8 -84 -31.5 -207t-39.5 -166q-23 0 -111 2t-244.5 4t-347.5 2h-288z" />
<glyph unicode="M" horiz-adv-x="1943" d="M53 0l15 68l139 63q53 340 127 1051q-12 37 -43 51t-160 43l27 70l342 2q2 -33 18 -93q16 -33 74.5 -152.5t164 -334.5t214.5 -442h4q256 504 465 942q6 14 6 80l389 -2l-23 -72l-170 -53q4 -160 27 -606.5t27 -487.5l192 -57l-16 -70q-41 0 -131 1t-135 1q-43 0 -130 -1 t-128 -1l22 70l127 55q-2 86 -20 1001h-7q-29 -63 -122 -259.5t-192 -413.5t-210 -471l-45 2q-16 35 -485 1093h-4q-47 -537 -68 -944l199 -67l-19 -66q-41 0 -126 1t-130 1q-37 0 -108.5 -1t-106.5 -1z" />
<glyph unicode="N" horiz-adv-x="1601" d="M55 1278l25 72l289 10q18 -41 84 -121q311 -389 821 -958h4q0 35 -6 451.5t-6 479.5l-174 68l26 68q39 0 108.5 -1t104.5 -1q43 0 131 1t127 1l-18 -74l-172 -62q0 -33 -5 -211t-10.5 -419.5t-7.5 -405.5q0 -86 -10 -209l-31 -10q-209 152 -954 1081h-4q-1 -140 -1 -258 q0 -534 15 -643l182 -69l-20 -68q-39 0 -121 1t-125 1q-41 0 -122 -1t-115 -1l14 68l164 69q27 362 37 1006q-18 29 -35 48t-27 30.5t-32.5 20.5t-30.5 11t-47.5 11.5t-57.5 13.5z" />
<glyph unicode="O" horiz-adv-x="1626" d="M98 659q0 170 65.5 311.5t170 229.5t228.5 136t249 48h2q100 0 198.5 -26.5t191.5 -82.5t164 -135t115 -194t46 -250v-11q0 -179 -62 -321q-63 -146 -168.5 -231.5t-228.5 -128.5t-252 -43q-135 0 -262 44t-229.5 128t-165 220t-62.5 306zM322 692q0 -256 143 -447.5 t373 -191.5q125 0 218 54.5t145 145.5t78 196.5t26 224.5q0 256 -142.5 436t-363.5 180h-2q-219 0 -347 -165t-128 -433z" />
<glyph unicode="P" horiz-adv-x="1196" d="M88 1262l21 65q270 33 438 33q254 0 397 -88q84 -53 125 -139t41 -179q0 -117 -47 -203.5t-121 -132t-144.5 -66t-138.5 -20.5q-49 0 -86 11l-28 69q180 8 267 96.5t87 235.5q0 320 -405 321q-22 0 -45 -1v-535q0 -211 3 -350t6 -191.5t3 -54.5l231 -63l-26 -70 q-53 0 -160 1t-160 1q-41 0 -126 -1t-128 -1l19 66l141 63q8 41 8 592v504z" />
<glyph unicode="Q" horiz-adv-x="1626" d="M98 659q0 170 64.5 311.5t169 229.5t229.5 136t250 48h2q125 0 247 -42t227.5 -122.5t172 -218t68.5 -307.5v-15q0 -124 -32 -230q-34 -113 -86 -187t-124 -133t-134 -91t-130 -52v-4q125 -72 606 -328l-31 -43q-16 -1 -32 -1q-186 0 -412 105q-33 16 -389 219 q-16 10 -35.5 16.5t-43 13.5t-40.5 13q-246 76 -396.5 243t-150.5 439zM322 678q0 -158 58 -296t181 -233.5t287 -111.5q156 14 262.5 110.5t150.5 231.5t44 301q0 252 -140.5 431t-367.5 179h-2q-215 0 -344 -173t-129 -439z" />
<glyph unicode="R" horiz-adv-x="1300" d="M78 0l22 70l146 59q14 264 14 520v580l-176 18l25 72q209 41 487 41q508 0 508 -348q0 -254 -318 -359l-2 -4q72 -123 306 -430q53 -70 180 -231l-21 -21q-203 12 -327 162q-174 188 -369 506l4 14q164 43 253 117t89 215q0 92 -36 152.5t-103.5 88t-138.5 35.5 q-57 7 -132 7h-38v-613q0 -453 4 -520l202 -61l-20 -70q-49 0 -144.5 1t-142.5 1t-137 -1t-135 -1z" />
<glyph unicode="S" horiz-adv-x="1081" d="M92 100q8 43 43 142.5t49 119.5l43 17q12 -25 70 -283q82 -39 201 -39q133 0 215 69t82 185q0 135 -140 213q-29 14 -144.5 72.5t-174.5 93.5q-197 121 -197 320q0 150 111.5 262t300.5 112h4q129 0 213 -61q37 27 145 66l21 -15q-29 -217 -70 -325l-45 -21 q-16 29 -76 207q-63 51 -174 51q-117 0 -184.5 -65.5t-67.5 -157.5q0 -127 113 -193q41 -25 318 -165q139 -72 191 -155t52 -181q0 -92 -33.5 -166t-85 -118t-119 -72.5t-129 -40t-120.5 -11.5q-113 0 -237 44t-175 95z" />
<glyph unicode="T" horiz-adv-x="1413" d="M106 1370l9 8q76 -6 170 -30h860q49 10 186 30l4 -8q-4 -98 -63 -346l-43 -18q-8 23 -28 77l-39 111q-19 55 -21 63l-344 -12v-493q0 -279 12 -623l250 -59l-25 -70q-55 0 -165.5 1t-163.5 1q-57 0 -171 -1t-172 -1l19 70l223 59q4 68 4 555v561l-325 12 q-102 -203 -127 -237l-43 -12q-8 83 -9 216q0 67 2 146z" />
<glyph unicode="U" horiz-adv-x="1540" d="M68 1278l20 70q39 0 119 -1t121 -1q39 0 115.5 1t113.5 1l-18 -70l-107 -57v-760q0 -125 55 -207q109 -160 336 -160q205 0 318 142q66 84 71 245q3 118 4 260q0 213 -8 480l-145 57l20 70q35 0 102.5 -1t100.5 -1q41 0 122 1t118 1l-15 -70l-163 -59q-10 -51 -23 -727 q-4 -188 -88 -312q-150 -215 -455 -215q-348 0 -481 236q-59 102 -59 284q0 121 -1 299.5t-1 285t-2 155.5z" />
<glyph unicode="V" horiz-adv-x="1437" d="M18 1280l27 68q31 0 105.5 -1t117.5 -1q35 0 109 1t106 1l-18 -74l-66 -49q90 -236 381 -971h4q268 719 351 971l-86 53l22 70q23 0 76 -1t82 -1q35 0 106.5 1t108.5 1l-19 -70q-84 -29 -116.5 -48.5t-53.5 -47.5q-82 -160 -444 -1094q-43 -68 -94 -127h-29 q-211 567 -469 1200q-25 47 -60 66.5t-141 52.5z" />
<glyph unicode="W" horiz-adv-x="2113" d="M20 1280l29 68q37 0 109.5 -1t111.5 -1q31 0 96.5 1t98.5 1l-19 -68l-59 -39q35 -92 412 -1008h6q78 152 231 482q-129 309 -217 487q-33 49 -168 78l25 68q29 0 100.5 -1t108.5 -1q20 0 59 1t60 1l2 -9l10 -102q23 -68 137 -328h4q25 53 51.5 110.5t39 84t27.5 61.5 t28 74l6 100l4 9q18 0 51 -1t47 -1q37 0 104.5 1t100.5 1l-23 -68q-92 -27 -130 -46.5t-62 -53.5q-104 -182 -203 -381q8 -18 35 -80t87 -202t118 -273h4q219 580 362 989l-65 47l22 68q20 0 61.5 -1t63.5 -1q39 0 115 1t113 1l-19 -68q-133 -33 -176 -88 q-41 -70 -444 -1102q-39 -72 -97 -129h-18q-18 37 -115.5 267.5t-159.5 367.5h-4q-182 -367 -252 -514q-47 -76 -96 -121h-18q-2 4 -231.5 553t-293.5 682q-16 29 -49 45t-121 39z" />
<glyph unicode="X" horiz-adv-x="1454" d="M51 0l21 68l116 36q53 18 101 78q145 182 346 490q-219 379 -297 497q-35 59 -86 70l-158 43l33 66q43 0 133 -1t135 -1q43 0 113 1t98 1l-18 -70l-70 -49q129 -227 234 -387h4q156 248 231 381l-67 59l28 66q25 0 77 -1t75 -1q43 0 125 1t123 1l-21 -70 q-109 -25 -153 -47.5t-82 -67.5q-158 -211 -291 -407q299 -504 340 -568q33 -53 92 -69l184 -53l-28 -66q-49 0 -148.5 1t-150.5 1q-35 0 -107 -1t-109 -1l17 68l65 43q-139 250 -270 469h-4q-29 -47 -96.5 -149.5t-114.5 -176.5t-70 -119l109 -67l-18 -68q-33 0 -99.5 1 t-101.5 1q-39 0 -119 -1t-121 -1z" />
<glyph unicode="Y" horiz-adv-x="1314" d="M14 1280l27 68q43 0 125 -1t121 -1q33 0 96 1t94 1l-18 -72l-56 -39q41 -88 299 -541h7q143 264 276 531l-84 49l27 72q25 0 70.5 -1t68.5 -1q41 0 123 1t121 1l-25 -72l-76 -25q-49 -10 -75.5 -26.5t-53.5 -55.5q-131 -193 -309 -526q-23 -43 -22 -86q0 -391 6 -428 l250 -61l-23 -68q-49 0 -159.5 1t-170 1t-171 -1t-163.5 -1l21 63l207 64q14 123 14 414q0 41 -22 82q-152 272 -326 557q-29 39 -67 59.5t-132 40.5z" />
<glyph unicode="Z" horiz-adv-x="1335" d="M94 20q137 190 889 1221l-14 4q-29 0 -267 6q-178 5 -282 5q-35 0 -62 -1q-4 -10 -45 -109t-59 -136l-51 -23q-10 55 -27 369l10 10q160 -18 170 -18h895v-27q-4 -6 -337.5 -473t-520.5 -737v-5q61 0 342 -6t318 -6q10 14 90 133t104 152l43 10q-4 -57 -23.5 -203.5 t-31.5 -193.5q-18 0 -188 2t-431.5 4t-502.5 2z" />
<glyph unicode="[" horiz-adv-x="684" d="M223 -344v1800h383l-22 -80l-222 -47v-1546l244 -49l-22 -78h-361z" />
<glyph unicode="\" horiz-adv-x="712" d="M82 1384h127l416 -1480h-127z" />
<glyph unicode="]" horiz-adv-x="684" d="M78 -344l24 78l222 49v1546l-246 47l26 80h357v-1800h-383z" />
<glyph unicode="^" horiz-adv-x="1153" d="M147 535l355 768l145 20l359 -768l-134 -18l-297 665h-4l-284 -647z" />
<glyph unicode="_" horiz-adv-x="989" d="M0 -201h989v-98h-989v98z" />
<glyph unicode="`" horiz-adv-x="790" d="M104 1333v39q80 45 195 39l199 -340l-66 -61z" />
<glyph unicode="a" horiz-adv-x="962" d="M82 219q0 127 86 176q152 80 434 148v37q0 139 -55 191t-150 52q-66 0 -121 -37q-14 -129 -32 -198l-31 -15q-20 12 -68.5 78t-60.5 103q31 29 108.5 73.5t147.5 71.5q90 33 147 33q147 0 218 -98.5t71 -212.5q0 -74 -2 -231t-2 -220q49 -90 158 -123l-19 -43 q-51 -29 -104 -29q-158 0 -201 117h-2q-119 -119 -254 -119q-127 0 -197.5 77t-70.5 169zM266 254q0 -78 54.5 -115t117.5 -37q80 0 140 64q16 20 20 49l4 246q-158 -41 -256 -92q-80 -41 -80 -113v-2z" />
<glyph unicode="b" horiz-adv-x="1107" d="M39 1323l22 57q96 35 291 66q-6 -319 -6 -610q2 2 39 21.5t53.5 26.5t48 21.5t55 20.5t42.5 6q172 0 306 -122t134 -331q0 -131 -50 -233.5t-129 -158.5t-162 -85t-161 -29t-205 68q-72 -45 -149 -68v813q0 289 -6 486zM346 119q68 -37 148 -37q152 0 243.5 105.5 t91.5 267.5q0 147 -88 247.5t-229 100.5q-82 0 -166 -45v-639z" />
<glyph unicode="c" horiz-adv-x="950" d="M84 438v2q0 162 86 278t202.5 165t245.5 49q84 0 161 -24.5t100 -53.5q-27 -135 -74 -221l-43 -19q-39 98 -66 213q-25 16 -75 17q-156 0 -248 -110.5t-92 -266.5q0 -170 99 -274q97 -102 259 -103h6q10 0 57 21q96 74 170 112l21 -41q-14 -43 -59.5 -99t-77.5 -77 q-98 -33 -195 -33q-80 0 -157.5 25t-152.5 76t-121 145t-46 219z" />
<glyph unicode="d" horiz-adv-x="1130" d="M84 430q0 158 83 276.5t193.5 172t221.5 53.5q76 0 174 -60l2 2q0 182 -6 398l-140 53l25 55q98 39 305 66q-6 -307 -6 -623v-657q51 -82 158 -125l-21 -49q-37 -18 -98.5 -18.5t-119.5 28.5t-83 86h-4q-154 -115 -248 -115q-68 0 -139.5 26t-140 78t-112.5 144t-44 209z M276 463q0 -150 90.5 -252t225.5 -102q80 0 166 61v608q-70 45 -154 45q-139 0 -233.5 -106.5t-94.5 -253.5z" />
<glyph unicode="e" horiz-adv-x="948" d="M84 438q0 211 132 352.5t312 141.5q150 0 252.5 -95.5t102.5 -269.5q0 -59 -21 -71q-68 -31 -196 -31h-390v-23q0 -158 90.5 -253t227.5 -95q47 0 76 15q109 72 176 106l14 -45q-10 -31 -55 -82t-72 -70q-109 -45 -211 -45q-195 0 -316.5 125t-121.5 340zM281 557h403 q8 33 8 57q0 100 -48 164t-132 64q-76 0 -132 -55.5t-77.5 -117t-21.5 -112.5z" />
<glyph unicode="f" horiz-adv-x="641" d="M51 0l15 59l137 60q4 53 4 405v271l-139 32l34 80h105q0 276 143 420q115 119 273 119q90 0 149 -43q-39 -135 -67 -191l-39 -20q-37 55 -82 158q-8 2 -25 2q-145 0 -164 -291q-2 -33 -4 -89.5t-2 -64.5h270l-38 -82l-230 -26q-6 -117 -6 -258q0 -389 2 -416l201 -57 l-19 -68q-43 0 -137 1t-145 1q-39 0 -117 -1t-119 -1z" />
<glyph unicode="g" horiz-adv-x="1019" d="M70 -250q0 31 32 68l158 176v4q-57 31 -94 68q-66 66 -66 139q0 18 46.5 68.5t97.5 91.5q-123 80 -123 237q0 133 106.5 231.5t282.5 98.5q47 0 158 -17q98 -18 153 -24l183 70l8 -23l-86 -129l-144 -8l-2 -4q66 -59 66 -187q0 -141 -104.5 -229t-264.5 -88 q-94 0 -172 37q-57 -53 -57 -88q0 -33 30.5 -64t71.5 -33q147 14 262 14q86 0 152 -7q84 -10 141 -58q74 -61 74 -172q0 -170 -178 -293q-162 -119 -369 -118q-158 0 -260 68.5t-102 170.5zM244 -190q0 -92 78.5 -137.5t183.5 -45.5q129 0 223 59.5t94 166.5q0 100 -100 124 q-63 14 -205 15h-2q-113 0 -170 -21q-31 -31 -66.5 -81.5t-35.5 -79.5zM303 610q0 -90 48 -159.5t138 -69.5q86 0 134.5 62.5t48.5 166.5q0 94 -49.5 165t-135.5 71h-2q-86 0 -134 -69t-48 -167z" />
<glyph unicode="h" horiz-adv-x="1161" d="M57 0l19 63l112 58v66q0 60 1 169t1 230q0 483 -6 686l-123 53l17 55q92 31 297 66q-6 -270 -6 -633l4 -2q158 121 289 121q147 0 228 -98.5t81 -212.5v-461q0 -25 7 -33t34 -21l110 -49l-18 -63q-28 -1 -55 -1q-138 0 -273 17q16 137 17 520q0 272 -224 273 q-100 0 -200 -74q0 -569 2 -608l151 -58l-20 -63q-39 0 -111 1t-110 1q-37 0 -111 -1t-113 -1z" />
<glyph unicode="i" horiz-adv-x="575" d="M68 0l18 68l117 55q0 12 1 157.5t1 241.5v244l-113 53l10 53q131 47 281 62v-416q0 -346 2 -395l150 -55l-19 -68q-35 0 -113.5 1t-119.5 1q-31 0 -102.5 -1t-112.5 -1zM160 1206l6 19q49 82 119 127l14 2q25 -8 60.5 -48t52.5 -77l-6 -17q-12 -31 -51.5 -70.5 t-65.5 -56.5l-17 -4q-63 35 -112 125z" />
<glyph unicode="j" horiz-adv-x="544" d="M-53 -430q106 74 164.5 192.5t71 215t12.5 231.5q0 358 -5 563q-10 4 -52 20.5t-66 26.5l18 53q41 16 135 38t148 24v-729q0 -201 -76 -346q-117 -227 -283 -351l-65 37zM139 1206l6 19q59 88 121 127l15 2q23 -8 58.5 -49t51.5 -76l-4 -17q-12 -31 -52 -70.5t-67 -56.5 l-16 -4q-29 16 -63 54t-50 71z" />
<glyph unicode="k" horiz-adv-x="1050" d="M57 0l19 63l112 58q4 94 5 467q0 498 -7 684l-116 53l24 57q164 51 281 64q-6 -301 -6 -690q0 -561 4 -635l151 -55l-16 -66q-39 0 -118 1t-118 1q-35 0 -106.5 -1t-108.5 -1zM406 485q219 248 280 334l39 115q199 -4 289 -27l-37 -63q-10 -6 -51 -22.5t-89.5 -34 t-64.5 -23.5q-94 -90 -194 -203v-6q119 -162 466 -575l-12 -15q-100 4 -164.5 25.5t-124.5 79.5q-121 113 -335 403z" />
<glyph unicode="l" horiz-adv-x="561" d="M45 0l14 63l129 54v95q0 73 1 229.5t1 377.5q0 360 -6 461l-123 45l29 59q131 43 285 62q-6 -307 -6 -619q0 -238 1 -453.5t1 -258.5l151 -45l-24 -70q-43 0 -114 1t-103 1q-39 0 -118 -1t-118 -1z" />
<glyph unicode="m" horiz-adv-x="1763" d="M74 0l16 70l113 51q4 86 4 403v230l-113 43l21 57q37 18 131 47t137 31l-10 -164l2 -2q201 166 325 166q82 0 150 -46t98 -122q197 168 342 168q127 0 205 -89t78 -225v-471q0 -23 39 -38l114 -43l-16 -66q-35 0 -108.5 1t-112.5 1q-31 0 -99.5 -1t-109.5 -1l16 68l95 55 q0 4 3 145q2 85 2 167q0 55 -1 108q0 256 -193 256q-104 0 -235 -117q12 -82 12 -166v-393l123 -57l-19 -66q-27 0 -92 1t-100 1q-31 0 -100.5 -1t-106.5 -1l16 70l99 51q0 51 1 197.5t1 242.5q0 236 -197 236q-90 0 -221 -117q0 -494 2 -559l127 -51l-18 -70q-25 0 -94.5 1 t-110.5 1q-33 0 -105.5 -1t-109.5 -1z" />
<glyph unicode="n" horiz-adv-x="1173" d="M72 0l20 68l111 51q4 70 4 463v168l-113 45l21 59q29 16 127 46t143 32l-12 -158l4 -2q195 160 321 160q104 0 172 -54.5t90.5 -126t22.5 -159.5v-442q0 -23 29 -37l125 -45l-19 -68q-31 0 -110.5 1t-120.5 1q-29 0 -93.5 -1t-103.5 -1l21 72l90 55q0 14 1 73.5t2 162 t1 219.5q0 109 -52.5 162t-136.5 53q-59 0 -122.5 -33t-108.5 -78q0 -522 2 -569l119 -47l-19 -70q-27 0 -94 1t-102 1t-108.5 -1t-110.5 -1z" />
<glyph unicode="o" horiz-adv-x="1099" d="M84 440q0 223 148.5 357.5t324.5 134.5h2q190 0 323.5 -132t133.5 -337q0 -217 -132 -353.5t-331 -136.5q-186 0 -327.5 125t-141.5 342zM291 455q0 -154 72.5 -274t201.5 -120q88 0 145.5 62.5t78 143.5t20.5 175q0 160 -69.5 281t-192.5 121h-2q-121 0 -187.5 -111.5 t-66.5 -277.5z" />
<glyph unicode="p" horiz-adv-x="1128" d="M57 -453l27 74l100 43q8 197 9 537v563l-117 61l24 56q25 12 119 31.5t152 21.5l-11 -127l7 -2q182 127 272 127q150 0 277.5 -118t127.5 -325q0 -104 -33.5 -192t-87 -146.5t-121 -99.5t-133 -59.5t-124.5 -18.5q-33 0 -85 19.5t-85 42.5l-4 -4q0 -209 8 -361l192 -55 l-24 -68q-45 0 -131 1t-133 1q-35 0 -111 -1t-115 -1zM371 129q78 -45 153 -45q133 0 230.5 104.5t97.5 266.5q0 145 -82 244.5t-211 99.5q-82 0 -188 -74v-596z" />
<glyph unicode="q" horiz-adv-x="1118" d="M86 436q0 199 150.5 347.5t351.5 148.5q92 0 198 -72q33 23 99.5 46.5t109.5 27.5l9 -19q-12 -76 -66 -153v-488q0 -131 1 -353t1 -251l176 -51l-18 -72q-41 0 -125 1t-127 1q-41 0 -128 -1t-132 -1l18 68l146 53q8 233 10 387l-4 2q-143 -84 -224 -84q-188 0 -317 130 t-129 333zM283 461q0 -158 92 -258.5t227 -100.5q82 0 158 45v627q-63 47 -148 47q-139 0 -234 -105t-95 -255z" />
<glyph unicode="r" horiz-adv-x="817" d="M70 0l14 63l117 58q6 233 6 627l-113 57l23 57q29 16 112.5 43t128.5 29q20 -92 21 -195h4q59 96 137 145.5t150 49.5q74 0 108 -41q-14 -117 -69 -227l-33 -17q-33 43 -76 131q-16 8 -33 8q-43 0 -100 -51t-82 -116v-502l215 -56l-14 -63q-43 0 -140.5 1t-150.5 1 q-37 0 -113.5 -1t-111.5 -1z" />
<glyph unicode="s" horiz-adv-x="823" d="M76 59q0 25 18.5 117t26.5 115l39 18q6 -10 102 -225q59 -23 125 -23q82 0 134 41t52 99q0 76 -77 116q-18 10 -209 101q-182 82 -183 246q0 104 80 186t232 82h2q82 0 157 -49q47 31 107 53l20 -18q0 -25 -18 -123.5t-33 -132.5l-39 -17q-29 55 -71 162q-35 35 -119 35 q-74 0 -113 -39t-39 -96q0 -61 68 -105q29 -16 133 -63t135 -64q147 -76 148 -211q0 -82 -39 -142.5t-100.5 -91t-121 -44t-114.5 -13.5q-170 0 -303 86z" />
<glyph unicode="t" horiz-adv-x="704" d="M41 819l37 88h104q35 182 54 240q23 23 65.5 41t65.5 18l-7 -299h322l-41 -90l-281 -24q0 -27 -1 -218.5t-1 -318.5q0 -76 37 -113q35 -31 99 -30q106 0 170 47l10 -2v-78q-92 -106 -244 -107q-125 0 -201 86q-49 66 -49 224v510z" />
<glyph unicode="u" horiz-adv-x="1142" d="M68 825l22 62q121 33 279 33q-14 -162 -15 -598q0 -96 39 -148q51 -59 148 -59q68 0 130 31.5t93 84.5v508q-4 31 -29.5 47.5t-111.5 42.5l26 58q107 33 264 33h35q-6 -96 -6 -750q49 -90 162 -121l-19 -45q-47 -29 -122 -29q-68 0 -121.5 35t-69.5 115h-4 q-147 -152 -299 -152q-131 0 -211 80q-82 80 -82 266q0 63 3 228.5t3 232.5z" />
<glyph unicode="v" horiz-adv-x="972" d="M-10 842l22 65q31 0 95.5 -1t99.5 -1q37 0 104.5 1t100.5 1l-23 -73l-72 -41q39 -111 215 -551l5 -2q8 25 36.5 97.5t71.5 184t98 262.5l-108 54l20 69q18 0 75.5 -1t84.5 -1q31 0 92.5 1t87.5 1l-20 -71q-53 -18 -78 -36t-53 -59q-20 -41 -127 -289.5t-158 -377.5 q-35 -66 -84 -111h-20q-8 16 -48 118.5t-117 294t-149 365.5q-25 43 -54 60.5t-97 40.5z" />
<glyph unicode="w" horiz-adv-x="1466" d="M6 838l23 69q39 0 107.5 -1t99 -1t100.5 1t100 1l-18 -71l-84 -43q4 -12 174 -547h6q18 49 84 214t98 253l-20 118q14 14 72.5 42t89.5 34l18 -12l6 -150q78 -217 195 -518h4q104 330 166 561l-113 50l23 69q27 0 84 -1t85.5 -1t84 1t84.5 1l-15 -69q-90 -31 -123 -78 q-51 -123 -252 -701q-33 -47 -90 -96h-20q-203 518 -234 598h-4q-39 -92 -100.5 -240.5t-108.5 -261.5q-29 -43 -86 -96h-18q-274 778 -281 795q-18 31 -44.5 46.5t-92.5 33.5z" />
<glyph unicode="x" horiz-adv-x="1026" d="M12 0l17 66l108 47q57 23 92 69q14 20 46 61.5t67 88.5t80 114q-168 285 -193 318q-27 33 -192 76l26 67q27 0 85.5 -1t89.5 -1q27 0 83 1t91 1l-11 -86l131 -219h5q16 27 51 82t55 94q25 49 25 129q20 0 63 -1t64 -1q33 0 96 1t90 1l-20 -69q-156 -45 -211 -99 q-143 -182 -168 -219q84 -160 211 -348q33 -45 79 -59l150 -43l-25 -70q-18 0 -138 -5t-181 -5q-84 164 -207 366h-4q-104 -164 -139 -233q0 -25 47 -62l-17 -61q-27 0 -84 1t-86 1q-33 0 -94.5 -1t-81.5 -1z" />
<glyph unicode="y" horiz-adv-x="962" d="M-4 842l24 65q33 0 97.5 -1t95.5 -1q35 0 105.5 1t105.5 1l-18 -69l-70 -41q29 -90 194 -551h5q152 397 198 547l-92 47l18 67q23 0 72 -1t72 -1q33 0 94 1t90 1l-14 -65q-90 -35 -133 -92q-18 -41 -416 -990q-10 -41 -27.5 -122.5t-27.5 -124.5q-16 -8 -52 -9 q-49 0 -98 26t-65 52q29 61 190 242q20 45 88 192q-8 16 -65.5 166t-124 325t-92.5 238q-18 37 -46 54.5t-108 42.5z" />
<glyph unicode="z" horiz-adv-x="944" d="M66 20q299 428 542 795l-2 4q-111 0 -336 -10q-84 -145 -102 -166l-43 -10q-6 27 -10 139q-2 56 -2 92.5t2 53.5l6 6l155 -17h564l12 -22q-61 -102 -274 -423t-244 -368v-4q311 0 360 16q102 141 146 187l43 12q-14 -203 -49 -315q-10 0 -164 5t-264 5h-338z" />
<glyph unicode="{" horiz-adv-x="684" d="M115 551l12 39l199 135q-61 207 -62 424q0 102 104.5 199.5t215.5 132.5l28 -74q-98 -53 -138 -121.5t-40 -171.5q0 -193 29 -405l-205 -136v-4l205 -135q-29 -303 -29 -438q0 -98 41 -165t137 -126l-28 -72q-115 35 -217.5 130.5t-102.5 197.5q0 174 62 455z" />
<glyph unicode="|" horiz-adv-x="737" d="M295 -494v1977h147v-1977h-147z" />
<glyph unicode="}" horiz-adv-x="684" d="M90 -295q98 53 140 124t42 171q0 184 -32 434l215 133v2l-215 140q33 340 32 413q0 96 -42 163t-140 122l27 72q115 -33 220 -128.5t105 -199.5q0 -213 -65 -426l211 -135l-13 -37l-198 -139q66 -229 65 -447q0 -104 -104.5 -201.5t-220.5 -132.5z" />
<glyph unicode="~" horiz-adv-x="1325" d="M137 371q119 272 314 272q16 0 30.5 -1t30.5 -6t27.5 -8t31 -13.5t26.5 -13.5t28.5 -16.5t26.5 -16.5t30 -19.5t29 -18.5q125 -82 192 -81q53 0 100.5 44t102.5 150l80 -51q-68 -143 -138.5 -204.5t-168.5 -61.5q-92 0 -244 100q-4 4 -23.5 16.5t-25.5 15.5t-22.5 13 t-22.5 13t-20.5 11.5t-23 10.5t-20.5 6t-23.5 5t-21.5 1q-59 0 -108.5 -50t-102.5 -149z" />
<glyph unicode="&#xa1;" horiz-adv-x="493" d="M90 764l4 22q14 31 57.5 75t69.5 59l21 6q33 -16 69.5 -58.5t57.5 -76.5l-4 -21q-70 -96 -132 -135l-16 -6q-25 10 -67 55t-60 80zM102 -424q82 795 88 846l78 39q43 -582 62 -713l45 -110q-31 -23 -100.5 -47.5t-149.5 -30.5z" />
<glyph unicode="&#xa2;" d="M113 637q0 211 137 336t317 149v158l80 18v-172q96 0 191.5 -32.5t132.5 -67.5q-33 -121 -78 -197l-41 -20q-31 70 -64 201q-47 27 -141 20v-743q55 -6 109 6q111 92 186 135l25 -47q-16 -39 -61.5 -94.5t-86.5 -79.5q-86 -29 -172 -29v-160l-80 -26v184q-84 6 -159.5 33 t-144 79t-109.5 142t-41 207zM311 657.5q0 -137.5 66.5 -231.5t189.5 -125v721q-127 -35 -191.5 -131t-64.5 -233.5z" />
<glyph unicode="&#xa3;" d="M10 0v31l72 75q53 16 70 35q94 143 88 475l-207 17l35 84h170v59q0 346 215 496q100 68 237 67q63 0 122.5 -20.5t84.5 -44.5q-6 -41 -30.5 -119t-37.5 -102l-47 -21q-27 68 -69 213q-16 4 -33 4q-123 0 -190.5 -102.5t-61.5 -302.5q0 -37 4 -127h363l-35 -84l-332 -17 q-6 -291 -164 -471v-6q72 -2 282 2t257 9q115 174 127 188l63 -39q-49 -231 -78 -309q-10 0 -187 5t-296 5h-422z" />
<glyph unicode="&#xa4;" d="M78 1030l86 103l123 -138q111 86 245 86q127 0 236 -88l113 137l88 -88l-127 -120q86 -117 86 -252q0 -147 -99 -264l129 -107l-90 -98l-114 133q-92 -74 -230 -74q-59 0 -127.5 20.5t-109.5 55.5l-113 -135l-82 96l125 102q-94 117 -94 271q0 147 86 250zM264 672 q0 -131 76 -218t186 -87q117 0 188.5 86t71.5 219q0 129 -75.5 216t-184.5 87h-2q-117 0 -188.5 -88t-71.5 -215z" />
<glyph unicode="&#xa5;" d="M23 1245l18 70q31 0 92.5 -1t91.5 -1q39 0 118 1t118 1l-27 -70l-102 -39l225 -452h4q158 299 232 448l-144 45l31 68q18 0 81.5 -1t98.5 -1q29 0 91.5 1t99.5 1l-19 -68l-117 -53q-172 -283 -280 -481h272l-26 -84h-279l2 -150h303l-26 -82h-277q4 -231 8 -282l189 -49 l-19 -66q-43 0 -129 1t-129 1q-47 0 -141 -1t-143 -1l18 66l158 49q8 29 12 282h-305l27 82h278l2 150h-305l25 84h247l-266 491z" />
<glyph unicode="&#xa6;" horiz-adv-x="737" d="M295 -375v752h147v-752h-147zM295 614v750h147v-750h-147z" />
<glyph unicode="&#xa7;" horiz-adv-x="946" d="M63 823q0 254 269 414q98 61 190 61q76 0 109 -26q27 18 121 51l22 -8q-31 -195 -63 -262l-39 -19q-27 43 -64 156q-35 23 -86 22q-61 0 -93 -30.5t-32 -75.5t43 -111q43 -63 254 -319q170 -209 170 -375q0 -113 -61.5 -225.5t-175.5 -200.5q-125 -102 -262 -102 q-145 0 -238 71q0 27 22.5 101.5t38.5 101.5l39 19q8 -14 27.5 -82t34.5 -111q27 -16 86 -16q61 0 114.5 36.5t53.5 88.5q0 43 -27 93t-100 138q-92 113 -201 258q-152 192 -152 352zM186 883q0 -123 119 -283q35 -47 115 -144.5t123 -156.5q115 -152 114 -246q0 -25 -2 -39 l4 2q78 92 78 215q0 141 -119 295q-47 59 -104 131t-87 109t-58 82q-84 121 -84 209q0 10 6 59h-6q-99 -102 -99 -233z" />
<glyph unicode="&#xa8;" horiz-adv-x="790" d="M80 1188l4 18q49 76 111 119l18 4q20 -12 55 -51t49 -68l-4 -16q-20 -55 -106 -121l-19 -4q-29 18 -60.5 53t-47.5 66zM473 1188l2 18q51 76 111 119l18 4q18 -10 54 -50t53 -69l-4 -16q-20 -55 -107 -121l-18 -4q-29 18 -61 53t-48 66z" />
<glyph unicode="&#xa9;" horiz-adv-x="1482" d="M94 655q0 283 187.5 476.5t461.5 193.5h2q272 0 459 -193.5t187 -476.5q0 -279 -186.5 -470t-461 -191t-462 190t-187.5 471zM203 657q0 -244 155.5 -407.5t389.5 -163.5q229 0 381.5 164t152.5 407q0 246 -152.5 411t-381.5 165h-3q-231 0 -386.5 -165t-155.5 -411z M408 657q0 92 38.5 163t100 109t123 55t121.5 17h2q76 0 127 -24q20 6 57 16.5t43 12.5l16 -9q0 -27 -14 -112.5t-21 -96.5l-30 -18q-31 41 -68 137q-39 20 -92 21q-96 0 -170 -73t-74 -187.5t75 -190.5t194 -76q10 0 45 11q16 14 48 42.5t52 47t31 24.5l30 -24 q-2 -25 -30.5 -84.5t-42.5 -73.5q-80 -27 -174 -27q-164 0 -275.5 91t-111.5 249z" />
<glyph unicode="&#xaa;" horiz-adv-x="630" d="M63 745q0 66 50 97q90 49 276 86v16q2 121 -117 121q-35 0 -61 -14q-14 -74 -35 -119l-26 -14q-10 4 -39 48t-33 70q55 47 153 84q59 18 91 19q102 0 148 -57.5t46 -139.5q0 -88 -4 -223q20 -31 96 -80l-14 -31q-20 -14 -68 -14q-96 0 -133 76q-94 -76 -164 -76 q-74 0 -120 46t-46 105zM197 760q0 -33 26.5 -54.5t59.5 -21.5q55 0 96 37q10 14 10 33v112q-80 -14 -147 -47q-45 -20 -45 -59z" />
<glyph unicode="&#xab;" horiz-adv-x="1093" d="M102 451q203 184 383 407l66 -45q-70 -129 -223 -362q170 -242 225 -365l-61 -43q-94 123 -208 239t-182 169zM530 451q227 221 381 407l64 -45q-29 -47 -103.5 -173t-115.5 -189q158 -221 231 -365l-67 -43q-106 129 -219.5 245t-170.5 163z" />
<glyph unicode="&#xac;" horiz-adv-x="1312" d="M180 567l37 123h913v-586l-139 -30v493h-811z" />
<glyph unicode="&#xad;" horiz-adv-x="800" d="M94 373l70 166l112 -4l426 26l3 -14l-93 -113z" />
<glyph unicode="&#xae;" horiz-adv-x="688" d="M57 1057q0 121 83 206t204 85h2q121 0 204 -82t83 -205q0 -125 -84 -208t-207 -83q-121 0 -203 82t-82 205zM133 1061q0 -96 61.5 -164t149.5 -68q92 0 152.5 67t60.5 167q0 96 -61.5 160.5t-151.5 64.5h-2q-88 0 -148.5 -65.5t-60.5 -161.5zM209 934l6 24l33 17v182 l-39 4l8 29q49 12 121 12q119 -2 119 -69q0 -39 -56 -68q31 -53 56 -84q33 -47 35 -51l-11 -2q-53 0 -92 30q-23 25 -65 105q35 12 48 22.5t13 32.5q0 25 -21.5 38t-50.5 9v-192l41 -15l-6 -24h-139z" />
<glyph unicode="&#xaf;" horiz-adv-x="790" d="M143 1116l35 131h469l-35 -131h-469z" />
<glyph unicode="&#xb0;" horiz-adv-x="593" d="M68 1092q0 96 66.5 163.5t162.5 67.5h2q94 0 159.5 -67.5t65.5 -163.5q0 -98 -66.5 -165t-160.5 -67q-96 0 -161.5 67t-67.5 165zM172 1092q0 -63 37 -104.5t88 -41.5t89 41t38 105q0 61 -37 103t-90 42h-2q-53 0 -88 -42t-35 -103z" />
<glyph unicode="&#xb1;" horiz-adv-x="1312" d="M147 0l27 123h989l-24 -123h-992zM147 676l27 123h414v387l139 24v-411h436l-24 -123h-412v-422l-139 -25v447h-441z" />
<glyph unicode="&#xb2;" horiz-adv-x="698" d="M66 866l2 27l49 68q29 14 39 24q154 129 204 197q70 94 70 186q0 59 -37 101t-104 42q-31 0 -66 -12q-4 -23 -24.5 -90.5t-28.5 -83.5l-35 -18q-35 45 -65 166q135 123 276 122q94 0 168 -55t74 -170q0 -23 -5 -45t-10.5 -39.5t-20.5 -39t-24.5 -36t-33 -37t-37 -35 t-45 -38t-47 -36.5t-54.5 -41t-55 -42q35 0 139.5 4t124.5 4q43 61 76 105l45 -37q-25 -111 -59 -197q-8 0 -112.5 3t-176.5 3h-227z" />
<glyph unicode="&#xb3;" horiz-adv-x="698" d="M76 926q20 78 63 147l31 14q25 -45 59 -151q25 -10 64 -10q74 0 123 41t49 106q0 117 -131 125q-109 -23 -119 -18l-16 16q0 10 19.5 44t33.5 46q6 0 38 -3t46 -3q96 29 96 117q0 49 -33.5 84t-97.5 35q-31 0 -76 -19q-25 -98 -43 -131l-32 -14q-29 45 -58 135 q51 45 124 76.5t136 31.5q121 0 175.5 -50t54.5 -120q0 -113 -148 -168v-10q193 -25 193 -172q0 -109 -100.5 -167t-211.5 -58q-74 0 -141 22.5t-98 53.5z" />
<glyph unicode="&#xb4;" horiz-adv-x="790" d="M309 1067l230 344q74 -2 174 -45v-31l-338 -323z" />
<glyph unicode="&#xb5;" horiz-adv-x="1142" d="M168 -229v573q0 96 2 305t2 238q23 14 81 29.5t107 17.5l5 -6q-2 -25 -7.5 -115t-11.5 -217t-10 -277q-2 -86 41 -137q57 -70 153 -69q66 0 129.5 36.5t98.5 92.5v645q18 12 91 30.5t124 16.5l10 -19q-33 -86 -47 -129v-647q23 -41 174 -49l-14 -59q-68 -57 -172 -58 q-57 0 -105.5 37t-54.5 115l-4 2q-137 -154 -279 -154q-88 0 -149 62h-6q-20 -381 20 -516l-27 -8q-80 8 -115.5 69.5t-35.5 190.5z" />
<glyph unicode="&#xb6;" horiz-adv-x="1056" d="M82 600q0 223 165 362.5t386 139.5h31l8 217l176 29l-66 -244l-2 -1012q0 -176 -35.5 -301t-94 -186.5t-115 -87t-113.5 -25.5q-39 0 -86 29q-63 57 -78 108l23 33q43 -14 106 -14q283 0 283 436v68q-68 -31 -111 -31q-176 0 -326.5 131t-150.5 348z" />
<glyph unicode="&#xb7;" horiz-adv-x="466" d="M90 453l6 20q59 96 131 139l17 6q27 -12 68.5 -57t62.5 -82l-8 -20q-12 -35 -54.5 -78t-74.5 -62l-17 -6q-33 18 -72 61.5t-59 78.5z" />
<glyph unicode="&#xb8;" horiz-adv-x="790" d="M336 -199l139 201h96l-79 -119q70 -41 95 -73.5t25 -83.5q0 -141 -235 -213l-37 75q125 51 125 111q0 29 -26.5 48t-102.5 54z" />
<glyph unicode="&#xb9;" horiz-adv-x="698" d="M113 1438l16 55q106 45 270 102h27q0 -76 4 -350t4 -284l156 -33l-21 -62q-37 0 -106.5 1t-106.5 1q-41 0 -118.5 -1t-118.5 -1l24 62l127 33q14 301 15 485z" />
<glyph unicode="&#xba;" horiz-adv-x="692" d="M57 860q0 131 90.5 207t202.5 76h2q119 0 202 -74t83 -190q0 -125 -83 -203t-208 -78q-119 0 -204 69.5t-85 192.5zM209 874q0 -82 41 -144t102 -62q66 0 100.5 60t34.5 146q0 74 -37.5 136.5t-105.5 62.5h-2q-61 0 -97 -60.5t-36 -138.5z" />
<glyph unicode="&#xbb;" horiz-adv-x="1093" d="M104 815l68 43q193 -238 383 -409q-246 -246 -375 -406l-63 45q25 41 101.5 168t119.5 193q-168 231 -234 366zM535 815l65 43q186 -242 389 -409q-201 -176 -383 -406l-65 45q63 121 223 361q-170 243 -229 366z" />
<glyph unicode="&#xbc;" horiz-adv-x="1533" d="M115 1182l16 55q106 45 270 102h27q0 -76 4 -350t4 -284l156 -33l-21 -62q-35 0 -106.5 1t-106.5 1q-39 0 -118.5 -1t-118.5 -1l24 62l127 33q14 301 15 485zM287 -23q127 205 417.5 672t444.5 715l76 -57q-250 -395 -869 -1391zM776 242q59 98 175 265t141 185 q20 20 168 35v-451h63q16 20 59 64l31 -10q0 -14 -10 -90t-14 -93l-31 -10q-14 18 -41 70l-57 -2l4 -121l129 -31l-19 -55h-186h-217l14 53l125 33l6 113l-317 -4zM905 281l215 -5l17 349h-13q-106 -149 -219 -344z" />
<glyph unicode="&#xbd;" horiz-adv-x="1533" d="M106 1182l17 55q106 45 270 102h27q0 -76 4 -350t4 -284l156 -33l-21 -62q-35 0 -106.5 1t-106.5 1q-39 0 -118.5 -1t-118.5 -1l24 62l127 33q14 301 15 485zM274 -23q127 205 418 672t445 715l75 -57q-250 -395 -868 -1391zM883 -2l2 27l49 67q29 14 39 25 q154 129 205 196q70 94 69 187q0 59 -36.5 101t-104.5 42q-33 0 -66 -12q-4 -23 -24.5 -90.5t-28.5 -83.5l-35 -19q-35 45 -65 166q135 123 276 123q94 0 168 -55.5t74 -169.5q0 -23 -5 -45.5t-10.5 -40t-20.5 -39t-24.5 -35.5t-33 -36.5t-36.5 -35t-45 -38t-47.5 -37 t-54 -41t-55.5 -41.5q33 0 137.5 4t126.5 4q43 61 76 104l45 -37q-25 -111 -59 -196q-8 0 -112.5 3t-176.5 3h-227z" />
<glyph unicode="&#xbe;" horiz-adv-x="1533" d="M102 670q20 78 64 147l31 14q25 -45 59 -151q27 -10 63 -10q74 0 123.5 41t49.5 106q0 117 -132 125q-109 -23 -118 -18l-17 16q0 10 19.5 44t34.5 46q4 2 36.5 -2t46.5 -4q96 29 97 117q0 49 -34 84t-97 35q-29 0 -76 -19q-25 -98 -43 -131l-33 -14q-29 45 -57 135 q51 45 123.5 76.5t136.5 31.5q121 0 175 -50t54 -120q0 -113 -147 -168v-10q193 -25 192 -172q0 -109 -100 -167t-211 -58q-74 0 -141.5 22.5t-98.5 53.5zM305 -23q127 205 418 672t444 715l76 -57q-250 -395 -868 -1391zM778 242q59 98 175 265t141 185q20 20 168 35v-451 h63q16 20 59 64l31 -10q0 -14 -10 -90t-14 -93l-31 -10q-16 18 -41 70l-57 -2l4 -121l129 -31l-19 -55h-186h-217l14 53l125 33l6 113l-317 -4zM907 281l215 -5l17 349h-13q-106 -149 -219 -344z" />
<glyph unicode="&#xbf;" horiz-adv-x="819" d="M76 -143q0 74 38 133t113 125q174 141 174 211q0 45 -36 100l67 37q43 -23 88 -81t47 -128q-45 -106 -184 -229q-76 -68 -102.5 -112t-26.5 -91q0 -59 49 -110.5t129 -51.5q63 0 98 21q29 137 66 206l39 15q59 -92 90 -215q-59 -53 -152.5 -90t-171.5 -37h-2 q-129 0 -226 76t-97 221zM291 764l6 22q14 31 57 75t70 59l20 6q70 -39 127 -133l-4 -23q-61 -92 -131 -135l-16 -6q-25 10 -68 55t-61 80z" />
<glyph unicode="&#xc0;" horiz-adv-x="1470" d="M20 0l19 68l141 63q193 401 443 1040q14 51 8 68l-23 57l164 99l10 -11q0 -55 31 -145q27 -74 424 -1055q23 -41 57.5 -61.5t155.5 -54.5l-20 -68q-37 0 -119 1t-123 1q-33 0 -106.5 -1t-116.5 -1l16 59l72 56q-10 35 -144 360q-197 -14 -460 -10q-27 -68 -55.5 -141.5 t-44 -114.5t-30.5 -78l183 -63l-17 -68q-39 0 -121.5 1t-123.5 1q-37 0 -110 -1t-110 -1zM393 1657q66 98 127 125l342 -242l-41 -70l-422 158zM494 586q25 0 179 -4t201 -4q-74 197 -186 509h-4q-43 -115 -85 -224t-64.5 -169.5t-40.5 -107.5z" />
<glyph unicode="&#xc1;" horiz-adv-x="1470" d="M20 0l19 68l141 63q193 401 443 1040q14 51 8 68l-23 57l164 99l10 -11q0 -55 31 -145q27 -74 424 -1055q23 -41 57.5 -61.5t155.5 -54.5l-20 -68q-37 0 -119 1t-123 1q-33 0 -106.5 -1t-116.5 -1l16 59l72 56q-10 35 -144 360q-197 -14 -460 -10q-27 -68 -55.5 -141.5 t-44 -114.5t-30.5 -78l183 -63l-17 -68q-39 0 -121.5 1t-123.5 1q-37 0 -110 -1t-110 -1zM494 586q25 0 179 -4t201 -4q-74 197 -186 509h-4q-43 -115 -85 -224t-64.5 -169.5t-40.5 -107.5zM580 1516l333 231q35 -8 79 -46t63 -73l-6 -31l-435 -157z" />
<glyph unicode="&#xc2;" horiz-adv-x="1470" d="M20 0l19 68l141 63q193 401 443 1040q14 51 8 68l-23 57l164 99l10 -11q0 -55 31 -145q27 -74 424 -1055q23 -41 57.5 -61.5t155.5 -54.5l-20 -68q-37 0 -119 1t-123 1q-33 0 -106.5 -1t-116.5 -1l16 59l72 56q-10 35 -144 360q-197 -14 -460 -10q-27 -68 -55.5 -141.5 t-44 -114.5t-30.5 -78l183 -63l-17 -68q-39 0 -121.5 1t-123.5 1q-37 0 -110 -1t-110 -1zM408 1513q16 14 120.5 95.5t159.5 124.5h55q16 -14 121 -95.5t160 -124.5l-47 -71q-172 86 -262 127q-8 -4 -266 -127zM494 586q25 0 179 -4t201 -4q-74 197 -186 509h-4 q-43 -115 -85 -224t-64.5 -169.5t-40.5 -107.5z" />
<glyph unicode="&#xc3;" horiz-adv-x="1470" d="M20 0l19 68l141 63q193 401 443 1040q14 51 8 68l-23 57l164 99l10 -11q0 -55 31 -145q27 -74 424 -1055q23 -41 57.5 -61.5t155.5 -54.5l-20 -68q-37 0 -119 1t-123 1q-33 0 -106.5 -1t-116.5 -1l16 59l72 56q-10 35 -144 360q-197 -14 -460 -10q-27 -68 -55.5 -141.5 t-44 -114.5t-30.5 -78l183 -63l-17 -68q-39 0 -121.5 1t-123.5 1q-37 0 -110 -1t-110 -1zM408 1497q96 197 206 197q47 0 125 -49q84 -49 115 -50q45 0 121 97l67 -52q-49 -96 -107 -141t-108 -45q-47 0 -139 55q-70 41 -94 41q-45 0 -119 -104zM494 586q25 0 179 -4t201 -4 q-74 197 -186 509h-4q-43 -115 -85 -224t-64.5 -169.5t-40.5 -107.5z" />
<glyph unicode="&#xc4;" horiz-adv-x="1470" d="M20 0l19 68l141 63q193 401 443 1040q14 51 8 68l-23 57l164 99l10 -11q0 -55 31 -145q27 -74 424 -1055q23 -41 57.5 -61.5t155.5 -54.5l-20 -68q-37 0 -119 1t-123 1q-33 0 -106.5 -1t-116.5 -1l16 59l72 56q-10 35 -144 360q-197 -14 -460 -10q-27 -68 -55.5 -141.5 t-44 -114.5t-30.5 -78l183 -63l-17 -68q-39 0 -121.5 1t-123.5 1q-37 0 -110 -1t-110 -1zM383 1573l4 16q53 78 113 119l16 6q20 -10 57 -50t52 -69l-4 -16q-12 -29 -48 -66.5t-61 -54.5l-18 -4q-64 35 -111 119zM494 586q25 0 179 -4t201 -4q-74 197 -186 509h-4 q-43 -115 -85 -224t-64.5 -169.5t-40.5 -107.5zM815 1573l2 16q57 80 115 119l16 6q20 -10 57 -50t52 -69l-4 -16q-12 -29 -48 -66.5t-61 -54.5l-18 -4q-66 39 -111 119z" />
<glyph unicode="&#xc5;" horiz-adv-x="1470" d="M20 0l19 68l141 63q193 401 443 1040q14 51 8 68l-23 57l164 99l10 -11q0 -55 31 -145q27 -74 424 -1055q23 -41 57.5 -61.5t155.5 -54.5l-20 -68q-37 0 -119 1t-123 1q-33 0 -106.5 -1t-116.5 -1l16 59l72 56q-10 35 -144 360q-197 -14 -460 -10q-27 -68 -55.5 -141.5 t-44 -114.5t-30.5 -78l183 -63l-17 -68q-39 0 -121.5 1t-123.5 1q-37 0 -110 -1t-110 -1zM494 586q25 0 179 -4t201 -4q-74 197 -186 509h-4q-43 -115 -85 -224t-64.5 -169.5t-40.5 -107.5zM512 1632q0 88 61.5 139.5t143.5 51.5h2q80 0 140.5 -51.5t60.5 -139.5t-61.5 -139 t-141.5 -51q-82 0 -143.5 51t-61.5 139zM616 1632.5q0 -55.5 29 -83t72 -27.5q98 0 98 110.5t-98 110.5h-2q-41 0 -70 -27.5t-29 -83z" />
<glyph unicode="&#xc6;" horiz-adv-x="1961" d="M23 0l24 70l137 63q299 553 580 1100l-240 43l25 72h356h742q82 25 176 24l8 -8q-10 -154 -53 -334l-39 -16q-27 59 -97 237l-460 -12l20 -539q340 0 543 27l16 -25q-4 -16 -54 -73.5t-71 -57.5q-14 0 -211.5 10.5t-222.5 10.5q4 -147 23 -479l417 -17q125 166 199 248 l43 -2q-8 -63 -35.5 -186t-44.5 -162q-129 8 -377 8h-307q-47 0 -146.5 -1t-150.5 -1l21 70l174 53q2 41 1 71.5t-3 164t-2 233.5h-455l-78 -156q-72 -143 -145 -305l184 -61l-26 -70q-35 0 -119 1t-125 1q-37 0 -112.5 -1t-114.5 -1zM616 700h396l-2 541h-123 q-117 -224 -271 -541z" />
<glyph unicode="&#xc7;" horiz-adv-x="1437" d="M96 664q0 139 47 258.5t125 202.5t179.5 143.5t211 88t220.5 27.5h4q176 0 305 -69q70 39 170 53l16 -10q-8 -66 -36.5 -185.5t-47.5 -152.5l-49 -25q-39 68 -74 226q-98 61 -247 61q-276 0 -440.5 -169t-164.5 -439.5t173.5 -436t453.5 -165.5q70 0 131 16 q143 152 252 231l55 -10q-16 -49 -74.5 -157.5t-78.5 -124.5q-98 -53 -318 -66l-53 -78q68 -41 93.5 -73.5t25.5 -83.5q0 -68 -59.5 -123.5t-174.5 -89.5l-39 75q127 51 127 111q0 29 -26.5 48.5t-102.5 53.5l113 162q-141 8 -267 53t-228.5 128t-162 216.5t-59.5 303.5z " />
<glyph unicode="&#xc8;" horiz-adv-x="1193" d="M59 0l21 68l168 55q12 53 12 582v526l-182 51l20 66h258h492q90 20 188 24l6 -8q-8 -109 -49 -307l-47 -25q-43 92 -92 223l-405 -16v-487q240 0 524 26l10 -22q-8 -20 -60.5 -76.5t-72.5 -56.5q-16 0 -192.5 12t-208.5 12q0 -375 8 -534l428 -17q12 14 82.5 114.5 t97.5 129.5l57 2q-8 -57 -35.5 -182t-42.5 -164q-137 6 -374 6h-328q-47 0 -141.5 -1t-141.5 -1zM303 1628q66 98 127 125l342 -242l-41 -69l-422 157z" />
<glyph unicode="&#xc9;" horiz-adv-x="1193" d="M59 0l21 68l168 55q12 53 12 582v526l-182 51l20 66h258h492q90 20 188 24l6 -8q-8 -109 -49 -307l-47 -25q-43 92 -92 223l-405 -16v-487q240 0 524 26l10 -22q-8 -20 -60.5 -76.5t-72.5 -56.5q-16 0 -192.5 12t-208.5 12q0 -375 8 -534l428 -17q12 14 82.5 114.5 t97.5 129.5l57 2q-8 -57 -35.5 -182t-42.5 -164q-137 6 -374 6h-328q-47 0 -141.5 -1t-141.5 -1zM444 1516l334 231q35 -8 79 -46t63 -73l-7 -31l-434 -157z" />
<glyph unicode="&#xca;" horiz-adv-x="1193" d="M59 0l21 68l168 55q12 53 12 582v526l-182 51l20 66h258h492q90 20 188 24l6 -8q-8 -109 -49 -307l-47 -25q-43 92 -92 223l-405 -16v-487q240 0 524 26l10 -22q-8 -20 -60.5 -76.5t-72.5 -56.5q-16 0 -192.5 12t-208.5 12q0 -375 8 -534l428 -17q12 14 82.5 114.5 t97.5 129.5l57 2q-8 -57 -35.5 -182t-42.5 -164q-137 6 -374 6h-328q-47 0 -141.5 -1t-141.5 -1zM299 1513q16 14 120.5 95.5t160.5 124.5h55q16 -14 120.5 -95.5t159.5 -124.5l-47 -71q-172 86 -262 127q-8 -4 -266 -127z" />
<glyph unicode="&#xcb;" horiz-adv-x="1193" d="M59 0l21 68l168 55q12 53 12 582v526l-182 51l20 66h258h492q90 20 188 24l6 -8q-8 -109 -49 -307l-47 -25q-43 92 -92 223l-405 -16v-487q240 0 524 26l10 -22q-8 -20 -60.5 -76.5t-72.5 -56.5q-16 0 -192.5 12t-208.5 12q0 -375 8 -534l428 -17q12 14 82.5 114.5 t97.5 129.5l57 2q-8 -57 -35.5 -182t-42.5 -164q-137 6 -374 6h-328q-47 0 -141.5 -1t-141.5 -1zM264 1573l4 16q53 78 113 119l16 6q20 -10 57.5 -50t51.5 -69l-4 -16q-12 -29 -48 -66.5t-61 -54.5l-18 -4q-64 35 -111 119zM696 1573l2 16q57 80 115 119l16 6 q20 -10 57.5 -50t51.5 -69l-4 -16q-12 -29 -48 -66.5t-61 -54.5l-18 -4q-66 39 -111 119z" />
<glyph unicode="&#xcc;" horiz-adv-x="710" d="M55 1628q66 98 127 125l342 -242l-41 -69l-422 157zM72 0l18 70l158 55q12 51 12 577v529l-162 51l19 66q41 0 118.5 -1t116.5 -1q43 0 130 1t130 1l-20 -68l-143 -51v-527q0 -494 10 -579l190 -53l-20 -70q-41 0 -131 1t-142 1q-49 0 -145 -1t-139 -1z" />
<glyph unicode="&#xcd;" horiz-adv-x="710" d="M72 0l18 70l158 55q12 51 12 577v529l-162 51l19 66q41 0 118.5 -1t116.5 -1q43 0 130 1t130 1l-20 -68l-143 -51v-527q0 -494 10 -579l190 -53l-20 -70q-41 0 -131 1t-142 1q-49 0 -145 -1t-139 -1zM199 1516l333 231q35 -8 79 -46t63 -73l-6 -31l-435 -157z" />
<glyph unicode="&#xce;" horiz-adv-x="710" d="M49 1522q16 14 120.5 95t160.5 124h55q16 -14 120.5 -95t160.5 -124l-48 -72q-172 86 -262 127q-8 -4 -266 -127zM72 0l18 70l158 55q12 51 12 577v529l-162 51l19 66q41 0 118.5 -1t116.5 -1q43 0 130 1t130 1l-20 -68l-143 -51v-527q0 -494 10 -579l190 -53l-20 -70 q-41 0 -131 1t-142 1q-49 0 -145 -1t-139 -1z" />
<glyph unicode="&#xcf;" horiz-adv-x="710" d="M20 1573l5 16q53 78 112 119l17 6q20 -10 57 -50t51 -69l-4 -16q-12 -29 -48 -66.5t-60 -54.5l-19 -4q-64 35 -111 119zM72 0l18 70l158 55q12 51 12 577v529l-162 51l19 66q41 0 118.5 -1t116.5 -1q43 0 130 1t130 1l-20 -68l-143 -51v-527q0 -494 10 -579l190 -53 l-20 -70q-41 0 -131 1t-142 1q-49 0 -145 -1t-139 -1zM453 1573l2 16q57 80 114 119l17 6q20 -10 57 -50t51 -69l-4 -16q-12 -29 -48 -66.5t-60 -54.5l-19 -4q-65 39 -110 119z" />
<glyph unicode="&#xd0;" horiz-adv-x="1550" d="M70 651l28 103h187v487l-183 29l23 63q281 27 475 27q401 0 626.5 -165t225.5 -490q0 -115 -29.5 -214.5t-74.5 -165t-108.5 -119.5t-119 -84t-114.5 -50q-211 -78 -549 -78q-231 0 -363 6l21 70l157 47q12 39 13 534h-215zM473 651q0 -541 8 -563q389 0 566 158 q184 166 184 448q0 281 -178 428q-100 84 -234.5 112t-345.5 28v-508h383l-43 -103h-340z" />
<glyph unicode="&#xd1;" horiz-adv-x="1601" d="M55 1278l25 72l289 10q18 -41 84 -121q311 -389 821 -958h4q0 35 -6 451.5t-6 479.5l-174 68l26 68q39 0 108.5 -1t104.5 -1q43 0 131 1t127 1l-18 -74l-172 -62q0 -33 -5 -211t-10.5 -419.5t-7.5 -405.5q0 -86 -10 -209l-31 -10q-209 152 -954 1081h-4q-4 -768 14 -901 l182 -69l-20 -68q-39 0 -121 1t-125 1q-41 0 -122 -1t-115 -1l14 68l164 69q27 362 37 1006q-18 29 -35 48t-27 30.5t-32.5 20.5t-30.5 11t-47.5 11.5t-57.5 13.5zM514 1491q96 197 207 197q47 0 125 -50q84 -49 115 -49q45 0 120 97l68 -52q-49 -96 -107.5 -141t-107.5 -45 q-47 0 -139 55q-70 41 -95 41q-45 0 -118 -104z" />
<glyph unicode="&#xd2;" horiz-adv-x="1626" d="M98 659q0 170 65.5 311.5t170 229.5t228.5 136t249 48h2q100 0 198.5 -26.5t191.5 -82.5t164 -135t115 -194t46 -250q2 -186 -61.5 -332.5t-169 -231.5t-228.5 -128t-252 -43q-135 0 -262 44t-229.5 128t-165 220t-62.5 306zM322 692q0 -256 143 -447.5t373 -191.5 q125 0 218 54.5t145 145.5t78 196.5t26 224.5q0 256 -142.5 436t-363.5 180h-2q-219 0 -347 -165t-128 -433zM518 1649q66 98 127 125l342 -242l-41 -70l-422 158z" />
<glyph unicode="&#xd3;" horiz-adv-x="1626" d="M98 659q0 170 65.5 311.5t170 229.5t228.5 136t249 48h2q100 0 198.5 -26.5t191.5 -82.5t164 -135t115 -194t46 -250q2 -186 -61.5 -332.5t-169 -231.5t-228.5 -128t-252 -43q-135 0 -262 44t-229.5 128t-165 220t-62.5 306zM322 692q0 -256 143 -447.5t373 -191.5 q125 0 218 54.5t145 145.5t78 196.5t26 224.5q0 256 -142.5 436t-363.5 180h-2q-219 0 -347 -165t-128 -433zM653 1538l334 231q35 -8 79 -45.5t62 -72.5l-6 -31l-434 -158z" />
<glyph unicode="&#xd4;" horiz-adv-x="1626" d="M98 659q0 170 65.5 311.5t170 229.5t228.5 136t249 48h2q100 0 198.5 -26.5t191.5 -82.5t164 -135t115 -194t46 -250q2 -186 -61.5 -332.5t-169 -231.5t-228.5 -128t-252 -43q-135 0 -262 44t-229.5 128t-165 220t-62.5 306zM322 692q0 -256 143 -447.5t373 -191.5 q125 0 218 54.5t145 145.5t78 196.5t26 224.5q0 256 -142.5 436t-363.5 180h-2q-219 0 -347 -165t-128 -433zM506 1516q16 14 120.5 95t159.5 124h56q16 -14 120.5 -95t159.5 -124l-47 -72q-172 86 -262 127q-8 -4 -266 -127z" />
<glyph unicode="&#xd5;" horiz-adv-x="1626" d="M98 659q0 170 65.5 311.5t170 229.5t228.5 136t249 48h2q100 0 198.5 -26.5t191.5 -82.5t164 -135t115 -194t46 -250q2 -186 -61.5 -332.5t-169 -231.5t-228.5 -128t-252 -43q-135 0 -262 44t-229.5 128t-165 220t-62.5 306zM322 692q0 -256 143 -447.5t373 -191.5 q125 0 218 54.5t145 145.5t78 196.5t26 224.5q0 256 -142.5 436t-363.5 180h-2q-219 0 -347 -165t-128 -433zM502 1516q96 197 207 196q47 0 125 -49q84 -49 114 -49q45 0 121 96l68 -51q-49 -96 -107.5 -141t-107.5 -45q-47 0 -140 55q-70 41 -94 41q-45 0 -119 -105z" />
<glyph unicode="&#xd6;" horiz-adv-x="1626" d="M98 659q0 170 65.5 311.5t170 229.5t228.5 136t249 48h2q100 0 198.5 -26.5t191.5 -82.5t164 -135t115 -194t46 -250q2 -186 -61.5 -332.5t-169 -231.5t-228.5 -128t-252 -43q-135 0 -262 44t-229.5 128t-165 220t-62.5 306zM322 692q0 -256 143 -447.5t373 -191.5 q125 0 218 54.5t145 145.5t78 196.5t26 224.5q0 256 -142.5 436t-363.5 180h-2q-219 0 -347 -165t-128 -433zM477 1573l4 16q53 78 113 119l16 6q20 -10 57.5 -50t51.5 -69l-4 -16q-12 -29 -48 -66.5t-61 -54.5l-18 -4q-64 35 -111 119zM909 1573l2 16q57 80 115 119l16 6 q20 -10 57.5 -50t51.5 -69l-4 -16q-12 -29 -48 -66.5t-61 -54.5l-18 -4q-66 39 -111 119z" />
<glyph unicode="&#xd7;" horiz-adv-x="1312" d="M184 862l95 99l376 -388l383 392l90 -99l-378 -387l376 -381l-90 -102l-381 387l-374 -387l-95 100l375 383z" />
<glyph unicode="&#xd8;" horiz-adv-x="1628" d="M98 659q0 172 66.5 314.5t172 229.5t229.5 134t247 47q229 0 416 -127l127 168l69 -61l-122 -160q225 -197 227 -504q2 -188 -63.5 -335.5t-172 -232.5t-228.5 -128t-247 -43q-240 0 -428 119l-143 -186l-66 65l142 178q-226 207 -226 522zM319 674q0 -223 123 -398h4 l691 877q-131 137 -340 137q-217 0 -347.5 -171t-130.5 -445zM500 199q47 -59 140 -102.5t191 -43.5q125 0 220.5 54.5t149.5 145.5t81 199.5t27 227.5q0 221 -113 395h-4z" />
<glyph unicode="&#xd9;" horiz-adv-x="1540" d="M68 1278l20 70q39 0 119 -1t121 -1q39 0 115.5 1t113.5 1l-18 -70l-107 -57v-760q0 -125 55 -207q109 -160 336 -160q205 0 318 142q66 84 71 245q8 295 -4 740l-145 57l20 70q35 0 102.5 -1t100.5 -1q41 0 122 1t118 1l-15 -70l-163 -59q-10 -51 -23 -727 q-4 -188 -88 -312q-150 -215 -455 -215q-348 0 -481 236q-59 102 -59 284q0 121 -1 299.5t-1 285t-2 155.5zM479 1628q66 98 127 125l342 -242l-41 -69l-422 157z" />
<glyph unicode="&#xda;" horiz-adv-x="1540" d="M68 1278l20 70q39 0 119 -1t121 -1q39 0 115.5 1t113.5 1l-18 -70l-107 -57v-760q0 -125 55 -207q109 -160 336 -160q205 0 318 142q66 84 71 245q8 295 -4 740l-145 57l20 70q35 0 102.5 -1t100.5 -1q41 0 122 1t118 1l-15 -70l-163 -59q-10 -51 -23 -727 q-4 -188 -88 -312q-150 -215 -455 -215q-348 0 -481 236q-59 102 -59 284q0 121 -1 299.5t-1 285t-2 155.5zM643 1516l334 231q35 -8 79 -46t62 -73l-6 -31l-434 -157z" />
<glyph unicode="&#xdb;" horiz-adv-x="1540" d="M68 1278l20 70q39 0 119 -1t121 -1q39 0 115.5 1t113.5 1l-18 -70l-107 -57v-760q0 -125 55 -207q109 -160 336 -160q205 0 318 142q66 84 71 245q8 295 -4 740l-145 57l20 70q35 0 102.5 -1t100.5 -1q41 0 122 1t118 1l-15 -70l-163 -59q-10 -51 -23 -727 q-4 -188 -88 -312q-150 -215 -455 -215q-348 0 -481 236q-59 102 -59 284q0 121 -1 299.5t-1 285t-2 155.5zM498 1513q16 14 120.5 95.5t159.5 124.5h56q16 -14 120.5 -95.5t159.5 -124.5l-47 -71q-172 86 -262 127q-8 -4 -266 -127z" />
<glyph unicode="&#xdc;" horiz-adv-x="1540" d="M68 1278l20 70q39 0 119 -1t121 -1q39 0 115.5 1t113.5 1l-18 -70l-107 -57v-760q0 -125 55 -207q109 -160 336 -160q205 0 318 142q66 84 71 245q8 295 -4 740l-145 57l20 70q35 0 102.5 -1t100.5 -1q41 0 122 1t118 1l-15 -70l-163 -59q-10 -51 -23 -727 q-4 -188 -88 -312q-150 -215 -455 -215q-348 0 -481 236q-59 102 -59 284q0 121 -1 299.5t-1 285t-2 155.5zM469 1573l4 16q53 78 113 119l16 6q20 -10 57 -50t52 -69l-4 -16q-12 -29 -48 -66.5t-61 -54.5l-18 -4q-64 35 -111 119zM901 1573l2 16q57 80 115 119l16 6 q20 -10 57 -50t52 -69l-4 -16q-12 -29 -48 -66.5t-61 -54.5l-18 -4q-66 39 -111 119z" />
<glyph unicode="&#xdd;" horiz-adv-x="1314" d="M14 1280l27 68q43 0 125 -1t121 -1q33 0 96 1t94 1l-18 -72l-56 -39q41 -88 299 -541h7q143 264 276 531l-84 49l27 72q25 0 70.5 -1t68.5 -1q41 0 123 1t121 1l-25 -72l-76 -25q-49 -10 -75.5 -26.5t-53.5 -55.5q-131 -193 -309 -526q-23 -43 -22 -86q0 -391 6 -428 l250 -61l-23 -68q-49 0 -159.5 1t-170 1t-171 -1t-163.5 -1l21 63l207 64q14 123 14 414q0 41 -22 82q-152 272 -326 557q-29 39 -67 59.5t-132 40.5zM543 1516l334 231q35 -8 78.5 -46t62.5 -73l-6 -31l-434 -157z" />
<glyph unicode="&#xde;" horiz-adv-x="1185" d="M92 0l23 63l135 58q8 33 8 581v533l-160 49l25 64q39 0 112.5 -1t110.5 -1q45 0 134 1t132 1l-20 -66l-143 -49v-164q35 2 137 8q102 4 189 -13t163 -56t119 -114t43 -177q0 -90 -32 -162t-80 -115t-109.5 -70.5t-116.5 -39t-107 -11.5q-66 0 -98 13l-22 76h38 q158 0 236 86t78 213q0 139 -90 209.5t-238 70.5q-61 0 -110 -12v-242q0 -135 1 -244.5t3 -172t4 -104.5t3 -63.5t1 -25.5l186 -55l-24 -68q-45 0 -134.5 1t-134.5 1q-43 0 -129 -1t-133 -1z" />
<glyph unicode="&#xdf;" horiz-adv-x="1165" d="M55 0l17 61l127 54q8 49 8 405v279l-144 24l33 84h111q12 260 153 408q127 131 316 131q147 0 244.5 -89t97.5 -227q0 -27 -6 -57q-90 -57 -159 -138t-69 -144q0 -37 23.5 -68t97.5 -92q98 -82 142.5 -151.5t44.5 -157.5q0 -162 -120 -255.5t-286 -93.5q-111 0 -172 27 q18 111 51 193l37 20q49 -82 82 -152q6 -2 23 -2q78 0 146.5 55.5t68.5 151.5q0 51 -27 92t-92 99q-106 94 -141 131q-41 41 -41 102q0 66 39.5 138.5t79.5 117.5t108 111q16 25 16 47q0 117 -63.5 183.5t-153.5 66.5q-117 0 -184.5 -101.5t-71.5 -312.5q-6 -141 -6 -403 q0 -369 6 -422l45 -64l-10 -51q-23 0 -73 1t-77 1q-31 0 -103.5 -1t-117.5 -1z" />
<glyph unicode="&#xe0;" horiz-adv-x="962" d="M82 219q0 127 86 176q152 80 434 148v37q0 139 -55 191t-150 52q-66 0 -121 -37q-14 -129 -32 -198l-31 -15q-20 12 -68.5 78t-60.5 103q31 29 108.5 73.5t147.5 71.5q90 33 147 33q147 0 218 -98.5t71 -212.5q0 -74 -2 -231t-2 -220q49 -90 158 -123l-19 -43 q-51 -29 -104 -29q-158 0 -201 117h-2q-119 -119 -254 -119q-127 0 -197.5 77t-70.5 169zM162 1333v39q80 45 194 39l199 -340l-66 -61zM266 254q0 -78 54.5 -115t117.5 -37q80 0 140 64q16 20 20 49l4 246q-158 -41 -256 -92q-80 -41 -80 -113v-2z" />
<glyph unicode="&#xe1;" horiz-adv-x="962" d="M82 219q0 127 86 176q152 80 434 148v37q0 139 -55 191t-150 52q-66 0 -121 -37q-14 -129 -32 -198l-31 -15q-20 12 -68.5 78t-60.5 103q31 29 108.5 73.5t147.5 71.5q90 33 147 33q147 0 218 -98.5t71 -212.5q0 -74 -2 -231t-2 -220q49 -90 158 -123l-19 -43 q-51 -29 -104 -29q-158 0 -201 117h-2q-119 -119 -254 -119q-127 0 -197.5 77t-70.5 169zM266 254q0 -78 54.5 -115t117.5 -37q80 0 140 64q16 20 20 49l4 246q-158 -41 -256 -92q-80 -41 -80 -113v-2zM350 1067l230 344q74 -2 174 -45v-31l-338 -323z" />
<glyph unicode="&#xe2;" horiz-adv-x="962" d="M82 219q0 127 86 176q152 80 434 148v37q0 139 -55 191t-150 52q-66 0 -121 -37q-14 -129 -32 -198l-31 -15q-20 12 -68.5 78t-60.5 103q31 29 108.5 73.5t147.5 71.5q90 33 147 33q147 0 218 -98.5t71 -212.5q0 -74 -2 -231t-2 -220q49 -90 158 -123l-19 -43 q-51 -29 -104 -29q-158 0 -201 117h-2q-119 -119 -254 -119q-127 0 -197.5 77t-70.5 169zM193 1075l223 328l55 10l227 -338l-63 -55l-191 203l-188 -203zM266 254q0 -78 54.5 -115t117.5 -37q80 0 140 64q16 20 20 49l4 246q-158 -41 -256 -92q-80 -41 -80 -113v-2z" />
<glyph unicode="&#xe3;" horiz-adv-x="962" d="M82 219q0 127 86 176q152 80 434 148v37q0 139 -55 191t-150 52q-66 0 -121 -37q-14 -129 -32 -198l-31 -15q-20 12 -68.5 78t-60.5 103q31 29 108.5 73.5t147.5 71.5q90 33 147 33q147 0 218 -98.5t71 -212.5q0 -74 -2 -231t-2 -220q49 -90 158 -123l-19 -43 q-51 -29 -104 -29q-158 0 -201 117h-2q-119 -119 -254 -119q-127 0 -197.5 77t-70.5 169zM158 1110q61 109 107 151t95 42q41 0 121 -50q66 -47 103 -47q59 0 118 101l68 -45q-90 -190 -203 -191q-39 0 -137 55q-61 37 -90 37q-49 0 -119 -106zM266 254q0 -78 54.5 -115 t117.5 -37q80 0 140 64q16 20 20 49l4 246q-158 -41 -256 -92q-80 -41 -80 -113v-2z" />
<glyph unicode="&#xe4;" horiz-adv-x="962" d="M82 219q0 127 86 176q152 80 434 148v37q0 139 -55 191t-150 52q-66 0 -121 -37q-14 -129 -32 -198l-31 -15q-20 12 -68.5 78t-60.5 103q31 29 108.5 73.5t147.5 71.5q90 33 147 33q147 0 218 -98.5t71 -212.5q0 -74 -2 -231t-2 -220q49 -90 158 -123l-19 -43 q-51 -29 -104 -29q-158 0 -201 117h-2q-119 -119 -254 -119q-127 0 -197.5 77t-70.5 169zM133 1188l4 18q49 76 111 119l18 4q20 -12 55 -51t50 -68l-4 -16q-20 -55 -107 -121l-18 -4q-29 18 -61 53t-48 66zM266 254q0 -78 54.5 -115t117.5 -37q80 0 140 64q16 20 20 49 l4 246q-158 -41 -256 -92q-80 -41 -80 -113v-2zM526 1188l2 18q51 76 111 119l18 4q18 -10 54.5 -50t52.5 -69l-4 -16q-20 -55 -107 -121l-18 -4q-29 18 -61 53t-48 66z" />
<glyph unicode="&#xe5;" horiz-adv-x="962" d="M82 219q0 127 86 176q152 80 434 148v37q0 139 -55 191t-150 52q-66 0 -121 -37q-14 -129 -32 -198l-31 -15q-20 12 -68.5 78t-60.5 103q31 29 108.5 73.5t147.5 71.5q90 33 147 33q147 0 218 -98.5t71 -212.5q0 -74 -2 -231t-2 -220q49 -90 158 -123l-19 -43 q-51 -29 -104 -29q-158 0 -201 117h-2q-119 -119 -254 -119q-127 0 -197.5 77t-70.5 169zM252 1217q0 90 61.5 144t143.5 54h2q80 0 141.5 -54t61.5 -140q0 -88 -61.5 -140.5t-143.5 -52.5q-84 0 -144.5 51.5t-60.5 137.5zM266 254q0 -78 54.5 -115t117.5 -37q80 0 140 64 q16 20 20 49l4 246q-158 -41 -256 -92q-80 -41 -80 -113v-2zM356 1220.5q0 -51.5 29 -81t72 -29.5t71.5 30.5t28.5 80.5q0 53 -27.5 81.5t-72.5 28.5h-2q-43 0 -71 -29.5t-28 -81z" />
<glyph unicode="&#xe6;" horiz-adv-x="1478" d="M82 219q0 113 90 172q37 25 178.5 74t265.5 67v31q0 143 -54 199.5t-148 56.5q-70 0 -146 -49q0 -78 -24 -182l-29 -17q-25 18 -70 87t-53 100q29 27 109 71.5t139 67.5q80 35 149 35q184 0 250 -148q123 147 320 148q147 0 250.5 -93.5t103.5 -265.5q0 -66 -20 -73 q-68 -45 -197 -45h-397v-25q0 -172 91 -262t249 -90q31 0 71 22q100 68 156 99q6 -6 16 -35q-10 -29 -51 -82t-69 -74q-111 -35 -207 -35q-125 0 -224.5 48.5t-144.5 136.5q-197 -184 -346 -185q-119 0 -188.5 80t-69.5 166zM266 244q0 -74 48 -108t106 -34h2q49 0 112.5 33 t114.5 92q-33 84 -33 224q-223 -47 -282 -89q-39 -27 -53.5 -50t-14.5 -68zM801 547h403q16 53 17 88q0 78 -44 140.5t-139 62.5q-66 0 -116 -32t-74.5 -80t-35.5 -93t-11 -86z" />
<glyph unicode="&#xe7;" horiz-adv-x="952" d="M84 442q0 121 49 217.5t128 154.5t170 88t183 30q84 0 164 -24.5t103 -53.5q-29 -139 -72 -219l-45 -21q-39 104 -68 213q-20 16 -78 17q-152 0 -243.5 -108.5t-91.5 -268.5q0 -164 97 -272.5t263 -108.5q16 0 57 20q119 88 172 113l23 -37q-14 -41 -60.5 -98t-78.5 -80 q-61 -18 -140 -27l-63 -94q68 -37 93.5 -71.5t25.5 -83.5q0 -66 -59.5 -120t-172.5 -89l-37 73q123 53 123 109q0 29 -26.5 48.5t-100.5 53.5l121 168v4q-199 16 -317.5 138t-118.5 329z" />
<glyph unicode="&#xe8;" horiz-adv-x="948" d="M84 438q0 211 132 352.5t312 141.5q150 0 252.5 -95.5t102.5 -269.5q0 -59 -21 -71q-68 -31 -196 -31h-390v-23q0 -158 90.5 -253t227.5 -95q47 0 76 15q109 72 176 106l14 -45q-10 -31 -55 -82t-72 -70q-109 -45 -211 -45q-195 0 -316.5 125t-121.5 340zM221 1333v39 q80 45 195 39l198 -340l-65 -61zM281 557h403q8 33 8 57q0 100 -48 164t-132 64q-76 0 -132 -55.5t-77.5 -117t-21.5 -112.5z" />
<glyph unicode="&#xe9;" horiz-adv-x="948" d="M84 438q0 211 132 352.5t312 141.5q150 0 252.5 -95.5t102.5 -269.5q0 -59 -21 -71q-68 -31 -196 -31h-390v-23q0 -158 90.5 -253t227.5 -95q47 0 76 15q109 72 176 106l14 -45q-10 -31 -55 -82t-72 -70q-109 -45 -211 -45q-195 0 -316.5 125t-121.5 340zM281 557h403 q8 33 8 57q0 100 -48 164t-132 64q-76 0 -132 -55.5t-77.5 -117t-21.5 -112.5zM414 1067l229 344q74 -2 174 -45v-31l-338 -323z" />
<glyph unicode="&#xea;" horiz-adv-x="948" d="M84 438q0 211 132 352.5t312 141.5q150 0 252.5 -95.5t102.5 -269.5q0 -59 -21 -71q-68 -31 -196 -31h-390v-23q0 -158 90.5 -253t227.5 -95q47 0 76 15q109 72 176 106l14 -45q-10 -31 -55 -82t-72 -70q-109 -45 -211 -45q-195 0 -316.5 125t-121.5 340zM270 1075 l224 328l55 10l227 -338l-63 -55l-191 203l-188 -203zM281 557h403q8 33 8 57q0 100 -48 164t-132 64q-76 0 -132 -55.5t-77.5 -117t-21.5 -112.5z" />
<glyph unicode="&#xeb;" horiz-adv-x="948" d="M84 438q0 211 132 352.5t312 141.5q150 0 252.5 -95.5t102.5 -269.5q0 -59 -21 -71q-68 -31 -196 -31h-390v-23q0 -158 90.5 -253t227.5 -95q47 0 76 15q109 72 176 106l14 -45q-10 -31 -55 -82t-72 -70q-109 -45 -211 -45q-195 0 -316.5 125t-121.5 340zM199 1188l4 18 q49 76 110 119l19 4q20 -12 55 -51t49 -68l-4 -16q-20 -55 -106 -121l-19 -4q-29 18 -60.5 53t-47.5 66zM281 557h403q8 33 8 57q0 100 -48 164t-132 64q-76 0 -132 -55.5t-77.5 -117t-21.5 -112.5zM592 1188l2 18q51 76 111 119l18 4q18 -10 54 -50t52 -69l-4 -16 q-20 -55 -106 -121l-19 -4q-29 18 -60.5 53t-47.5 66z" />
<glyph unicode="&#xec;" horiz-adv-x="575" d="M-16 1333v39q80 45 194 39l199 -340l-66 -61zM68 0l18 68l117 55q0 20 1 161.5t1 237.5v244l-113 53l10 53q131 47 281 62v-416q0 -348 2 -395l150 -55l-19 -68q-35 0 -113.5 1t-119.5 1q-31 0 -102.5 -1t-112.5 -1z" />
<glyph unicode="&#xed;" horiz-adv-x="575" d="M68 0l18 68l117 55q0 20 1 161.5t1 237.5v244l-113 53l10 53q131 47 281 62v-416q0 -348 2 -395l150 -55l-19 -68q-35 0 -113.5 1t-119.5 1q-31 0 -102.5 -1t-112.5 -1zM178 1067l230 344q74 -2 174 -45v-31l-338 -323z" />
<glyph unicode="&#xee;" horiz-adv-x="575" d="M18 1075l224 328l55 10l227 -338l-63 -55l-191 203l-188 -203zM68 0l18 68l117 55q0 20 1 161.5t1 237.5v244l-113 53l10 53q131 47 281 62v-416q0 -348 2 -395l150 -55l-19 -68q-35 0 -113.5 1t-119.5 1q-31 0 -102.5 -1t-112.5 -1z" />
<glyph unicode="&#xef;" horiz-adv-x="575" d="M-49 1188l4 18q49 76 111 119l18 4q20 -12 55 -51t49 -68l-4 -16q-20 -55 -106 -121l-19 -4q-29 18 -60.5 53t-47.5 66zM68 0l18 68l117 55q0 20 1 161.5t1 237.5v244l-113 53l10 53q131 47 281 62v-416q0 -348 2 -395l150 -55l-19 -68q-35 0 -113.5 1t-119.5 1 q-31 0 -102.5 -1t-112.5 -1zM344 1188l2 18q51 76 111 119l18 4q18 -10 54 -50t53 -69l-4 -16q-20 -55 -107 -121l-18 -4q-29 18 -61 53t-48 66z" />
<glyph unicode="&#xf0;" horiz-adv-x="1079" d="M86 438q0 227 139.5 360.5t319.5 133.5q131 0 221 -76l4 4q-59 174 -190 301l-295 -155l-56 69l281 150q-113 86 -303 145l31 76q215 -47 387 -160l262 139l45 -73l-234 -127q295 -262 295 -676q0 -283 -128 -429.5t-335 -146.5q-182 0 -313 122t-131 343zM289 463 q0 -162 65.5 -283t194.5 -121q90 0 149.5 71t80 165t20.5 207q0 188 -86 272q-70 66 -162 66h-2q-125 0 -192.5 -113.5t-67.5 -263.5z" />
<glyph unicode="&#xf1;" horiz-adv-x="1173" d="M72 0l20 68l111 51q4 70 4 463v168l-113 45l21 59q29 16 127 46t143 32l-12 -158l4 -2q195 160 321 160q104 0 172 -54.5t90.5 -126t22.5 -159.5v-442q0 -23 29 -37l125 -45l-19 -68q-31 0 -110.5 1t-120.5 1q-29 0 -93.5 -1t-103.5 -1l21 72l90 55q0 14 1 73.5t2 162 t1 219.5q0 109 -52.5 162t-136.5 53q-59 0 -122.5 -33t-108.5 -78q0 -522 2 -569l119 -47l-19 -70q-27 0 -94 1t-102 1t-108.5 -1t-110.5 -1zM276 1110q61 109 107.5 151t95.5 42q41 0 121 -50q66 -47 102 -47q59 0 119 101l68 -45q-90 -190 -203 -191q-39 0 -137 55 q-61 37 -90 37q-49 0 -119 -106z" />
<glyph unicode="&#xf2;" horiz-adv-x="1099" d="M84 440q0 223 148.5 357.5t324.5 134.5h2q190 0 323.5 -132t133.5 -337q0 -217 -132 -353.5t-331 -136.5q-186 0 -327.5 125t-141.5 342zM258 1333v39q80 45 195 39l198 -340l-65 -61zM291 455q0 -154 72.5 -274t201.5 -120q88 0 145.5 62.5t78 143.5t20.5 175 q0 160 -69.5 281t-192.5 121h-2q-121 0 -187.5 -111.5t-66.5 -277.5z" />
<glyph unicode="&#xf3;" horiz-adv-x="1099" d="M84 440q0 223 148.5 357.5t324.5 134.5h2q190 0 323.5 -132t133.5 -337q0 -217 -132 -353.5t-331 -136.5q-186 0 -327.5 125t-141.5 342zM291 455q0 -154 72.5 -274t201.5 -120q88 0 145.5 62.5t78 143.5t20.5 175q0 160 -69.5 281t-192.5 121h-2q-121 0 -187.5 -111.5 t-66.5 -277.5zM465 1067l229 344q74 -2 174 -45v-31l-338 -323z" />
<glyph unicode="&#xf4;" horiz-adv-x="1099" d="M84 440q0 223 148.5 357.5t324.5 134.5h2q190 0 323.5 -132t133.5 -337q0 -217 -132 -353.5t-331 -136.5q-186 0 -327.5 125t-141.5 342zM291 455q0 -154 72.5 -274t201.5 -120q88 0 145.5 62.5t78 143.5t20.5 175q0 160 -69.5 281t-192.5 121h-2q-121 0 -187.5 -111.5 t-66.5 -277.5zM299 1075l223 328l56 10l227 -338l-64 -55l-190 203l-189 -203z" />
<glyph unicode="&#xf5;" horiz-adv-x="1099" d="M84 440q0 223 148.5 357.5t324.5 134.5h2q190 0 323.5 -132t133.5 -337q0 -217 -132 -353.5t-331 -136.5q-186 0 -327.5 125t-141.5 342zM236 1110q61 109 107 151t95 42q41 0 121 -50q66 -47 103 -47q59 0 118 101l68 -45q-90 -190 -203 -191q-39 0 -137 55 q-61 37 -90 37q-49 0 -119 -106zM291 455q0 -154 72.5 -274t201.5 -120q88 0 145.5 62.5t78 143.5t20.5 175q0 160 -69.5 281t-192.5 121h-2q-121 0 -187.5 -111.5t-66.5 -277.5z" />
<glyph unicode="&#xf6;" horiz-adv-x="1099" d="M84 440q0 223 148.5 357.5t324.5 134.5h2q190 0 323.5 -132t133.5 -337q0 -217 -132 -353.5t-331 -136.5q-186 0 -327.5 125t-141.5 342zM236 1188l4 18q49 76 110 119l19 4q20 -12 55 -51t49 -68l-4 -16q-20 -55 -107 -121l-18 -4q-29 18 -60.5 53t-47.5 66zM291 455 q0 -154 72.5 -274t201.5 -120q88 0 145.5 62.5t78 143.5t20.5 175q0 160 -69.5 281t-192.5 121h-2q-121 0 -187.5 -111.5t-66.5 -277.5zM629 1188l2 18q51 76 110 119l19 4q18 -10 54 -50t52 -69l-4 -16q-20 -55 -106 -121l-19 -4q-29 18 -60.5 53t-47.5 66z" />
<glyph unicode="&#xf7;" horiz-adv-x="1312" d="M145 426l25 123h995l-24 -123h-996zM537 143l2 23q70 90 114 119l17 2q20 -8 56 -47t48 -70l-4 -18q-12 -29 -48 -68t-63 -55l-16 -4q-31 18 -61.5 52.5t-44.5 65.5zM545 803l2 18q45 72 117 123l12 2q23 -10 57.5 -49t46.5 -70l-2 -18q-12 -27 -50 -67t-62 -54l-17 -6 q-31 16 -61.5 53t-42.5 68z" />
<glyph unicode="&#xf8;" horiz-adv-x="1101" d="M84 440q0 229 146.5 360.5t326.5 131.5q141 0 258 -76l80 113l63 -51l-79 -111q139 -133 139 -346q0 -217 -133 -352.5t-332 -135.5q-139 0 -252 70l-96 -125l-60 57l91 115q-68 53 -110 147t-42 203zM272 451q0 -147 58 -238h4l397 541q-70 88 -182 88 q-129 0 -203 -112.5t-74 -278.5zM383 143q66 -82 186 -82q90 0 151.5 61.5t85 145.5t23.5 181q0 135 -47 231l-4 2z" />
<glyph unicode="&#xf9;" horiz-adv-x="1142" d="M68 825l22 62q121 33 279 33q-14 -162 -15 -598q0 -96 39 -148q51 -59 148 -59q68 0 130 31.5t93 84.5v508q-4 31 -29.5 47.5t-111.5 42.5l26 58q119 37 299 33q-6 -96 -6 -750q49 -90 162 -121l-19 -45q-47 -29 -122 -29q-68 0 -121.5 35t-69.5 115h-4 q-147 -152 -299 -152q-131 0 -211 80q-82 80 -82 266q0 63 3 228.5t3 232.5zM242 1333v39q80 45 194 39l199 -340l-66 -61z" />
<glyph unicode="&#xfa;" horiz-adv-x="1142" d="M68 825l22 62q121 33 279 33q-14 -162 -15 -598q0 -96 39 -148q51 -59 148 -59q68 0 130 31.5t93 84.5v508q-4 31 -29.5 47.5t-111.5 42.5l26 58q119 37 299 33q-6 -96 -6 -750q49 -90 162 -121l-19 -45q-47 -29 -122 -29q-68 0 -121.5 35t-69.5 115h-4 q-147 -152 -299 -152q-131 0 -211 80q-82 80 -82 266q0 63 3 228.5t3 232.5zM453 1067l229 344q74 -2 174 -45v-31l-338 -323z" />
<glyph unicode="&#xfb;" horiz-adv-x="1142" d="M68 825l22 62q121 33 279 33q-14 -162 -15 -598q0 -96 39 -148q51 -59 148 -59q68 0 130 31.5t93 84.5v508q-4 31 -29.5 47.5t-111.5 42.5l26 58q119 37 299 33q-6 -96 -6 -750q49 -90 162 -121l-19 -45q-47 -29 -122 -29q-68 0 -121.5 35t-69.5 115h-4 q-147 -152 -299 -152q-131 0 -211 80q-82 80 -82 266q0 63 3 228.5t3 232.5zM301 1075l223 328l56 10l227 -338l-64 -55l-190 203l-188 -203z" />
<glyph unicode="&#xfc;" horiz-adv-x="1142" d="M68 825l22 62q121 33 279 33q-14 -162 -15 -598q0 -96 39 -148q51 -59 148 -59q68 0 130 31.5t93 84.5v508q-4 31 -29.5 47.5t-111.5 42.5l26 58q119 37 299 33q-6 -96 -6 -750q49 -90 162 -121l-19 -45q-47 -29 -122 -29q-68 0 -121.5 35t-69.5 115h-4 q-147 -152 -299 -152q-131 0 -211 80q-82 80 -82 266q0 63 3 228.5t3 232.5zM229 1188l4 18q49 76 111 119l18 4q20 -12 55.5 -51t49.5 -68l-4 -16q-20 -55 -107 -121l-18 -4q-29 18 -61 53t-48 66zM623 1188l2 18q51 76 110 119l19 4q18 -10 54 -50t52 -69l-4 -16 q-20 -55 -106 -121l-19 -4q-29 18 -60.5 53t-47.5 66z" />
<glyph unicode="&#xfd;" horiz-adv-x="962" d="M-4 842l24 65q33 0 97.5 -1t95.5 -1q35 0 105.5 1t105.5 1l-18 -69l-70 -41q29 -90 194 -551h5q152 397 198 547l-92 47l18 67q23 0 72 -1t72 -1q33 0 94 1t90 1l-14 -65q-90 -35 -133 -92q-18 -41 -416 -990q-10 -41 -27.5 -122.5t-27.5 -124.5q-16 -8 -52 -9 q-49 0 -98 26t-65 52q29 61 190 242q20 45 88 192q-8 16 -65.5 166t-124 325t-92.5 238q-18 37 -46 54.5t-108 42.5zM428 1067l229 344q74 -2 174 -45v-31l-337 -323z" />
<glyph unicode="&#xfe;" horiz-adv-x="1120" d="M29 -461l24 72l109 43q8 442 8 561v604q0 358 -6 461l-125 45l22 64q113 31 293 57q-6 -262 -6 -631l4 -2q184 119 277 119q90 0 180 -45t158.5 -150.5t68.5 -251.5q0 -135 -51 -240.5t-130 -160.5t-160 -83t-154 -28q-41 0 -97.5 26t-91.5 52l-4 -2q0 -111 8 -389 l197 -55l-25 -66q-43 0 -133 1t-137 1q-35 0 -112.5 -1t-116.5 -1zM348 154q84 -70 174 -70q129 0 222.5 104.5t93.5 268.5q0 150 -77 247t-210 97q-92 0 -203 -78v-569z" />
<glyph unicode="&#xff;" horiz-adv-x="962" d="M-4 842l24 65q33 0 97.5 -1t95.5 -1q35 0 105.5 1t105.5 1l-18 -69l-70 -41q29 -90 194 -551h5q152 397 198 547l-92 47l18 67q23 0 72 -1t72 -1q33 0 94 1t90 1l-14 -65q-90 -35 -133 -92q-18 -41 -416 -990q-10 -41 -27.5 -122.5t-27.5 -124.5q-16 -8 -52 -9 q-49 0 -98 26t-65 52q29 61 190 242q20 45 88 192q-8 16 -65.5 166t-124 325t-92.5 238q-18 37 -46 54.5t-108 42.5zM193 1188l4 18q49 76 110 119l19 4q20 -12 55 -51t49 -68l-4 -16q-20 -55 -107 -121l-18 -4q-29 18 -60.5 53t-47.5 66zM586 1188l2 18q51 76 110 119l19 4 q18 -10 54 -50t52 -69l-4 -16q-20 -55 -106 -121l-19 -4q-29 18 -60.5 53t-47.5 66z" />
<glyph unicode="&#x152;" horiz-adv-x="2076" d="M98 657q0 305 223.5 504t634.5 199q29 0 336 -12h434q92 20 193 24l6 -8q-12 -133 -53 -317l-39 -21q-39 78 -96 225l-406 -12v-483q262 0 524 24l9 -26q-6 -18 -58.5 -74.5t-72.5 -56.5q-16 0 -192.5 10t-209.5 10q0 -373 8 -530l426 -17q139 176 197 244h43 q-8 -59 -34.5 -182t-41.5 -164q-135 6 -377 6h-260q-47 0 -207.5 -6t-185.5 -6q-383 0 -592 184t-209 485zM319 668q0 -248 157 -417t466 -169q119 0 199 31v1124q-74 29 -195 29q-313 0 -470 -170t-157 -428z" />
<glyph unicode="&#x153;" horiz-adv-x="1673" d="M84 440q0 223 144.5 357.5t320.5 134.5q236 0 344 -184q129 184 354 184q150 0 251 -93.5t101 -271.5q0 -57 -22 -69q-2 0 -18.5 -7.5t-33 -13.5t-39 -12t-49 -10t-55.5 -4h-401v-27q0 -160 91 -254t251 -94q16 0 61 20q125 88 168 107l15 -43q-25 -53 -63 -97.5 t-68 -56.5q-78 -33 -197 -33t-214 45t-142 127q-51 -84 -146.5 -128t-208.5 -44q-186 0 -315 123t-129 344zM289 455q0 -158 64.5 -278t193.5 -120q90 0 147.5 69t75.5 150.5t18 176.5q0 152 -62 270.5t-185 118.5h-2q-90 0 -149.5 -65.5t-80 -147.5t-20.5 -174zM981 541 h410q16 33 16 88q0 92 -46 154.5t-138 62.5q-111 0 -174.5 -96t-67.5 -209z" />
<glyph unicode="&#x178;" horiz-adv-x="1314" d="M14 1280l27 68q43 0 125 -1t121 -1q33 0 96 1t94 1l-18 -72l-56 -39q41 -88 299 -541h7q143 264 276 531l-84 49l27 72q25 0 70.5 -1t68.5 -1q41 0 123 1t121 1l-25 -72l-76 -25q-49 -10 -75.5 -26.5t-53.5 -55.5q-131 -193 -309 -526q-23 -43 -22 -86q0 -391 6 -428 l250 -61l-23 -68q-49 0 -159.5 1t-170 1t-171 -1t-163.5 -1l21 63l207 64q14 123 14 414q0 41 -22 82q-152 272 -326 557q-29 39 -67 59.5t-132 40.5zM352 1573l4 16q53 78 113 119l16 6q20 -10 57.5 -50t51.5 -69l-4 -16q-12 -29 -48 -66.5t-61 -54.5l-18 -4 q-64 35 -111 119zM784 1573l2 16q57 80 115 119l17 6q20 -10 57 -50t51 -69l-4 -16q-12 -29 -48 -66.5t-61 -54.5l-18 -4q-66 39 -111 119z" />
<glyph unicode="&#x2c6;" horiz-adv-x="790" d="M143 1075l224 328l55 10l227 -338l-63 -55l-191 203l-188 -203z" />
<glyph unicode="&#x2dc;" horiz-adv-x="790" d="M92 1110q61 109 107.5 151t95.5 42q41 0 121 -50q66 -47 102 -47q59 0 119 101l68 -45q-90 -190 -203 -191q-39 0 -137 55q-61 37 -91 37q-49 0 -118 -106z" />
<glyph unicode="&#x2000;" horiz-adv-x="911" />
<glyph unicode="&#x2001;" horiz-adv-x="1822" />
<glyph unicode="&#x2002;" horiz-adv-x="911" />
<glyph unicode="&#x2003;" horiz-adv-x="1822" />
<glyph unicode="&#x2004;" horiz-adv-x="606" />
<glyph unicode="&#x2005;" horiz-adv-x="454" />
<glyph unicode="&#x2006;" horiz-adv-x="303" />
<glyph unicode="&#x2007;" horiz-adv-x="303" />
<glyph unicode="&#x2008;" horiz-adv-x="227" />
<glyph unicode="&#x2009;" horiz-adv-x="364" />
<glyph unicode="&#x200a;" horiz-adv-x="100" />
<glyph unicode="&#x2010;" horiz-adv-x="800" d="M94 373l70 166l112 -4l426 26l3 -14l-93 -113z" />
<glyph unicode="&#x2011;" horiz-adv-x="800" d="M94 373l70 166l112 -4l426 26l3 -14l-93 -113z" />
<glyph unicode="&#x2012;" horiz-adv-x="800" d="M94 373l70 166l112 -4l426 26l3 -14l-93 -113z" />
<glyph unicode="&#x2013;" horiz-adv-x="1265" d="M98 408l21 124h1048l-20 -124h-1049z" />
<glyph unicode="&#x2014;" horiz-adv-x="2004" d="M98 408l21 124h1786l-21 -124h-1786z" />
<glyph unicode="&#x2018;" horiz-adv-x="460" d="M78 1075q-2 102 66.5 202.5t197.5 172.5l43 -64q-57 -45 -97 -109.5t-40 -121.5q0 -41 18 -74l84 -45v-35l-162 -94h-30q-27 10 -52.5 55t-27.5 113z" />
<glyph unicode="&#x2019;" horiz-adv-x="460" d="M74 965q59 47 98 110.5t39 122.5q0 45 -18 74l-84 43v35l163 96h29q25 -10 51.5 -58.5t28.5 -111.5q2 -102 -66.5 -201.5t-197.5 -171.5z" />
<glyph unicode="&#x201a;" horiz-adv-x="458" d="M55 -193q59 45 100.5 113t41.5 127q0 49 -19 74l-86 45v41l168 98h33q25 -10 51.5 -60t28.5 -116q2 -104 -70 -208.5t-203 -178.5z" />
<glyph unicode="&#x201c;" horiz-adv-x="825" d="M80 1073q-2 100 66.5 201.5t195.5 175.5l43 -68q-57 -45 -96 -107.5t-39 -121.5q0 -49 16 -70l84 -45v-37l-162 -96h-28q-25 10 -51.5 57.5t-28.5 110.5zM440 1085q-4 98 64.5 194.5t197.5 170.5l43 -68q-57 -45 -96 -107.5t-39 -121.5q0 -49 17 -70l84 -45v-37l-162 -96 h-31q-23 10 -49.5 63.5t-28.5 116.5z" />
<glyph unicode="&#x201d;" horiz-adv-x="825" d="M78 969q57 45 96 107.5t39 121.5q0 49 -16 70l-84 43v39l161 96h31q23 -10 49.5 -66.5t28.5 -119.5q6 -205 -262 -357zM438 969q57 45 96 107.5t39 121.5q0 49 -16 70l-84 43v39l162 96h29q25 -10 51 -58.5t28 -111.5q2 -100 -66.5 -200.5t-195.5 -172.5z" />
<glyph unicode="&#x201e;" horiz-adv-x="829" d="M55 -193q59 45 100.5 113t41.5 127q0 49 -19 74l-86 45v41l168 98h35q25 -10 51.5 -61t28.5 -117q2 -104 -70 -207.5t-203 -177.5zM426 -193q59 45 100 113t41 127q0 49 -18 74l-86 45v41l168 98h33q25 -8 51 -59t28 -117q4 -104 -67.5 -208.5t-204.5 -178.5z" />
<glyph unicode="&#x2022;" horiz-adv-x="854" d="M139 424l8 45q168 221 271 274l33 15q51 -23 137 -116t127 -165l-15 -41q-27 -68 -112.5 -154.5t-147.5 -119.5l-37 -15q-68 37 -145.5 122t-118.5 155z" />
<glyph unicode="&#x2026;" horiz-adv-x="1875" d="M164 102l4 21q72 98 135 137l16 6q27 -10 70 -56t62 -83l-5 -21q-14 -31 -58 -75.5t-73 -61.5l-20 -6q-33 18 -70.5 60t-60.5 79zM784 102l7 21q59 92 131 137l16 6q25 -10 68 -56t63 -83l-8 -21q-12 -33 -54 -76.5t-73 -60.5l-19 -6q-35 18 -74 61t-57 78zM1403 102 l4 21q70 98 133 137l19 6q25 -10 67.5 -56t63.5 -83l-9 -21q-12 -33 -55 -75.5t-74 -61.5l-18 -6q-35 18 -73 61t-58 78z" />
<glyph unicode="&#x202f;" horiz-adv-x="364" />
<glyph unicode="&#x2039;" horiz-adv-x="663" d="M104 451q203 184 383 407l60 -45q-68 -129 -217 -362q158 -227 225 -365l-59 -43q-96 125 -211 240t-181 168z" />
<glyph unicode="&#x203a;" horiz-adv-x="661" d="M104 815l62 43q104 -129 217 -244.5t172 -164.5q-201 -180 -381 -406l-57 45q29 47 102.5 172t112.5 189q-167 239 -228 366z" />
<glyph unicode="&#x205f;" horiz-adv-x="454" />
<glyph unicode="&#x20ac;" d="M8 518l27 80l112 2q-6 76 7 152l-84 2l28 77l70 3q51 244 206.5 373.5t352.5 129.5q145 0 272 -82q-27 -150 -65 -223l-43 -18q-47 109 -74 221q-27 12 -80 12q-141 0 -239.5 -110.5t-126.5 -298.5l565 12l-43 -113l-535 13q-8 -76 -4 -148l518 12l-43 -114l-469 12 q12 -197 102.5 -315.5t237.5 -118.5q25 0 50 8q129 143 202 205l64 -17q-10 -41 -59.5 -135t-71.5 -116q-106 -43 -223 -43q-209 0 -347.5 143t-158.5 393z" />
<glyph unicode="&#x2122;" horiz-adv-x="1126" d="M49 1202q0 80 6 119l8 4q4 0 14.5 -1t27 -3t26.5 -2h254q47 12 72 8q6 -4 6 -6q0 -43 -25 -117q-14 -8 -28 -14q-2 2 -29 76l-82 -6v-256l86 -17l-14 -51h-248l16 51l66 17v256l-80 6q-12 -18 -21.5 -36t-14.5 -28t-7 -12q-15 6 -33 12zM479 936l10 47l52 18q6 39 10 81 t8 92.5t6 78.5q-6 10 -69 17l12 49h180l6 -29q31 -70 101 -196q18 35 102 202l2 23h188l-14 -49l-53 -13q0 -145 10 -258l64 -12l-15 -51h-209l15 51l47 10v252q-10 -25 -55.5 -120t-88.5 -191l-34 2q-14 29 -30.5 66.5t-47.5 102.5t-60 128q-6 -199 -8 -236l70 -14l-10 -51 h-189z" />
<glyph unicode="&#xe000;" horiz-adv-x="905" d="M0 905h905v-905h-905v905z" />
<glyph unicode="&#xfb01;" horiz-adv-x="1169" d="M53 0l17 63l133 52q0 4 1 56t2 146.5t1 202.5v281l-141 28l26 78h115q4 266 182 418q143 121 322 121q150 0 229 -74q-27 -113 -74 -184l-45 -17q-39 76 -78 170q-23 12 -63 13q-131 0 -200.5 -94.5t-82.5 -247.5q0 -6 -3 -44t-3 -61h393q45 14 195 23v-414 q0 -338 2 -395l160 -60l-23 -61q-37 0 -105.5 1t-107.5 1q-33 0 -104.5 -1t-106.5 -1l17 61l86 60q4 123 4 401v297l-410 -20q-6 -141 -6 -262q0 -387 2 -414l162 -55l-21 -68q-39 0 -115.5 1t-115.5 1q-35 0 -115 -1t-129 -1z" />
<glyph unicode="&#xfb02;" horiz-adv-x="1171" d="M61 0l19 66l125 47q4 61 4 407v279l-143 24l36 84h107q0 260 164 416q129 123 307 123q76 0 162 -31q119 31 137 31v-617q0 -569 4 -712l147 -51l-24 -66q-43 0 -117 1t-106 1q-43 0 -117 -1t-104 -1l16 66l121 51v82q0 72 1 223t1 358v492q-68 74 -172 74 q-209 0 -234 -310q-4 -102 -4 -129h264l-37 -82l-229 -26q-2 -20 -2 -262q0 -391 2 -416l156 -55l-17 -66q-41 0 -120.5 1t-118.5 1q-37 0 -113 -1t-115 -1z" />
<glyph unicode="&#xfb03;" horiz-adv-x="1761" d="M55 0l19 66l129 49q4 57 4 405v279l-146 30l25 78h121q0 88 40 192.5t128 184.5q139 125 334 125q164 0 256 -98q66 63 153.5 99t171.5 36q170 0 242 -78q-16 -88 -70 -182l-43 -17q-31 55 -80 170q-25 12 -73 13q-129 0 -197 -92.5t-80 -243.5q-4 -41 -4 -109h408 q37 12 180 23v-414q0 -354 2 -395l151 -55l-18 -66q-39 0 -110.5 1t-108.5 1q-35 0 -105.5 -1t-107.5 -1l18 66l92 55q8 193 9 397v305l-410 -20q-6 -129 -6 -266q0 -367 4 -416l164 -49l-21 -72q-41 0 -120.5 1t-120.5 1q-37 0 -110 -1t-109 -1l18 72l113 41q4 57 4 407 v283h-410q-6 -117 -6 -266q0 -391 2 -414l160 -51l-19 -72q-41 0 -121.5 1t-121.5 1q-35 0 -111 -1t-119 -1zM393 907h408q0 170 78 289q-80 121 -228 121q-129 0 -190.5 -110.5t-65.5 -260.5q-2 -16 -2 -39z" />
<glyph unicode="&#xfb04;" horiz-adv-x="1761" d="M49 829l31 78h127q0 96 40 200.5t134 184.5q139 119 326 119q168 0 251 -94q127 131 314 133q84 0 162 -31q82 27 139 31v-619q0 -180 1 -340.5t2 -257t1 -118.5l147 -49l-22 -66q-35 0 -108.5 1t-108.5 1q-43 0 -117 -1t-113 -1l17 66l119 47q4 98 4 671v498 q-63 74 -164 74q-215 0 -244 -344q-2 -33 -2 -105h268l-39 -84l-231 -26q0 -6 -1 -42t-2 -95.5t-1 -118.5v-2q0 -139 1 -235.5t2 -138.5t1 -46l156 -53l-19 -66q-39 0 -112.5 1t-110.5 1t-114.5 -1t-116.5 -1l18 66l113 45q4 66 4 413v277h-410q-6 -117 -6 -260 q0 -389 2 -418l143 -57l-18 -66q-39 0 -114.5 1t-112.5 1t-113 -1t-117 -1l17 66l131 51q4 53 4 407v275zM391 907h410q0 162 71 295q-78 115 -221 115q-121 0 -188.5 -103.5t-69.5 -255.5q-2 -20 -2 -51z" />
</font>
</defs>
</svg>
